<svg width="111" height="76" viewBox="0 0 111 76" fill="none" xmlns="http://www.w3.org/2000/svg">
<path fill-rule="evenodd" clip-rule="evenodd" d="M106.023 13.4534C106.023 17.6774 98.6707 21.4455 87.1682 23.9113V43.0582C78.4313 41.185 67.3 40.0628 55.1779 40.0628C43.0559 40.0628 31.9246 41.185 23.1876 43.0582V23.9113C11.6851 21.4455 4.33259 17.6774 4.33259 13.4534C4.33259 6.02342 27.0968 0 55.1779 0C83.259 0 106.023 6.02342 106.023 13.4534ZM9.21053 23.8918C12.2697 25.3222 15.9347 26.3793 18.6282 27.037V68.3153C14.9853 67.7292 10.9653 66.4811 7.1356 64.367C4.41724 62.8671 2.06137 61.0763 0.0917969 59.1944V17.8011C2.5706 19.9087 5.29017 22.0598 9.21053 23.8918ZM101.145 23.8918C98.0862 25.3222 94.4211 26.3793 91.7276 27.037V68.3153C95.3706 67.7292 99.3905 66.4811 103.22 64.367C105.939 62.8671 108.294 61.0763 110.264 59.1944V17.8011C107.785 19.9087 105.066 22.0598 101.145 23.8918ZM35.5802 26.3467L47.4065 10.4232C48.3466 9.15776 50.2236 9.10567 51.2316 10.3169L58.8378 18.8886C58.8378 18.8886 59.572 18.2916 60.5646 17.1912L61.8023 15.8172C62.8371 14.6667 64.6671 14.7623 65.5775 16.0125L73.1187 26.3641C74.2903 27.9725 73.1415 30.2299 71.1516 30.2299H37.5339C35.5337 30.2299 34.3876 27.953 35.5802 26.3467Z" fill="#E0E0E0"/>
<mask id="path-2-outside-1_4720_1299" maskUnits="userSpaceOnUse" x="25.2485" y="50.4004" width="61" height="26" fill="black">
<rect fill="white" x="25.2485" y="50.4004" width="61" height="26"/>
<path fill-rule="evenodd" clip-rule="evenodd" d="M30.1254 75.2007C31.3165 75.4704 32.665 75.6053 34.1708 75.6053C35.8114 75.6053 37.2835 75.3581 38.587 74.8636C39.913 74.3692 40.958 73.65 41.7221 72.7061C42.5087 71.7397 42.902 70.5373 42.902 69.099C42.902 68.0651 42.7335 67.1886 42.3964 66.4695C42.0817 65.7503 41.666 65.1659 41.149 64.7165C40.6321 64.2445 40.0927 63.8849 39.5309 63.6377C38.969 63.3905 38.4521 63.2107 37.9802 63.0983C38.6319 62.8511 39.2612 62.514 39.868 62.087C40.4973 61.6375 41.0142 61.0419 41.4187 60.3002C41.8457 59.5361 42.0593 58.5922 42.0593 57.4685C42.0593 55.5357 41.3513 54.0411 39.9354 52.9848C38.542 51.9285 36.5418 51.4004 33.9348 51.4004C32.5189 51.4004 31.2491 51.5802 30.1254 51.9398C29.0016 52.2994 28.0465 52.6927 27.2599 53.1197C26.8104 53.3669 26.5857 53.749 26.5857 54.2659C26.5857 54.6255 26.7093 54.9289 26.9565 55.1761C27.2037 55.4008 27.4959 55.5132 27.833 55.5132C27.9678 55.5132 28.0802 55.502 28.1701 55.4795C28.26 55.4345 28.3499 55.4008 28.4398 55.3784C29.1365 55.0637 29.9119 54.8053 30.7659 54.603C31.6424 54.3782 32.6088 54.2659 33.6651 54.2659C35.463 54.2659 36.8003 54.5918 37.6768 55.2435C38.5533 55.8728 38.9915 56.7156 38.9915 57.7719C38.9915 59.1428 38.3847 60.1654 37.1711 60.8396C35.9575 61.5139 34.2494 61.851 32.0469 61.851H31.8447C31.4626 61.851 31.1255 61.9971 30.8333 62.2892C30.5636 62.5589 30.4288 62.8848 30.4288 63.2669C30.4288 63.6489 30.5636 63.986 30.8333 64.2782C31.1255 64.5479 31.4626 64.6827 31.8447 64.6827H32.384C34.2494 64.6827 35.7215 64.8625 36.8003 65.2221C37.879 65.5817 38.6544 66.0874 39.1264 66.7391C39.5983 67.3684 39.8343 68.0988 39.8343 68.9304C39.8343 69.9193 39.5197 70.6834 38.8904 71.2228C38.2611 71.7622 37.4632 72.1442 36.4968 72.369C35.5529 72.5712 34.5865 72.6724 33.5977 72.6724C32.4964 72.6724 31.4963 72.5825 30.5973 72.4027C29.6984 72.2004 28.9117 71.9644 28.2375 71.6947C28.0128 71.6048 27.7993 71.5599 27.597 71.5599C27.1925 71.5599 26.8666 71.706 26.6194 71.9982C26.3721 72.2903 26.2485 72.6162 26.2485 72.9758C26.2485 73.2904 26.3272 73.5601 26.4845 73.7849C26.6643 73.9871 26.8778 74.1445 27.125 74.2568C27.9566 74.5939 28.9567 74.9086 30.1254 75.2007ZM55.3051 75.6053C53.642 75.6053 52.2486 75.3468 51.1249 74.8299C50.0237 74.2905 49.1359 73.5826 48.4617 72.7061C47.7875 71.8071 47.2706 70.8295 46.911 69.7732C46.5738 68.7169 46.3491 67.6494 46.2367 66.5706C46.1244 65.4693 46.0682 64.458 46.0682 63.5366C46.0682 62.2106 46.2255 60.8509 46.5401 59.4575C46.8773 58.0416 47.4166 56.7268 48.1583 55.5132C48.9224 54.2771 49.9338 53.2882 51.1923 52.5466C52.4509 51.7825 54.0016 51.4004 55.8445 51.4004C57.2379 51.4004 58.4066 51.5577 59.3505 51.8724C60.3169 52.1645 61.1372 52.4904 61.8115 52.85C62.2834 53.0747 62.5194 53.4793 62.5194 54.0636C62.5194 54.4232 62.3958 54.7491 62.1486 55.0412C61.9014 55.3109 61.5643 55.4458 61.1372 55.4458C60.935 55.4458 60.7439 55.4121 60.5641 55.3446C60.0023 55.0749 59.3393 54.8502 58.5752 54.6704C57.8335 54.4681 57.002 54.367 56.0805 54.367C54.6421 54.367 53.4622 54.6704 52.5408 55.2772C51.6418 55.8616 50.9339 56.6144 50.417 57.5359C49.9225 58.4573 49.5742 59.4125 49.3719 60.4014C49.1696 61.3678 49.046 62.233 49.0011 62.9972C49.5629 62.278 50.3945 61.6038 51.4957 60.9745C52.597 60.3452 54.0691 60.0305 55.912 60.0305C57.4402 60.0305 58.7774 60.3564 59.9236 61.0082C61.0923 61.6599 62.0025 62.5814 62.6543 63.7725C63.306 64.9412 63.6319 66.3346 63.6319 67.9528C63.6319 69.3687 63.2948 70.6609 62.6205 71.8296C61.9463 72.9758 60.9912 73.8972 59.7551 74.5939C58.519 75.2682 57.0357 75.6053 55.3051 75.6053ZM55.3389 72.7398C56.4176 72.7398 57.3391 72.5151 58.1032 72.0656C58.8898 71.6161 59.4966 71.0205 59.9236 70.2789C60.3506 69.5372 60.5641 68.7394 60.5641 67.8853C60.5641 66.402 60.1484 65.1884 59.3168 64.2445C58.4853 63.3006 57.2267 62.8286 55.5411 62.8286C54.2151 62.8286 53.1251 63.0534 52.2711 63.5028C51.4171 63.9299 50.7428 64.4355 50.2484 65.0199C49.7764 65.5817 49.4169 66.0874 49.1696 66.5369C49.327 67.6157 49.6191 68.627 50.0461 69.5709C50.4732 70.5148 51.1137 71.279 51.9677 71.8633C52.8217 72.4476 53.9454 72.7398 55.3389 72.7398ZM75.8341 75.6053C73.8114 75.6053 72.1146 75.0996 70.7436 74.0883C69.3952 73.0769 68.3838 71.661 67.7096 69.8406C67.0354 68.0202 66.6982 65.9076 66.6982 63.5028C66.6982 61.0981 67.0354 58.9855 67.7096 57.1651C68.3838 55.3446 69.3952 53.9288 70.7436 52.9174C72.1146 51.9061 73.8114 51.4004 75.8341 51.4004C77.8568 51.4004 79.5423 51.9061 80.8908 52.9174C82.2393 53.9288 83.2506 55.3446 83.9248 57.1651C84.6216 58.9855 84.9699 61.0981 84.9699 63.5028C84.9699 65.9076 84.6216 68.0202 83.9248 69.8406C83.2506 71.661 82.2393 73.0769 80.8908 74.0883C79.5423 75.0996 77.8568 75.6053 75.8341 75.6053ZM75.8341 72.7735C77.8343 72.7735 79.3401 71.942 80.3514 70.2789C81.3852 68.6158 81.9022 66.3571 81.9022 63.5028C81.9022 60.6711 81.3852 58.4236 80.3514 56.7605C79.3401 55.0974 77.8343 54.2659 75.8341 54.2659C73.8563 54.2659 72.3505 55.0974 71.3167 56.7605C70.2829 58.4236 69.766 60.6711 69.766 63.5028C69.766 66.3571 70.2829 68.6158 71.3167 70.2789C72.3505 71.942 73.8563 72.7735 75.8341 72.7735Z"/>
</mask>
<path fill-rule="evenodd" clip-rule="evenodd" d="M30.1254 75.2007C31.3165 75.4704 32.665 75.6053 34.1708 75.6053C35.8114 75.6053 37.2835 75.3581 38.587 74.8636C39.913 74.3692 40.958 73.65 41.7221 72.7061C42.5087 71.7397 42.902 70.5373 42.902 69.099C42.902 68.0651 42.7335 67.1886 42.3964 66.4695C42.0817 65.7503 41.666 65.1659 41.149 64.7165C40.6321 64.2445 40.0927 63.8849 39.5309 63.6377C38.969 63.3905 38.4521 63.2107 37.9802 63.0983C38.6319 62.8511 39.2612 62.514 39.868 62.087C40.4973 61.6375 41.0142 61.0419 41.4187 60.3002C41.8457 59.5361 42.0593 58.5922 42.0593 57.4685C42.0593 55.5357 41.3513 54.0411 39.9354 52.9848C38.542 51.9285 36.5418 51.4004 33.9348 51.4004C32.5189 51.4004 31.2491 51.5802 30.1254 51.9398C29.0016 52.2994 28.0465 52.6927 27.2599 53.1197C26.8104 53.3669 26.5857 53.749 26.5857 54.2659C26.5857 54.6255 26.7093 54.9289 26.9565 55.1761C27.2037 55.4008 27.4959 55.5132 27.833 55.5132C27.9678 55.5132 28.0802 55.502 28.1701 55.4795C28.26 55.4345 28.3499 55.4008 28.4398 55.3784C29.1365 55.0637 29.9119 54.8053 30.7659 54.603C31.6424 54.3782 32.6088 54.2659 33.6651 54.2659C35.463 54.2659 36.8003 54.5918 37.6768 55.2435C38.5533 55.8728 38.9915 56.7156 38.9915 57.7719C38.9915 59.1428 38.3847 60.1654 37.1711 60.8396C35.9575 61.5139 34.2494 61.851 32.0469 61.851H31.8447C31.4626 61.851 31.1255 61.9971 30.8333 62.2892C30.5636 62.5589 30.4288 62.8848 30.4288 63.2669C30.4288 63.6489 30.5636 63.986 30.8333 64.2782C31.1255 64.5479 31.4626 64.6827 31.8447 64.6827H32.384C34.2494 64.6827 35.7215 64.8625 36.8003 65.2221C37.879 65.5817 38.6544 66.0874 39.1264 66.7391C39.5983 67.3684 39.8343 68.0988 39.8343 68.9304C39.8343 69.9193 39.5197 70.6834 38.8904 71.2228C38.2611 71.7622 37.4632 72.1442 36.4968 72.369C35.5529 72.5712 34.5865 72.6724 33.5977 72.6724C32.4964 72.6724 31.4963 72.5825 30.5973 72.4027C29.6984 72.2004 28.9117 71.9644 28.2375 71.6947C28.0128 71.6048 27.7993 71.5599 27.597 71.5599C27.1925 71.5599 26.8666 71.706 26.6194 71.9982C26.3721 72.2903 26.2485 72.6162 26.2485 72.9758C26.2485 73.2904 26.3272 73.5601 26.4845 73.7849C26.6643 73.9871 26.8778 74.1445 27.125 74.2568C27.9566 74.5939 28.9567 74.9086 30.1254 75.2007ZM55.3051 75.6053C53.642 75.6053 52.2486 75.3468 51.1249 74.8299C50.0237 74.2905 49.1359 73.5826 48.4617 72.7061C47.7875 71.8071 47.2706 70.8295 46.911 69.7732C46.5738 68.7169 46.3491 67.6494 46.2367 66.5706C46.1244 65.4693 46.0682 64.458 46.0682 63.5366C46.0682 62.2106 46.2255 60.8509 46.5401 59.4575C46.8773 58.0416 47.4166 56.7268 48.1583 55.5132C48.9224 54.2771 49.9338 53.2882 51.1923 52.5466C52.4509 51.7825 54.0016 51.4004 55.8445 51.4004C57.2379 51.4004 58.4066 51.5577 59.3505 51.8724C60.3169 52.1645 61.1372 52.4904 61.8115 52.85C62.2834 53.0747 62.5194 53.4793 62.5194 54.0636C62.5194 54.4232 62.3958 54.7491 62.1486 55.0412C61.9014 55.3109 61.5643 55.4458 61.1372 55.4458C60.935 55.4458 60.7439 55.4121 60.5641 55.3446C60.0023 55.0749 59.3393 54.8502 58.5752 54.6704C57.8335 54.4681 57.002 54.367 56.0805 54.367C54.6421 54.367 53.4622 54.6704 52.5408 55.2772C51.6418 55.8616 50.9339 56.6144 50.417 57.5359C49.9225 58.4573 49.5742 59.4125 49.3719 60.4014C49.1696 61.3678 49.046 62.233 49.0011 62.9972C49.5629 62.278 50.3945 61.6038 51.4957 60.9745C52.597 60.3452 54.0691 60.0305 55.912 60.0305C57.4402 60.0305 58.7774 60.3564 59.9236 61.0082C61.0923 61.6599 62.0025 62.5814 62.6543 63.7725C63.306 64.9412 63.6319 66.3346 63.6319 67.9528C63.6319 69.3687 63.2948 70.6609 62.6205 71.8296C61.9463 72.9758 60.9912 73.8972 59.7551 74.5939C58.519 75.2682 57.0357 75.6053 55.3051 75.6053ZM55.3389 72.7398C56.4176 72.7398 57.3391 72.5151 58.1032 72.0656C58.8898 71.6161 59.4966 71.0205 59.9236 70.2789C60.3506 69.5372 60.5641 68.7394 60.5641 67.8853C60.5641 66.402 60.1484 65.1884 59.3168 64.2445C58.4853 63.3006 57.2267 62.8286 55.5411 62.8286C54.2151 62.8286 53.1251 63.0534 52.2711 63.5028C51.4171 63.9299 50.7428 64.4355 50.2484 65.0199C49.7764 65.5817 49.4169 66.0874 49.1696 66.5369C49.327 67.6157 49.6191 68.627 50.0461 69.5709C50.4732 70.5148 51.1137 71.279 51.9677 71.8633C52.8217 72.4476 53.9454 72.7398 55.3389 72.7398ZM75.8341 75.6053C73.8114 75.6053 72.1146 75.0996 70.7436 74.0883C69.3952 73.0769 68.3838 71.661 67.7096 69.8406C67.0354 68.0202 66.6982 65.9076 66.6982 63.5028C66.6982 61.0981 67.0354 58.9855 67.7096 57.1651C68.3838 55.3446 69.3952 53.9288 70.7436 52.9174C72.1146 51.9061 73.8114 51.4004 75.8341 51.4004C77.8568 51.4004 79.5423 51.9061 80.8908 52.9174C82.2393 53.9288 83.2506 55.3446 83.9248 57.1651C84.6216 58.9855 84.9699 61.0981 84.9699 63.5028C84.9699 65.9076 84.6216 68.0202 83.9248 69.8406C83.2506 71.661 82.2393 73.0769 80.8908 74.0883C79.5423 75.0996 77.8568 75.6053 75.8341 75.6053ZM75.8341 72.7735C77.8343 72.7735 79.3401 71.942 80.3514 70.2789C81.3852 68.6158 81.9022 66.3571 81.9022 63.5028C81.9022 60.6711 81.3852 58.4236 80.3514 56.7605C79.3401 55.0974 77.8343 54.2659 75.8341 54.2659C73.8563 54.2659 72.3505 55.0974 71.3167 56.7605C70.2829 58.4236 69.766 60.6711 69.766 63.5028C69.766 66.3571 70.2829 68.6158 71.3167 70.2789C72.3505 71.942 73.8563 72.7735 75.8341 72.7735Z" fill="#E0E0E0"/>
<path d="M30.1254 75.2007L30.0283 75.5889L30.037 75.5909L30.1254 75.2007ZM38.587 74.8636L38.4472 74.4888L38.4451 74.4896L38.587 74.8636ZM41.7221 72.7061L41.4119 72.4536L41.4112 72.4544L41.7221 72.7061ZM42.3964 66.4695L42.0298 66.6298L42.0342 66.6392L42.3964 66.4695ZM41.149 64.7165L40.8793 65.0119L40.8866 65.0183L41.149 64.7165ZM39.5309 63.6377L39.692 63.2716L39.5309 63.6377ZM37.9802 63.0983L37.8383 62.7243L36.6213 63.1859L37.8875 63.4874L37.9802 63.0983ZM39.868 62.087L40.0982 62.4141L40.1005 62.4124L39.868 62.087ZM41.4187 60.3002L41.0695 60.1051L41.0676 60.1087L41.4187 60.3002ZM39.9354 52.9848L39.6938 53.3036L39.6962 53.3054L39.9354 52.9848ZM30.1254 51.9398L30.2473 52.3207V52.3207L30.1254 51.9398ZM27.2599 53.1197L27.069 52.7681L27.0671 52.7692L27.2599 53.1197ZM26.9565 55.1761L26.6736 55.4589L26.6804 55.4657L26.6874 55.4721L26.9565 55.1761ZM28.1701 55.4795L28.2671 55.8675L28.3097 55.8569L28.349 55.8373L28.1701 55.4795ZM28.4398 55.3784L28.5368 55.7664L28.5717 55.7577L28.6044 55.7429L28.4398 55.3784ZM30.7659 54.603L30.8581 54.9923L30.8652 54.9905L30.7659 54.603ZM37.6768 55.2435L37.438 55.5645L37.4435 55.5684L37.6768 55.2435ZM37.1711 60.8396L36.9768 60.49H36.9768L37.1711 60.8396ZM30.8333 64.2782L30.5394 64.5495L30.5502 64.5613L30.562 64.5721L30.8333 64.2782ZM36.8003 65.2221L36.9267 64.8427H36.9267L36.8003 65.2221ZM39.1264 66.7391L38.8023 66.9738L38.8064 66.9791L39.1264 66.7391ZM38.8904 71.2228L38.6301 70.9191L38.8904 71.2228ZM36.4968 72.369L36.5807 72.7602L36.5875 72.7586L36.4968 72.369ZM30.5973 72.4027L30.5095 72.793L30.5189 72.7949L30.5973 72.4027ZM28.2375 71.6947L28.3861 71.3234H28.3861L28.2375 71.6947ZM26.6194 71.9982L26.9247 72.2565H26.9247L26.6194 71.9982ZM26.4845 73.7849L26.1568 74.0142L26.1701 74.0333L26.1856 74.0506L26.4845 73.7849ZM27.125 74.2568L26.9595 74.621L26.9671 74.6244L26.9748 74.6275L27.125 74.2568ZM51.1249 74.8299L50.9489 75.1893L50.9577 75.1933L51.1249 74.8299ZM48.4617 72.7061L48.1417 72.9461L48.1446 72.95L48.4617 72.7061ZM46.911 69.7732L46.5298 69.8948L46.5323 69.9021L46.911 69.7732ZM46.2367 66.5706L45.8388 66.6112L45.8389 66.612L46.2367 66.5706ZM46.5401 59.4575L46.151 59.3648L46.15 59.3693L46.5401 59.4575ZM48.1583 55.5132L47.8181 55.3029L47.817 55.3046L48.1583 55.5132ZM51.1923 52.5466L51.3954 52.8912L51.3999 52.8885L51.1923 52.5466ZM59.3505 51.8724L59.224 52.252L59.2348 52.2552L59.3505 51.8724ZM61.8115 52.85L61.6232 53.2029L61.6313 53.2072L61.6395 53.2111L61.8115 52.85ZM62.1486 55.0412L62.4435 55.3115L62.4488 55.3057L62.4539 55.2996L62.1486 55.0412ZM60.5641 55.3446L60.3911 55.7053L60.4071 55.7129L60.4237 55.7192L60.5641 55.3446ZM58.5752 54.6704L58.4699 55.0566L58.4836 55.0598L58.5752 54.6704ZM52.5408 55.2772L52.7588 55.6126L52.7608 55.6113L52.5408 55.2772ZM50.417 57.5359L50.068 57.3402L50.0645 57.3468L50.417 57.5359ZM49.3719 60.4014L49.7634 60.4833L49.7638 60.4815L49.3719 60.4014ZM49.0011 62.9972L48.6018 62.9737L48.5264 64.2544L49.3163 63.2434L49.0011 62.9972ZM51.4957 60.9745L51.2973 60.6272L51.4957 60.9745ZM59.9236 61.0082L59.7259 61.3559L59.7288 61.3575L59.9236 61.0082ZM62.6543 63.7725L62.3033 63.9645L62.3049 63.9674L62.6543 63.7725ZM62.6205 71.8296L62.9653 72.0324L62.967 72.0295L62.6205 71.8296ZM59.7551 74.5939L59.9466 74.9451L59.9515 74.9424L59.7551 74.5939ZM58.1032 72.0656L57.9047 71.7183L57.9004 71.7208L58.1032 72.0656ZM59.9236 70.2789L59.577 70.0793V70.0793L59.9236 70.2789ZM59.3168 64.2445L59.617 63.9801V63.9801L59.3168 64.2445ZM52.2711 63.5028L52.45 63.8607L52.4574 63.8568L52.2711 63.5028ZM50.2484 65.0199L49.9431 64.7615L49.9421 64.7626L50.2484 65.0199ZM49.1696 66.5369L48.8192 66.3441L48.7545 66.4618L48.7738 66.5946L49.1696 66.5369ZM51.9677 71.8633L52.1936 71.5332V71.5332L51.9677 71.8633ZM70.7436 74.0883L70.5036 74.4083L70.5062 74.4102L70.7436 74.0883ZM67.7096 69.8406L68.0847 69.7017L67.7096 69.8406ZM67.7096 57.1651L68.0847 57.304V57.304L67.7096 57.1651ZM70.7436 52.9174L70.5062 52.5955L70.5036 52.5974L70.7436 52.9174ZM80.8908 52.9174L81.1308 52.5974L81.1308 52.5974L80.8908 52.9174ZM83.9248 57.1651L83.5497 57.304L83.5513 57.308L83.9248 57.1651ZM83.9248 69.8406L83.5513 69.6976L83.5497 69.7017L83.9248 69.8406ZM80.8908 74.0883L81.1308 74.4083H81.1308L80.8908 74.0883ZM80.3514 70.2789L80.0117 70.0677L80.0097 70.071L80.3514 70.2789ZM80.3514 56.7605L80.0096 56.9684L80.0117 56.9717L80.3514 56.7605ZM71.3167 56.7605L71.6564 56.9717V56.9717L71.3167 56.7605ZM71.3167 70.2789L71.6564 70.0677L71.3167 70.2789ZM34.1708 75.2053C32.6881 75.2053 31.3701 75.0724 30.2137 74.8106L30.037 75.5909C31.2629 75.8684 32.6418 76.0053 34.1708 76.0053V75.2053ZM38.4451 74.4896C37.1942 74.9641 35.7713 75.2053 34.1708 75.2053V76.0053C35.8515 76.0053 37.3728 75.752 38.7288 75.2376L38.4451 74.4896ZM41.4112 72.4544C40.6991 73.3341 39.7174 74.0152 38.4472 74.4888L38.7267 75.2384C40.1085 74.7232 41.2169 73.9659 42.033 72.9578L41.4112 72.4544ZM42.502 69.099C42.502 70.4603 42.1317 71.5693 41.4119 72.4536L42.0324 72.9586C42.8858 71.9101 43.302 70.6144 43.302 69.099H42.502ZM42.0342 66.6392C42.3401 67.2918 42.502 68.1068 42.502 69.099H43.302C43.302 68.0234 43.1269 67.0855 42.7586 66.2997L42.0342 66.6392ZM40.8866 65.0183C41.3527 65.4236 41.7356 65.957 42.0299 66.6298L42.7628 66.3091C42.4279 65.5436 41.9792 64.9083 41.4115 64.4146L40.8866 65.0183ZM39.3698 64.0038C39.8867 64.2312 40.3901 64.5652 40.8793 65.0118L41.4188 64.4211C40.8742 63.9238 40.2988 63.5386 39.692 63.2716L39.3698 64.0038ZM37.8875 63.4874C38.3308 63.593 38.8245 63.7639 39.3698 64.0038L39.692 63.2716C39.1136 63.0171 38.5734 62.8284 38.0728 62.7092L37.8875 63.4874ZM39.6378 61.7598C39.0566 62.1688 38.4568 62.4897 37.8383 62.7243L38.122 63.4723C38.807 63.2125 39.4658 62.8591 40.0982 62.4141L39.6378 61.7598ZM41.0676 60.1087C40.6893 60.8023 40.2112 61.3502 39.6355 61.7615L40.1005 62.4124C40.7834 61.9247 41.3391 61.2815 41.7699 60.4918L41.0676 60.1087ZM41.6593 57.4685C41.6593 58.5428 41.4551 59.4152 41.0696 60.1051L41.7679 60.4954C42.2364 59.657 42.4593 58.6416 42.4593 57.4685H41.6593ZM39.6962 53.3054C41.0004 54.2784 41.6593 55.6482 41.6593 57.4685H42.4593C42.4593 55.4232 41.7022 53.8039 40.1746 52.6642L39.6962 53.3054ZM33.9348 51.8004C36.4954 51.8004 38.3966 52.3203 39.6938 53.3036L40.1771 52.6661C38.6874 51.5368 36.5882 51.0004 33.9348 51.0004V51.8004ZM30.2473 52.3207C31.3246 51.976 32.5523 51.8004 33.9348 51.8004V51.0004C32.4855 51.0004 31.1735 51.1844 30.0035 51.5588L30.2473 52.3207ZM27.4507 53.4712C28.2097 53.0592 29.1404 52.675 30.2473 52.3207L30.0035 51.5588C28.8629 51.9238 27.8833 52.3261 27.069 52.7681L27.4507 53.4712ZM26.9857 54.2659C26.9857 54.0667 27.0284 53.9144 27.099 53.7944C27.1695 53.6746 27.2809 53.5646 27.4526 53.4702L27.0671 52.7692C26.7894 52.9219 26.5637 53.1266 26.4094 53.3888C26.2553 53.6509 26.1857 53.9481 26.1857 54.2659H26.9857ZM27.2393 54.8932C27.0695 54.7234 26.9857 54.5228 26.9857 54.2659H26.1857C26.1857 54.7282 26.349 55.1343 26.6736 55.4589L27.2393 54.8932ZM27.833 55.1132C27.5944 55.1132 27.3984 55.0373 27.2255 54.8801L26.6874 55.4721C27.009 55.7644 27.3974 55.9132 27.833 55.9132V55.1132ZM28.0731 55.0914C28.0257 55.1033 27.9485 55.1132 27.833 55.1132V55.9132C27.9871 55.9132 28.1347 55.9007 28.2671 55.8675L28.0731 55.0914ZM28.3428 54.9903C28.2223 55.0204 28.105 55.0648 27.9912 55.1217L28.349 55.8373C28.415 55.8043 28.4775 55.7812 28.5368 55.7664L28.3428 54.9903ZM30.6737 54.2138C29.7984 54.4211 28.9983 54.6872 28.2752 55.0138L28.6044 55.7429C29.2747 55.4402 30.0254 55.1894 30.8581 54.9922L30.6737 54.2138ZM33.6651 53.8659C32.5807 53.8659 31.5804 53.9812 30.6665 54.2155L30.8652 54.9905C31.7044 54.7753 32.6369 54.6659 33.6651 54.6659V53.8659ZM37.9154 54.9225C36.938 54.1957 35.4982 53.8659 33.6651 53.8659V54.6659C35.4278 54.6659 36.6625 54.9878 37.4381 55.5645L37.9154 54.9225ZM39.3915 57.7719C39.3915 56.5835 38.8885 55.6211 37.91 54.9186L37.4435 55.5684C38.218 56.1245 38.5915 56.8477 38.5915 57.7719H39.3915ZM37.3653 61.1893C38.0236 60.8236 38.5352 60.3529 38.8804 59.7711C39.2258 59.1891 39.3915 58.518 39.3915 57.7719H38.5915C38.5915 58.3967 38.4538 58.9223 38.1924 59.3629C37.9308 59.8037 37.5322 60.1814 36.9768 60.49L37.3653 61.1893ZM32.0469 62.251C34.2814 62.251 36.0673 61.9104 37.3653 61.1893L36.9768 60.49C35.8477 61.1173 34.2174 61.451 32.0469 61.451V62.251ZM31.8447 62.251H32.0469V61.451H31.8447V62.251ZM31.1161 62.5721C31.34 62.3482 31.5778 62.251 31.8447 62.251V61.451C31.3473 61.451 30.9109 61.6459 30.5505 62.0064L31.1161 62.5721ZM30.8288 63.2669C30.8288 62.9907 30.9216 62.7666 31.1161 62.5721L30.5505 62.0064C30.2056 62.3512 30.0288 62.7789 30.0288 63.2669H30.8288ZM31.1272 64.0069C30.9227 63.7853 30.8288 63.5439 30.8288 63.2669H30.0288C30.0288 63.7539 30.2045 64.1868 30.5394 64.5495L31.1272 64.0069ZM31.8447 64.2827C31.5676 64.2827 31.3262 64.1888 31.1046 63.9843L30.562 64.5721C30.9247 64.907 31.3576 65.0827 31.8447 65.0827V64.2827ZM32.384 64.2827H31.8447V65.0827H32.384V64.2827ZM36.9267 64.8427C35.7895 64.4636 34.2686 64.2827 32.384 64.2827V65.0827C34.2302 65.0827 35.6535 65.2615 36.6738 65.6016L36.9267 64.8427ZM39.4503 66.5045C38.9128 65.7622 38.0532 65.2181 36.9267 64.8427L36.6738 65.6016C37.7049 65.9453 38.396 66.4126 38.8024 66.9738L39.4503 66.5045ZM40.2343 68.9304C40.2343 68.0176 39.9733 67.2018 39.4464 66.4991L38.8064 66.9791C39.2233 67.5351 39.4343 68.1801 39.4343 68.9304H40.2343ZM39.1507 71.5265C39.8859 70.8963 40.2343 70.0112 40.2343 68.9304H39.4343C39.4343 69.8273 39.1534 70.4705 38.6301 70.9191L39.1507 71.5265ZM36.5875 72.7586C37.6042 72.5221 38.4638 72.1152 39.1507 71.5265L38.6301 70.9191C38.0584 71.4091 37.3223 71.7663 36.4062 71.9794L36.5875 72.7586ZM33.5977 73.0724C34.614 73.0724 35.6085 72.9684 36.5807 72.7601L36.413 71.9779C35.4973 72.1741 34.559 72.2724 33.5977 72.2724V73.0724ZM30.5189 72.7949C31.4482 72.9808 32.4751 73.0724 33.5977 73.0724V72.2724C32.5177 72.2724 31.5444 72.1842 30.6758 72.0105L30.5189 72.7949ZM28.089 72.0661C28.7873 72.3455 29.5951 72.5872 30.5095 72.7929L30.6851 72.0124C29.8016 71.8137 29.0362 71.5834 28.3861 71.3234L28.089 72.0661ZM27.597 71.9599C27.7394 71.9599 27.9024 71.9915 28.089 72.0661L28.3861 71.3234C28.1232 71.2182 27.8591 71.1599 27.597 71.1599V71.9599ZM26.9247 72.2565C27.0911 72.0599 27.3025 71.9599 27.597 71.9599V71.1599C27.0825 71.1599 26.642 71.3521 26.314 71.7398L26.9247 72.2565ZM26.6485 72.9758C26.6485 72.7172 26.7344 72.4815 26.9247 72.2565L26.314 71.7398C26.0099 72.0991 25.8485 72.5152 25.8485 72.9758H26.6485ZM26.8122 73.5555C26.7086 73.4075 26.6485 73.2208 26.6485 72.9758H25.8485C25.8485 73.36 25.9458 73.7127 26.1568 74.0142L26.8122 73.5555ZM27.2906 73.8927C27.094 73.8033 26.926 73.6795 26.7835 73.5191L26.1856 74.0506C26.4026 74.2948 26.6616 74.4856 26.9595 74.621L27.2906 73.8927ZM30.2224 74.8127C29.0661 74.5236 28.0848 74.2143 27.2753 73.8861L26.9748 74.6275C27.8283 74.9736 28.8473 75.2935 30.0284 75.5888L30.2224 74.8127ZM50.9577 75.1933C52.1487 75.7411 53.6032 76.0053 55.3051 76.0053V75.2053C53.6809 75.2053 52.3486 74.9525 51.2921 74.4665L50.9577 75.1933ZM48.1446 72.95C48.8603 73.8804 49.7985 74.6257 50.949 75.1891L51.3009 74.4707C50.2488 73.9554 49.4115 73.2848 48.7787 72.4622L48.1446 72.95ZM46.5323 69.9021C46.9056 70.9986 47.4424 72.0136 48.1417 72.9461L48.7817 72.4661C48.1326 71.6006 47.6355 70.6604 47.2896 69.6443L46.5323 69.9021ZM45.8389 66.612C45.9542 67.7186 46.1846 68.813 46.5299 69.8948L47.292 69.6516C46.963 68.6208 46.7441 67.5801 46.6346 66.5291L45.8389 66.612ZM45.6682 63.5366C45.6682 64.4739 45.7253 65.499 45.8388 66.6112L46.6347 66.53C46.5234 65.4396 46.4682 64.4421 46.4682 63.5366H45.6682ZM46.15 59.3693C45.8293 60.7895 45.6682 62.1787 45.6682 63.5366H46.4682C46.4682 62.2424 46.6217 60.9123 46.9303 59.5456L46.15 59.3693ZM47.817 55.3046C47.0529 56.555 46.4976 57.909 46.151 59.3648L46.9293 59.5501C47.2569 58.1742 47.7804 56.8987 48.4996 55.7218L47.817 55.3046ZM50.9893 52.202C49.6751 52.9764 48.6165 54.0112 47.8181 55.3029L48.4985 55.7235C49.2283 54.543 50.1925 53.6001 51.3954 52.8912L50.9893 52.202ZM55.8445 51.0004C53.9467 51.0004 52.3199 51.3941 50.9847 52.2047L51.3999 52.8885C52.5819 52.1708 54.0566 51.8004 55.8445 51.8004V51.0004ZM59.477 51.4929C58.4796 51.1604 57.2651 51.0004 55.8445 51.0004V51.8004C57.2108 51.8004 58.3336 51.955 59.224 52.2518L59.477 51.4929ZM61.9997 52.497C61.2964 52.1219 60.4503 51.787 59.4663 51.4895L59.2348 52.2552C60.1836 52.5421 60.9781 52.8589 61.6232 53.2029L61.9997 52.497ZM62.9194 54.0636C62.9194 53.718 62.8494 53.3973 62.6879 53.1204C62.5248 52.8408 62.2832 52.6316 61.9834 52.4888L61.6395 53.2111C61.8117 53.2931 61.9241 53.3986 61.9969 53.5235C62.0714 53.6512 62.1194 53.8249 62.1194 54.0636H62.9194ZM62.4539 55.2996C62.758 54.9403 62.9194 54.5242 62.9194 54.0636H62.1194C62.1194 54.3222 62.0336 54.5579 61.8432 54.7829L62.4539 55.2996ZM61.1372 55.8458C61.6559 55.8458 62.1076 55.6779 62.4435 55.3115L61.8537 54.7709C61.6951 54.944 61.4727 55.0458 61.1372 55.0458V55.8458ZM60.4237 55.7192C60.6508 55.8043 60.8896 55.8458 61.1372 55.8458V55.0458C60.9804 55.0458 60.8371 55.0198 60.7046 54.9701L60.4237 55.7192ZM58.4836 55.0598C59.2265 55.2346 59.8609 55.4508 60.3911 55.7053L60.7372 54.984C60.1437 54.6991 59.4521 54.4658 58.6668 54.281L58.4836 55.0598ZM56.0805 54.767C56.9732 54.767 57.7686 54.865 58.4699 55.0563L58.6804 54.2845C57.8985 54.0712 57.0307 53.967 56.0805 53.967V54.767ZM52.7608 55.6113C53.5998 55.0588 54.6969 54.767 56.0805 54.767V53.967C54.5874 53.967 53.3247 54.282 52.3208 54.9431L52.7608 55.6113ZM50.7658 57.7316C51.2506 56.8675 51.9133 56.1622 52.7588 55.6126L52.3228 54.9418C51.3704 55.5609 50.6172 56.3614 50.0681 57.3402L50.7658 57.7316ZM49.7638 60.4815C49.958 59.5321 50.2927 58.6135 50.7694 57.725L50.0645 57.3468C49.5524 58.3012 49.1903 59.2929 48.98 60.3212L49.7638 60.4815ZM49.4004 63.0207C49.4439 62.2809 49.5641 61.4357 49.7634 60.4833L48.9804 60.3194C48.7752 61.2999 48.6482 62.1852 48.6018 62.9737L49.4004 63.0207ZM51.2973 60.6272C50.1673 61.2729 49.2896 61.9782 48.6859 62.7509L49.3163 63.2434C49.8363 62.5778 50.6217 61.9346 51.6942 61.3218L51.2973 60.6272ZM55.912 59.6305C54.029 59.6305 52.4803 59.9512 51.2973 60.6272L51.6942 61.3218C52.7137 60.7392 54.1091 60.4305 55.912 60.4305V59.6305ZM60.1213 60.6605C58.9059 59.9693 57.4984 59.6305 55.912 59.6305V60.4305C57.382 60.4305 58.649 60.7435 59.7259 61.3559L60.1213 60.6605ZM63.0052 63.5805C62.3178 62.3243 61.3539 61.3479 60.1185 60.6588L59.7288 61.3575C60.8306 61.972 61.6872 62.8385 62.3034 63.9645L63.0052 63.5805ZM64.0319 67.9528C64.0319 66.2806 63.6949 64.8172 63.0036 63.5777L62.3049 63.9674C62.9172 65.0652 63.2319 66.3886 63.2319 67.9528H64.0319ZM62.967 72.0295C63.6781 70.797 64.0319 69.4352 64.0319 67.9528H63.2319C63.2319 69.3021 62.9115 70.5249 62.2741 71.6297L62.967 72.0295ZM59.9515 74.9424C61.2447 74.2135 62.2529 73.2435 62.9653 72.0324L62.2758 71.6268C61.6397 72.7081 60.7376 73.581 59.5587 74.2455L59.9515 74.9424ZM55.3051 76.0053C57.0874 76.0053 58.6398 75.6579 59.9466 74.9451L59.5635 74.2428C58.3982 74.8784 56.9839 75.2053 55.3051 75.2053V76.0053ZM57.9004 71.7208C57.2098 72.127 56.3617 72.3398 55.3389 72.3398V73.1398C56.4735 73.1398 57.4683 72.9031 58.306 72.4103L57.9004 71.7208ZM59.577 70.0793C59.1875 70.7558 58.6335 71.3019 57.9047 71.7183L58.3017 72.4129C59.1461 71.9303 59.8057 71.2853 60.2703 70.4784L59.577 70.0793ZM60.1641 67.8853C60.1641 68.6692 59.9691 69.3982 59.577 70.0793L60.2703 70.4784C60.7322 69.6762 60.9641 68.8096 60.9641 67.8853H60.1641ZM59.0167 64.5089C59.7727 65.3671 60.1641 66.481 60.1641 67.8853H60.9641C60.9641 66.3231 60.5241 65.0098 59.617 63.9801L59.0167 64.5089ZM55.5411 63.2286C57.1529 63.2286 58.2846 63.6779 59.0167 64.5089L59.617 63.9801C58.686 62.9233 57.3005 62.4286 55.5411 62.4286V63.2286ZM52.4574 63.8568C53.2366 63.4467 54.257 63.2286 55.5411 63.2286V62.4286C54.1733 62.4286 53.0137 62.66 52.0848 63.1489L52.4574 63.8568ZM50.5538 65.2782C51.0057 64.7441 51.6328 64.2692 52.45 63.8606L52.0922 63.1451C51.2013 63.5905 50.48 64.1269 49.9431 64.7615L50.5538 65.2782ZM49.5201 66.7296C49.7507 66.3105 50.093 65.8268 50.5547 65.2771L49.9421 64.7626C49.4599 65.3367 49.0831 65.8643 48.8192 66.3441L49.5201 66.7296ZM50.4106 69.4061C49.9998 68.4979 49.7177 67.5229 49.5655 66.4792L48.7738 66.5946C48.9363 67.7084 49.2385 68.7561 49.6817 69.7358L50.4106 69.4061ZM52.1936 71.5332C51.4001 70.9903 50.8074 70.2833 50.4106 69.4061L49.6817 69.7358C50.1389 70.7464 50.8273 71.5677 51.7418 72.1934L52.1936 71.5332ZM55.3389 72.3398C53.9987 72.3398 52.9616 72.0587 52.1936 71.5332L51.7418 72.1934C52.6819 72.8366 53.8922 73.1398 55.3389 73.1398V72.3398ZM70.5062 74.4102C71.9581 75.4812 73.7424 76.0053 75.8341 76.0053V75.2053C73.8804 75.2053 72.2711 74.718 70.9811 73.7664L70.5062 74.4102ZM67.3345 69.9795C68.0313 71.8608 69.0848 73.3441 70.5036 74.4083L70.9836 73.7683C69.7056 72.8097 68.7364 71.4612 68.0847 69.7017L67.3345 69.9795ZM66.2982 63.5028C66.2982 65.9441 66.6404 68.1055 67.3345 69.9795L68.0847 69.7017C67.4303 67.9349 67.0982 65.8711 67.0982 63.5028H66.2982ZM67.3345 57.0261C66.6404 58.9002 66.2982 61.0616 66.2982 63.5028H67.0982C67.0982 61.1346 67.4303 59.0708 68.0847 57.304L67.3345 57.0261ZM70.5036 52.5974C69.0848 53.6616 68.0313 55.1448 67.3345 57.0261L68.0847 57.304C68.7364 55.5445 69.7056 54.196 70.9836 53.2374L70.5036 52.5974ZM75.8341 51.0004C73.7424 51.0004 71.9581 51.5245 70.5062 52.5955L70.9811 53.2393C72.2711 52.2877 73.8804 51.8004 75.8341 51.8004V51.0004ZM81.1308 52.5974C79.7001 51.5244 77.9255 51.0004 75.8341 51.0004V51.8004C77.788 51.8004 79.3846 52.2877 80.6508 53.2374L81.1308 52.5974ZM84.2999 57.0261C83.6032 55.1448 82.5497 53.6616 81.1308 52.5974L80.6508 53.2374C81.9289 54.196 82.8981 55.5445 83.5497 57.304L84.2999 57.0261ZM85.3699 63.5028C85.3699 61.0602 85.0162 58.8974 84.2984 57.0221L83.5513 57.308C84.227 59.0735 84.5699 61.1359 84.5699 63.5028H85.3699ZM84.2984 69.9836C85.0162 68.1082 85.3699 65.9454 85.3699 63.5028H84.5699C84.5699 65.8698 84.227 67.9321 83.5513 69.6976L84.2984 69.9836ZM81.1308 74.4083C82.5497 73.3441 83.6032 71.8608 84.2999 69.9795L83.5497 69.7017C82.8981 71.4612 81.9289 72.8097 80.6508 73.7683L81.1308 74.4083ZM75.8341 76.0053C77.9255 76.0053 79.7001 75.4813 81.1308 74.4083L80.6508 73.7683C79.3846 74.7179 77.788 75.2053 75.8341 75.2053V76.0053ZM80.0097 70.071C79.0733 71.6108 77.6994 72.3735 75.8341 72.3735V73.1735C77.9692 73.1735 79.6069 72.2731 80.6932 70.4867L80.0097 70.071ZM81.5022 63.5028C81.5022 66.3146 80.992 68.4907 80.0117 70.0677L80.6911 70.49C81.7785 68.7409 82.3022 66.3995 82.3022 63.5028H81.5022ZM80.0117 56.9717C80.9923 58.5492 81.5022 60.7142 81.5022 63.5028H82.3022C82.3022 60.6279 81.7782 58.2981 80.6911 56.5494L80.0117 56.9717ZM75.8341 54.6659C77.6994 54.6659 79.0733 55.4286 80.0097 56.9684L80.6932 56.5527C79.6069 54.7663 77.9692 53.8659 75.8341 53.8659V54.6659ZM71.6564 56.9717C72.6164 55.4274 73.9929 54.6659 75.8341 54.6659V53.8659C73.7197 53.8659 72.0847 54.7674 70.977 56.5494L71.6564 56.9717ZM70.166 63.5028C70.166 60.7142 70.6759 58.5492 71.6564 56.9717L70.977 56.5494C69.8899 58.2981 69.366 60.6279 69.366 63.5028H70.166ZM71.6564 70.0677C70.6761 68.4906 70.166 66.3146 70.166 63.5028H69.366C69.366 66.3995 69.8897 68.7409 70.977 70.49L71.6564 70.0677ZM75.8341 72.3735C73.9929 72.3735 72.6164 71.6119 71.6564 70.0677L70.977 70.49C72.0847 72.272 73.7197 73.1735 75.8341 73.1735V72.3735Z" fill="#E0E0E0" mask="url(#path-2-outside-1_4720_1299)"/>
</svg>
