<svg width="26" height="14" viewBox="0 0 26 14" fill="none" xmlns="http://www.w3.org/2000/svg">
<rect width="26" height="14" fill="#ACAAAA"/>
<g id="Key Features:&#194;&#160;">
<rect x="-372.5" y="-44.5" width="442" height="183" rx="4.5" stroke="#9747FF" stroke-dasharray="10 5"/>
<g id="Property 1=Default">
<rect width="394" height="64" transform="translate(-353 -25)" fill="white" fill-opacity="0.1"/>
<g id="Frame 262">
<rect width="394" height="64" transform="translate(-353 -25)" fill="#E0E0E0"/>
<path id="Union" fill-rule="evenodd" clip-rule="evenodd" d="M25.8633 1.06092C26.0456 0.878695 26.0456 0.583245 25.8633 0.401016C25.6811 0.218788 25.3857 0.218788 25.2034 0.401017L13 12.6045L0.796453 0.400973C0.614225 0.218744 0.318774 0.218744 0.136544 0.400973C-0.0456837 0.583201 -0.0456837 0.878652 0.136546 1.06088L12.6135 13.5378C12.6287 13.5593 12.6459 13.5799 12.6652 13.5992C12.758 13.692 12.8803 13.7376 13.002 13.7358C13.1223 13.7365 13.2429 13.6909 13.3347 13.5991C13.3539 13.5799 13.3711 13.5595 13.3862 13.538L25.8633 1.06092Z" fill="#7B7B7B"/>
</g>
</g>
</g>
</svg>
