<svg width="81" height="56" viewBox="0 0 81 56" fill="none" xmlns="http://www.w3.org/2000/svg">
<path d="M67.9814 49.0072V49.5155C70.4917 49.0596 73.2199 48.1731 75.8267 46.7341C77.8006 45.6449 79.5112 44.3446 80.9414 42.978M67.9814 49.0072C70.4188 48.5553 73.061 47.6897 75.585 46.2963L75.5851 46.2963C77.4482 45.2683 79.0722 44.048 80.4414 42.7629M67.9814 49.0072C67.8138 49.0382 67.6471 49.0674 67.4814 49.0946V19.627M67.9814 49.0072V20.0181M80.4414 42.7629V42.978H80.9414M80.4414 42.7629C80.4933 42.7142 80.5448 42.6654 80.596 42.6165L80.9414 42.978M80.4414 42.7629V13.9911M80.9414 42.978V13.5753C80.7769 13.7137 80.6104 13.8524 80.4414 13.9911M80.4414 13.9911V13.3419C78.772 14.7353 76.9057 16.1348 74.32 17.3431M80.4414 13.9911C78.8344 15.3113 77.0063 16.6396 74.5318 17.796M74.5318 17.796L74.32 17.3431M74.5318 17.796C74.5317 17.7961 74.5317 17.7961 74.5317 17.7961L74.32 17.3431M74.5318 17.796C72.4092 18.7885 69.9068 19.533 67.9814 20.0181M74.32 17.3431C72.0986 18.3818 69.4373 19.1494 67.4814 19.627M67.4814 19.627H67.9814V20.0181M67.4814 19.627L67.6 20.1127C67.7243 20.0824 67.8516 20.0508 67.9814 20.0181M26.3093 18.8277L26.3094 18.8276L34.8969 7.26482L34.897 7.26478C35.7708 6.08836 37.5143 6.03749 38.4548 7.1594L43.6405 13.0035C43.8529 12.8043 44.1459 12.5148 44.4815 12.1426L45.3799 11.1453L45.3801 11.1451L45.7516 11.4797C46.503 10.6444 47.8318 10.7137 48.4929 11.6216L26.3093 18.8277ZM26.3093 18.8277C25.1983 20.3242 26.2664 22.4455 28.1294 22.4455H52.5405C54.3941 22.4455 55.4645 20.3425 54.373 18.844L53.9688 19.1384L26.3093 18.8277ZM64.0659 16.8684L63.6707 16.9531V17.3573V30.6449C57.3813 29.3525 49.4951 28.5856 40.9414 28.5856C32.3877 28.5856 24.5015 29.3525 18.2121 30.6449V17.3573V16.9531L17.8169 16.8684C13.6627 15.9778 10.2921 14.8586 7.97285 13.5996C6.81303 12.97 5.93917 12.3177 5.36058 11.6614C4.7848 11.0082 4.52079 10.3749 4.52079 9.76328C4.52079 8.68654 5.35358 7.53181 7.18738 6.38462C8.99521 5.25367 11.6444 4.21682 14.9625 3.33886C21.5912 1.58489 30.7764 0.494141 40.9414 0.494141C51.1064 0.494141 60.2916 1.58489 66.9203 3.33886C70.2384 4.21682 72.8876 5.25367 74.6954 6.38462C76.5292 7.53181 77.362 8.68654 77.362 9.76328C77.362 10.3749 77.098 11.0082 76.5222 11.6614C75.9436 12.3177 75.0698 12.97 73.91 13.5996C71.5908 14.8586 68.2201 15.9778 64.0659 16.8684ZM13.9014 20.0181V49.0072C11.464 48.5553 8.82181 47.6897 6.29781 46.2963L6.29771 46.2963C4.43461 45.2683 2.81063 44.048 1.44141 42.7629V13.9911C3.04843 15.3113 4.87649 16.6396 7.35106 17.796C9.47359 18.7885 11.9761 19.533 13.9014 20.0181Z" fill="#2E2A46" stroke="#2E2A46"/>
<mask id="path-2-outside-1_2843_1806" maskUnits="userSpaceOnUse" x="18.9346" y="36.3164" width="45" height="19" fill="black">
<rect fill="white" x="18.9346" y="36.3164" width="45" height="19"/>
<path fill-rule="evenodd" clip-rule="evenodd" d="M22.7497 54.599C23.6146 54.7948 24.5938 54.8927 25.6872 54.8927C26.8785 54.8927 27.9474 54.7132 28.8939 54.3542C29.8568 53.9951 30.6156 53.4729 31.1705 52.7875C31.7417 52.0857 32.0273 51.2126 32.0273 50.1682C32.0273 49.4175 31.9049 48.781 31.6601 48.2588C31.4316 47.7365 31.1297 47.3122 30.7544 46.9858C30.379 46.6431 29.9873 46.382 29.5794 46.2025C29.1714 46.023 28.796 45.8924 28.4533 45.8108C28.9266 45.6313 29.3835 45.3865 29.8242 45.0764C30.2811 44.75 30.6564 44.3176 30.9502 43.779C31.2603 43.2241 31.4153 42.5387 31.4153 41.7227C31.4153 40.3192 30.9012 39.234 29.8731 38.4669C28.8613 37.6999 27.4089 37.3164 25.5158 37.3164C24.4877 37.3164 23.5656 37.447 22.7497 37.7081C21.9337 37.9692 21.2401 38.2548 20.6689 38.5649C20.3426 38.7444 20.1794 39.0218 20.1794 39.3972C20.1794 39.6583 20.2691 39.8786 20.4486 40.0581C20.6281 40.2213 20.8403 40.3029 21.0851 40.3029C21.183 40.3029 21.2646 40.2948 21.3299 40.2784C21.3952 40.2458 21.4604 40.2213 21.5257 40.205C22.0316 39.9765 22.5946 39.7888 23.2148 39.642C23.8512 39.4788 24.553 39.3972 25.32 39.3972C26.6255 39.3972 27.5965 39.6338 28.233 40.1071C28.8695 40.564 29.1877 41.176 29.1877 41.943C29.1877 42.9385 28.7471 43.6811 27.8658 44.1707C26.9846 44.6603 25.7443 44.9051 24.145 44.9051H23.9981C23.7207 44.9051 23.4759 45.0111 23.2637 45.2233C23.0679 45.4191 22.97 45.6558 22.97 45.9332C22.97 46.2106 23.0679 46.4554 23.2637 46.6676C23.4759 46.8634 23.7207 46.9614 23.9981 46.9614H24.3898C25.7443 46.9614 26.8132 47.0919 27.5965 47.353C28.3799 47.6141 28.9429 47.9813 29.2856 48.4546C29.6283 48.9116 29.7997 49.442 29.7997 50.0458C29.7997 50.7638 29.5712 51.3187 29.1143 51.7104C28.6573 52.1021 28.078 52.3795 27.3762 52.5427C26.6908 52.6896 25.9891 52.763 25.271 52.763C24.4714 52.763 23.7452 52.6977 23.0924 52.5672C22.4396 52.4203 21.8684 52.2489 21.3788 52.0531C21.2156 51.9878 21.0606 51.9552 20.9137 51.9552C20.62 51.9552 20.3834 52.0613 20.2038 52.2734C20.0243 52.4856 19.9346 52.7222 19.9346 52.9833C19.9346 53.2118 19.9917 53.4076 20.1059 53.5708C20.2365 53.7177 20.3915 53.832 20.571 53.9136C21.1748 54.1583 21.9011 54.3868 22.7497 54.599ZM41.0339 54.8927C39.8262 54.8927 38.8144 54.7051 37.9985 54.3297C37.1988 53.938 36.5542 53.424 36.0646 52.7875C35.575 52.1347 35.1997 51.4248 34.9386 50.6578C34.6938 49.8907 34.5306 49.1156 34.449 48.3322C34.3674 47.5325 34.3266 46.7982 34.3266 46.1291C34.3266 45.1662 34.4408 44.1788 34.6693 43.167C34.9141 42.1389 35.3058 41.1842 35.8443 40.3029C36.3992 39.4053 37.1335 38.6873 38.0474 38.1487C38.9613 37.5938 40.0873 37.3164 41.4255 37.3164C42.4373 37.3164 43.286 37.4306 43.9714 37.6591C44.6731 37.8713 45.2688 38.1079 45.7584 38.369C46.1011 38.5322 46.2724 38.826 46.2724 39.2503C46.2724 39.5114 46.1827 39.748 46.0031 39.9602C45.8236 40.156 45.5788 40.254 45.2688 40.254C45.1219 40.254 44.9832 40.2295 44.8526 40.1805C44.4446 39.9847 43.9632 39.8215 43.4084 39.6909C42.8698 39.544 42.266 39.4706 41.5969 39.4706C40.5525 39.4706 39.6957 39.6909 39.0266 40.1316C38.3738 40.5559 37.8597 41.1026 37.4844 41.7717C37.1254 42.4408 36.8724 43.1344 36.7255 43.8524C36.5787 44.5542 36.4889 45.1825 36.4563 45.7374C36.8643 45.2151 37.4681 44.7256 38.2677 44.2686C39.0674 43.8117 40.1363 43.5832 41.4745 43.5832C42.5842 43.5832 43.5552 43.8198 44.3875 44.2931C45.2361 44.7664 45.8971 45.4355 46.3703 46.3004C46.8436 47.149 47.0802 48.1609 47.0802 49.3359C47.0802 50.364 46.8354 51.3024 46.3459 52.151C45.8563 52.9833 45.1627 53.6524 44.2651 54.1583C43.3676 54.6479 42.2905 54.8927 41.0339 54.8927ZM41.0584 52.812C41.8417 52.812 42.5108 52.6488 43.0656 52.3224C43.6368 51.996 44.0775 51.5635 44.3875 51.025C44.6976 50.4864 44.8526 49.9071 44.8526 49.2869C44.8526 48.2098 44.5507 47.3285 43.9469 46.6431C43.3431 45.9577 42.4292 45.615 41.2052 45.615C40.2424 45.615 39.4509 45.7782 38.8307 46.1046C38.2106 46.4146 37.721 46.7818 37.362 47.2062C37.0193 47.6141 36.7582 47.9813 36.5787 48.3077C36.6929 49.0911 36.9051 49.8255 37.2151 50.5109C37.5252 51.1963 37.9903 51.7512 38.6104 52.1755C39.2306 52.5998 40.0465 52.812 41.0584 52.812ZM55.94 54.8927C54.4712 54.8927 53.2391 54.5255 52.2436 53.7912C51.2644 53.0568 50.5301 52.0286 50.0405 50.7067C49.5509 49.3848 49.3061 47.8508 49.3061 46.1046C49.3061 44.3584 49.5509 42.8243 50.0405 41.5024C50.5301 40.1805 51.2644 39.1524 52.2436 38.418C53.2391 37.6836 54.4712 37.3164 55.94 37.3164C57.4087 37.3164 58.6327 37.6836 59.6118 38.418C60.591 39.1524 61.3254 40.1805 61.815 41.5024C62.3209 42.8243 62.5738 44.3584 62.5738 46.1046C62.5738 47.8508 62.3209 49.3848 61.815 50.7067C61.3254 52.0286 60.591 53.0568 59.6118 53.7912C58.6327 54.5255 57.4087 54.8927 55.94 54.8927ZM55.94 52.8365C57.3924 52.8365 58.4858 52.2326 59.2202 51.025C59.9709 49.8173 60.3462 48.1772 60.3462 46.1046C60.3462 44.0483 59.9709 42.4163 59.2202 41.2087C58.4858 40.001 57.3924 39.3972 55.94 39.3972C54.5038 39.3972 53.4104 40.001 52.6598 41.2087C51.9091 42.4163 51.5337 44.0483 51.5337 46.1046C51.5337 48.1772 51.9091 49.8173 52.6598 51.025C53.4104 52.2326 54.5038 52.8365 55.94 52.8365Z"/>
</mask>
<path fill-rule="evenodd" clip-rule="evenodd" d="M22.7497 54.599C23.6146 54.7948 24.5938 54.8927 25.6872 54.8927C26.8785 54.8927 27.9474 54.7132 28.8939 54.3542C29.8568 53.9951 30.6156 53.4729 31.1705 52.7875C31.7417 52.0857 32.0273 51.2126 32.0273 50.1682C32.0273 49.4175 31.9049 48.781 31.6601 48.2588C31.4316 47.7365 31.1297 47.3122 30.7544 46.9858C30.379 46.6431 29.9873 46.382 29.5794 46.2025C29.1714 46.023 28.796 45.8924 28.4533 45.8108C28.9266 45.6313 29.3835 45.3865 29.8242 45.0764C30.2811 44.75 30.6564 44.3176 30.9502 43.779C31.2603 43.2241 31.4153 42.5387 31.4153 41.7227C31.4153 40.3192 30.9012 39.234 29.8731 38.4669C28.8613 37.6999 27.4089 37.3164 25.5158 37.3164C24.4877 37.3164 23.5656 37.447 22.7497 37.7081C21.9337 37.9692 21.2401 38.2548 20.6689 38.5649C20.3426 38.7444 20.1794 39.0218 20.1794 39.3972C20.1794 39.6583 20.2691 39.8786 20.4486 40.0581C20.6281 40.2213 20.8403 40.3029 21.0851 40.3029C21.183 40.3029 21.2646 40.2948 21.3299 40.2784C21.3952 40.2458 21.4604 40.2213 21.5257 40.205C22.0316 39.9765 22.5946 39.7888 23.2148 39.642C23.8512 39.4788 24.553 39.3972 25.32 39.3972C26.6255 39.3972 27.5965 39.6338 28.233 40.1071C28.8695 40.564 29.1877 41.176 29.1877 41.943C29.1877 42.9385 28.7471 43.6811 27.8658 44.1707C26.9846 44.6603 25.7443 44.9051 24.145 44.9051H23.9981C23.7207 44.9051 23.4759 45.0111 23.2637 45.2233C23.0679 45.4191 22.97 45.6558 22.97 45.9332C22.97 46.2106 23.0679 46.4554 23.2637 46.6676C23.4759 46.8634 23.7207 46.9614 23.9981 46.9614H24.3898C25.7443 46.9614 26.8132 47.0919 27.5965 47.353C28.3799 47.6141 28.9429 47.9813 29.2856 48.4546C29.6283 48.9116 29.7997 49.442 29.7997 50.0458C29.7997 50.7638 29.5712 51.3187 29.1143 51.7104C28.6573 52.1021 28.078 52.3795 27.3762 52.5427C26.6908 52.6896 25.9891 52.763 25.271 52.763C24.4714 52.763 23.7452 52.6977 23.0924 52.5672C22.4396 52.4203 21.8684 52.2489 21.3788 52.0531C21.2156 51.9878 21.0606 51.9552 20.9137 51.9552C20.62 51.9552 20.3834 52.0613 20.2038 52.2734C20.0243 52.4856 19.9346 52.7222 19.9346 52.9833C19.9346 53.2118 19.9917 53.4076 20.1059 53.5708C20.2365 53.7177 20.3915 53.832 20.571 53.9136C21.1748 54.1583 21.9011 54.3868 22.7497 54.599ZM41.0339 54.8927C39.8262 54.8927 38.8144 54.7051 37.9985 54.3297C37.1988 53.938 36.5542 53.424 36.0646 52.7875C35.575 52.1347 35.1997 51.4248 34.9386 50.6578C34.6938 49.8907 34.5306 49.1156 34.449 48.3322C34.3674 47.5325 34.3266 46.7982 34.3266 46.1291C34.3266 45.1662 34.4408 44.1788 34.6693 43.167C34.9141 42.1389 35.3058 41.1842 35.8443 40.3029C36.3992 39.4053 37.1335 38.6873 38.0474 38.1487C38.9613 37.5938 40.0873 37.3164 41.4255 37.3164C42.4373 37.3164 43.286 37.4306 43.9714 37.6591C44.6731 37.8713 45.2688 38.1079 45.7584 38.369C46.1011 38.5322 46.2724 38.826 46.2724 39.2503C46.2724 39.5114 46.1827 39.748 46.0031 39.9602C45.8236 40.156 45.5788 40.254 45.2688 40.254C45.1219 40.254 44.9832 40.2295 44.8526 40.1805C44.4446 39.9847 43.9632 39.8215 43.4084 39.6909C42.8698 39.544 42.266 39.4706 41.5969 39.4706C40.5525 39.4706 39.6957 39.6909 39.0266 40.1316C38.3738 40.5559 37.8597 41.1026 37.4844 41.7717C37.1254 42.4408 36.8724 43.1344 36.7255 43.8524C36.5787 44.5542 36.4889 45.1825 36.4563 45.7374C36.8643 45.2151 37.4681 44.7256 38.2677 44.2686C39.0674 43.8117 40.1363 43.5832 41.4745 43.5832C42.5842 43.5832 43.5552 43.8198 44.3875 44.2931C45.2361 44.7664 45.8971 45.4355 46.3703 46.3004C46.8436 47.149 47.0802 48.1609 47.0802 49.3359C47.0802 50.364 46.8354 51.3024 46.3459 52.151C45.8563 52.9833 45.1627 53.6524 44.2651 54.1583C43.3676 54.6479 42.2905 54.8927 41.0339 54.8927ZM41.0584 52.812C41.8417 52.812 42.5108 52.6488 43.0656 52.3224C43.6368 51.996 44.0775 51.5635 44.3875 51.025C44.6976 50.4864 44.8526 49.9071 44.8526 49.2869C44.8526 48.2098 44.5507 47.3285 43.9469 46.6431C43.3431 45.9577 42.4292 45.615 41.2052 45.615C40.2424 45.615 39.4509 45.7782 38.8307 46.1046C38.2106 46.4146 37.721 46.7818 37.362 47.2062C37.0193 47.6141 36.7582 47.9813 36.5787 48.3077C36.6929 49.0911 36.9051 49.8255 37.2151 50.5109C37.5252 51.1963 37.9903 51.7512 38.6104 52.1755C39.2306 52.5998 40.0465 52.812 41.0584 52.812ZM55.94 54.8927C54.4712 54.8927 53.2391 54.5255 52.2436 53.7912C51.2644 53.0568 50.5301 52.0286 50.0405 50.7067C49.5509 49.3848 49.3061 47.8508 49.3061 46.1046C49.3061 44.3584 49.5509 42.8243 50.0405 41.5024C50.5301 40.1805 51.2644 39.1524 52.2436 38.418C53.2391 37.6836 54.4712 37.3164 55.94 37.3164C57.4087 37.3164 58.6327 37.6836 59.6118 38.418C60.591 39.1524 61.3254 40.1805 61.815 41.5024C62.3209 42.8243 62.5738 44.3584 62.5738 46.1046C62.5738 47.8508 62.3209 49.3848 61.815 50.7067C61.3254 52.0286 60.591 53.0568 59.6118 53.7912C58.6327 54.5255 57.4087 54.8927 55.94 54.8927ZM55.94 52.8365C57.3924 52.8365 58.4858 52.2326 59.2202 51.025C59.9709 49.8173 60.3462 48.1772 60.3462 46.1046C60.3462 44.0483 59.9709 42.4163 59.2202 41.2087C58.4858 40.001 57.3924 39.3972 55.94 39.3972C54.5038 39.3972 53.4104 40.001 52.6598 41.2087C51.9091 42.4163 51.5337 44.0483 51.5337 46.1046C51.5337 48.1772 51.9091 49.8173 52.6598 51.025C53.4104 52.2326 54.5038 52.8365 55.94 52.8365Z" fill="#2E2A46"/>
<path d="M22.7497 54.599L22.6526 54.9871L22.6613 54.9891L22.7497 54.599ZM28.8939 54.3542L28.7542 53.9794L28.7521 53.9802L28.8939 54.3542ZM31.1705 52.7875L30.8603 52.535L30.8596 52.5358L31.1705 52.7875ZM31.6601 48.2588L31.2935 48.4192L31.2979 48.4285L31.6601 48.2588ZM30.7544 46.9858L30.4846 47.2813L30.4919 47.2877L30.7544 46.9858ZM28.4533 45.8108L28.3115 45.4368L27.0944 45.8984L28.3607 46.1999L28.4533 45.8108ZM29.8242 45.0764L30.0544 45.4036L30.0566 45.4019L29.8242 45.0764ZM30.9502 43.779L30.601 43.5839L30.599 43.5875L30.9502 43.779ZM29.8731 38.4669L29.6315 38.7857L29.6339 38.7876L29.8731 38.4669ZM22.7497 37.7081L22.8716 38.089L22.7497 37.7081ZM20.6689 38.5649L20.4781 38.2133L20.4762 38.2144L20.6689 38.5649ZM20.4486 40.0581L20.1658 40.341L20.1725 40.3477L20.1796 40.3541L20.4486 40.0581ZM21.3299 40.2784L21.4269 40.6665L21.4695 40.6558L21.5088 40.6362L21.3299 40.2784ZM21.5257 40.205L21.6227 40.5931L21.6576 40.5843L21.6904 40.5695L21.5257 40.205ZM23.2148 39.642L23.307 40.0313L23.3141 40.0294L23.2148 39.642ZM28.233 40.1071L27.9943 40.4281L27.9997 40.432L28.233 40.1071ZM27.8658 44.1707L27.6716 43.821L27.8658 44.1707ZM23.2637 45.2233L23.5466 45.5061L23.5466 45.5061L23.2637 45.2233ZM23.2637 46.6676L22.9698 46.9389L22.9807 46.9507L22.9924 46.9615L23.2637 46.6676ZM27.5965 47.353L27.4701 47.7325H27.4701L27.5965 47.353ZM29.2856 48.4546L28.9616 48.6892L28.9656 48.6946L29.2856 48.4546ZM27.3762 52.5427L27.4601 52.9339L27.4668 52.9323L27.3762 52.5427ZM23.0924 52.5672L23.0046 52.9575L23.0139 52.9594L23.0924 52.5672ZM21.3788 52.0531L21.2303 52.4245H21.2303L21.3788 52.0531ZM20.2038 52.2734L19.8985 52.015H19.8985L20.2038 52.2734ZM20.1059 53.5708L19.7782 53.8002L19.7915 53.8192L19.807 53.8366L20.1059 53.5708ZM20.571 53.9136L20.4055 54.2777L20.4131 54.2811L20.4207 54.2842L20.571 53.9136ZM37.9985 54.3297L37.8225 54.689L37.8313 54.6931L37.9985 54.3297ZM36.0646 52.7875L35.7446 53.0275L35.7476 53.0314L36.0646 52.7875ZM34.9386 50.6578L34.5574 50.7794L34.5599 50.7867L34.9386 50.6578ZM34.449 48.3322L34.051 48.3728L34.0511 48.3737L34.449 48.3322ZM34.6693 43.167L34.2801 43.0744L34.2791 43.0789L34.6693 43.167ZM35.8443 40.3029L35.504 40.0926L35.503 40.0943L35.8443 40.3029ZM38.0474 38.1487L38.2505 38.4934L38.255 38.4906L38.0474 38.1487ZM43.9714 37.6591L43.8448 38.0387L43.8556 38.042L43.9714 37.6591ZM45.7584 38.369L45.5701 38.722L45.5782 38.7263L45.5864 38.7302L45.7584 38.369ZM46.0031 39.9602L46.298 40.2305L46.3034 40.2246L46.3085 40.2186L46.0031 39.9602ZM44.8526 40.1805L44.6795 40.5411L44.6955 40.5488L44.7122 40.555L44.8526 40.1805ZM43.4084 39.6909L43.303 40.0771L43.3167 40.0803L43.4084 39.6909ZM39.0266 40.1316L39.2446 40.4669L39.2466 40.4656L39.0266 40.1316ZM37.4844 41.7717L37.1355 41.576L37.1319 41.5826L37.4844 41.7717ZM36.7255 43.8524L37.1171 43.9344L37.1174 43.9326L36.7255 43.8524ZM36.4563 45.7374L36.057 45.7139L35.9816 46.9947L36.7715 45.9836L36.4563 45.7374ZM38.2677 44.2686L38.4662 44.6159L38.2677 44.2686ZM44.3875 44.2931L44.1898 44.6408L44.1927 44.6424L44.3875 44.2931ZM46.3703 46.3004L46.0194 46.4924L46.021 46.4952L46.3703 46.3004ZM46.3459 52.151L46.6906 52.3538L46.6923 52.3509L46.3459 52.151ZM44.2651 54.1583L44.4567 54.5095L44.4615 54.5068L44.2651 54.1583ZM43.0656 52.3224L42.8672 51.9751L42.8628 51.9776L43.0656 52.3224ZM44.3875 51.025L44.0409 50.8254V50.8254L44.3875 51.025ZM38.8307 46.1046L39.0097 46.4624L39.017 46.4585L38.8307 46.1046ZM37.362 47.2062L37.0566 46.9478L37.0557 46.9489L37.362 47.2062ZM36.5787 48.3077L36.2282 48.115L36.1635 48.2326L36.1829 48.3655L36.5787 48.3077ZM38.6104 52.1755L38.8363 51.8454V51.8454L38.6104 52.1755ZM52.2436 53.7912L52.0036 54.1112L52.0061 54.113L52.2436 53.7912ZM50.0405 41.5024L50.4156 41.6413L50.0405 41.5024ZM52.2436 38.418L52.0061 38.0961L52.0036 38.098L52.2436 38.418ZM59.6118 38.418L59.8518 38.098V38.098L59.6118 38.418ZM61.815 41.5024L61.4398 41.6413L61.4414 41.6454L61.815 41.5024ZM61.815 50.7067L61.4414 50.5637L61.4399 50.5678L61.815 50.7067ZM59.2202 51.025L58.8804 50.8138L58.8784 50.8171L59.2202 51.025ZM59.2202 41.2087L58.8784 41.4165L58.8805 41.4198L59.2202 41.2087ZM52.6598 41.2087L52.32 40.9975V40.9975L52.6598 41.2087ZM52.6598 51.025L52.32 51.2361V51.2361L52.6598 51.025ZM25.6872 54.4927C24.6169 54.4927 23.6682 54.3968 22.838 54.2089L22.6613 54.9891C23.561 55.1928 24.5706 55.2927 25.6872 55.2927V54.4927ZM28.7521 53.9802C27.8581 54.3193 26.8384 54.4927 25.6872 54.4927V55.2927C26.9186 55.2927 28.0367 55.1072 29.0358 54.7282L28.7521 53.9802ZM30.8596 52.5358C30.3567 53.157 29.6612 53.6412 28.7542 53.9794L29.0337 54.729C30.0524 54.3491 30.8746 53.7888 31.4814 53.0392L30.8596 52.5358ZM31.6273 50.1682C31.6273 51.1356 31.3646 51.9154 30.8603 52.535L31.4807 53.04C32.1188 52.2561 32.4273 51.2897 32.4273 50.1682H31.6273ZM31.2979 48.4285C31.5115 48.8842 31.6273 49.4592 31.6273 50.1682H32.4273C32.4273 49.3758 32.2983 48.6779 32.0223 48.089L31.2979 48.4285ZM30.4919 47.2877C30.8164 47.5699 31.0854 47.9432 31.2936 48.4191L32.0266 48.0984C31.7778 47.5298 31.443 47.0546 31.0168 46.684L30.4919 47.2877ZM29.4183 46.5686C29.7813 46.7283 30.137 46.9638 30.4847 47.2812L31.0241 46.6904C30.621 46.3225 30.1934 46.0357 29.7405 45.8364L29.4183 46.5686ZM28.3607 46.1999C28.6747 46.2747 29.0268 46.3964 29.4183 46.5686L29.7405 45.8364C29.3159 45.6496 28.9173 45.5101 28.546 45.4217L28.3607 46.1999ZM29.594 44.7493C29.1789 45.0414 28.7515 45.2699 28.3115 45.4368L28.5952 46.1848C29.1017 45.9927 29.5881 45.7316 30.0544 45.4035L29.594 44.7493ZM30.599 43.5875C30.3315 44.078 29.995 44.4628 29.5917 44.7509L30.0566 45.4019C30.5672 45.0373 30.9814 44.5572 31.3014 43.9705L30.599 43.5875ZM31.0153 41.7227C31.0153 42.4893 30.8696 43.1032 30.601 43.5839L31.2994 43.9741C31.6509 43.345 31.8153 42.5881 31.8153 41.7227H31.0153ZM29.6339 38.7876C30.5503 39.4712 31.0153 40.4317 31.0153 41.7227H31.8153C31.8153 40.2067 31.2522 38.9967 30.1123 38.1463L29.6339 38.7876ZM25.5158 37.7164C27.3625 37.7164 28.7159 38.0917 29.6315 38.7857L30.1148 38.1482C29.0067 37.3082 27.4553 36.9164 25.5158 36.9164V37.7164ZM22.8716 38.089C23.6412 37.8428 24.5211 37.7164 25.5158 37.7164V36.9164C24.4543 36.9164 23.4901 37.0512 22.6278 37.3271L22.8716 38.089ZM20.8598 38.9164C21.4033 38.6213 22.0724 38.3448 22.8716 38.089L22.6278 37.3271C21.795 37.5936 21.077 37.8882 20.4781 38.2133L20.8598 38.9164ZM20.5794 39.3972C20.5794 39.2688 20.6067 39.1781 20.6465 39.1104C20.6863 39.0429 20.7515 38.976 20.8617 38.9153L20.4762 38.2144C20.26 38.3333 20.0805 38.4949 19.957 38.7048C19.8336 38.9145 19.7794 39.1502 19.7794 39.3972H20.5794ZM20.7315 39.7753C20.6293 39.6731 20.5794 39.5556 20.5794 39.3972H19.7794C19.7794 39.761 19.9089 40.0841 20.1658 40.341L20.7315 39.7753ZM21.0851 39.9029C20.9388 39.9029 20.8229 39.8577 20.7177 39.7621L20.1796 40.3541C20.4334 40.5849 20.7418 40.7029 21.0851 40.7029V39.9029ZM21.2329 39.8904C21.2101 39.8961 21.1637 39.9029 21.0851 39.9029V40.7029C21.2023 40.7029 21.3191 40.6934 21.4269 40.6665L21.2329 39.8904ZM21.4287 39.8169C21.3328 39.8409 21.2402 39.8761 21.151 39.9207L21.5088 40.6362C21.5501 40.6155 21.588 40.6017 21.6227 40.5931L21.4287 39.8169ZM23.1226 39.2527C22.4811 39.4047 21.8934 39.6 21.3611 39.8404L21.6904 40.5695C22.1698 40.353 22.7081 40.173 23.307 40.0312L23.1226 39.2527ZM25.32 38.9972C24.5249 38.9972 23.7892 39.0817 23.1154 39.2545L23.3141 40.0294C23.9132 39.8758 24.581 39.7972 25.32 39.7972V38.9972ZM28.4717 39.7861C27.7343 39.2378 26.6607 38.9972 25.32 38.9972V39.7972C26.5903 39.7972 27.4588 40.0298 27.9943 40.4281L28.4717 39.7861ZM29.5877 41.943C29.5877 41.0439 29.2047 40.3123 28.4663 39.7821L27.9997 40.432C28.5342 40.8157 28.7877 41.3081 28.7877 41.943H29.5877ZM28.0601 44.5203C28.5521 44.247 28.9391 43.8924 29.2012 43.4507C29.4635 43.0087 29.5877 42.5015 29.5877 41.943H28.7877C28.7877 42.3801 28.6916 42.7419 28.5132 43.0425C28.3347 43.3433 28.0607 43.6048 27.6716 43.821L28.0601 44.5203ZM24.145 45.3051C25.7763 45.3051 27.0944 45.0569 28.0601 44.5203L27.6716 43.821C26.8748 44.2637 25.7123 44.5051 24.145 44.5051V45.3051ZM23.9981 45.3051H24.145V44.5051H23.9981V45.3051ZM23.5466 45.5061C23.6905 45.3623 23.8359 45.3051 23.9981 45.3051V44.5051C23.6054 44.5051 23.2613 44.66 22.9809 44.9405L23.5466 45.5061ZM23.37 45.9332C23.37 45.7617 23.4259 45.6268 23.5466 45.5061L22.9809 44.9405C22.7099 45.2115 22.57 45.5499 22.57 45.9332H23.37ZM23.5577 46.3963C23.427 46.2547 23.37 46.1057 23.37 45.9332H22.57C22.57 46.3156 22.7088 46.6562 22.9698 46.9389L23.5577 46.3963ZM23.9981 46.5614C23.8257 46.5614 23.6766 46.5044 23.5351 46.3737L22.9924 46.9615C23.2751 47.2225 23.6157 47.3614 23.9981 47.3614V46.5614ZM24.3898 46.5614H23.9981V47.3614H24.3898V46.5614ZM27.723 46.9736C26.8812 46.6929 25.7635 46.5614 24.3898 46.5614V47.3614C25.7251 47.3614 26.7452 47.4909 27.4701 47.7325L27.723 46.9736ZM29.6096 48.22C29.2013 47.6562 28.554 47.2506 27.723 46.9736L27.4701 47.7325C28.2057 47.9777 28.6845 48.3065 28.9616 48.6892L29.6096 48.22ZM30.1997 50.0458C30.1997 49.3607 30.0033 48.7449 29.6056 48.2146L28.9656 48.6946C29.2533 49.0782 29.3997 49.5232 29.3997 50.0458H30.1997ZM29.3746 52.0141C29.9374 51.5316 30.1997 50.8558 30.1997 50.0458H29.3997C29.3997 50.6719 29.205 51.1058 28.8539 51.4067L29.3746 52.0141ZM27.4668 52.9323C28.219 52.7574 28.86 52.4551 29.3746 52.0141L28.8539 51.4067C28.4546 51.749 27.937 52.0016 27.2856 52.1531L27.4668 52.9323ZM25.271 53.163C26.0166 53.163 26.7464 53.0867 27.46 52.9338L27.2924 52.1516C26.6352 52.2924 25.9616 52.363 25.271 52.363V53.163ZM23.0139 52.9594C23.6971 53.096 24.4501 53.163 25.271 53.163V52.363C24.4926 52.363 23.7932 52.2994 23.1708 52.1749L23.0139 52.9594ZM21.2303 52.4245C21.744 52.63 22.3363 52.8071 23.0046 52.9574L23.1802 52.1769C22.5429 52.0335 21.9928 51.8679 21.5274 51.6817L21.2303 52.4245ZM20.9137 52.3552C21.0008 52.3552 21.1053 52.3745 21.2303 52.4245L21.5274 51.6817C21.326 51.6012 21.1204 51.5552 20.9137 51.5552V52.3552ZM20.5092 52.5318C20.6079 52.4151 20.73 52.3552 20.9137 52.3552V51.5552C20.51 51.5552 20.1588 51.7074 19.8985 52.015L20.5092 52.5318ZM20.3346 52.9833C20.3346 52.8232 20.3865 52.6768 20.5092 52.5318L19.8985 52.015C19.6621 52.2944 19.5346 52.6212 19.5346 52.9833H20.3346ZM20.4336 53.3415C20.3731 53.255 20.3346 53.1422 20.3346 52.9833H19.5346C19.5346 53.2814 19.6103 53.5602 19.7782 53.8002L20.4336 53.3415ZM20.7366 53.5494C20.6077 53.4908 20.4982 53.4101 20.4049 53.3051L19.807 53.8366C19.9748 54.0254 20.1753 54.1731 20.4055 54.2777L20.7366 53.5494ZM22.8467 54.2109C22.0105 54.0019 21.3031 53.7787 20.7213 53.5429L20.4207 54.2842C21.0466 54.538 21.7916 54.7718 22.6527 54.987L22.8467 54.2109ZM37.8313 54.6931C38.7145 55.0994 39.7874 55.2927 41.0339 55.2927V54.4927C39.8651 54.4927 38.9144 54.3107 38.1656 53.9663L37.8313 54.6931ZM35.7476 53.0314C36.2786 53.7217 36.9737 54.2732 37.8225 54.6889L38.1744 53.9705C37.4239 53.6029 36.8298 53.1262 36.3817 52.5436L35.7476 53.0314ZM34.5599 50.7867C34.8347 51.5939 35.2299 52.3412 35.7446 53.0275L36.3846 52.5475C35.9201 51.9282 35.5647 51.2557 35.3172 50.5289L34.5599 50.7867ZM34.0511 48.3737C34.1356 49.1848 34.3046 49.9869 34.5575 50.7794L35.3196 50.5362C35.083 49.7946 34.9255 49.0463 34.8468 48.2908L34.0511 48.3737ZM33.9266 46.1291C33.9266 46.8141 33.9683 47.5622 34.051 48.3728L34.8469 48.2916C34.7664 47.5028 34.7266 46.7822 34.7266 46.1291H33.9266ZM34.2791 43.0789C34.0446 44.1174 33.9266 45.1344 33.9266 46.1291H34.7266C34.7266 45.198 34.837 44.2402 35.0595 43.2551L34.2791 43.0789ZM35.503 40.0943C34.942 41.0123 34.5345 42.0063 34.2802 43.0744L35.0584 43.2597C35.2937 42.2715 35.6695 41.356 36.1856 40.5115L35.503 40.0943ZM37.8443 37.8041C36.8748 38.3754 36.0932 39.1395 35.5041 40.0926L36.1845 40.5132C36.7051 39.6712 37.3922 38.9991 38.2505 38.4933L37.8443 37.8041ZM41.4255 36.9164C40.0324 36.9164 38.8303 37.2055 37.8398 37.8068L38.255 38.4906C39.0924 37.9822 40.1423 37.7164 41.4255 37.7164V36.9164ZM44.0979 37.2796C43.3589 37.0333 42.4645 36.9164 41.4255 36.9164V37.7164C42.4102 37.7164 43.213 37.828 43.8449 38.0386L44.0979 37.2796ZM45.9466 38.0161C45.4279 37.7394 44.8065 37.4937 44.0871 37.2762L43.8556 38.042C44.5397 38.2488 45.1097 38.4764 45.5701 38.722L45.9466 38.0161ZM46.6724 39.2503C46.6724 38.9847 46.6186 38.7317 46.4894 38.5102C46.3586 38.286 46.1655 38.1199 45.9303 38.0079L45.5864 38.7302C45.6939 38.7814 45.7578 38.8438 45.7984 38.9133C45.8405 38.9856 45.8724 39.0916 45.8724 39.2503H46.6724ZM46.3085 40.2186C46.5449 39.9392 46.6724 39.6124 46.6724 39.2503H45.8724C45.8724 39.4104 45.8204 39.5569 45.6978 39.7018L46.3085 40.2186ZM45.2688 40.654C45.6704 40.654 46.0299 40.523 46.298 40.2305L45.7083 39.6899C45.6174 39.7891 45.4872 39.854 45.2688 39.854V40.654ZM44.7122 40.555C44.89 40.6217 45.0765 40.654 45.2688 40.654V39.854C45.1673 39.854 45.0764 39.8372 44.9931 39.806L44.7122 40.555ZM43.3167 40.0803C43.8504 40.2059 44.3033 40.3605 44.6795 40.5411L45.0257 39.8199C44.586 39.6088 44.0761 39.4371 43.5 39.3016L43.3167 40.0803ZM41.5969 39.8706C42.2372 39.8706 42.8049 39.9409 43.3031 40.0768L43.5136 39.305C42.9348 39.1472 42.2947 39.0706 41.5969 39.0706V39.8706ZM39.2466 40.4656C39.8332 40.0793 40.6072 39.8706 41.5969 39.8706V39.0706C40.4977 39.0706 39.5581 39.3026 38.8066 39.7975L39.2466 40.4656ZM37.8333 41.9674C38.1764 41.3556 38.6452 40.8565 39.2446 40.4669L38.8086 39.7962C38.1024 40.2552 37.543 40.8496 37.1355 41.576L37.8333 41.9674ZM37.1174 43.9326C37.2562 43.2539 37.4955 42.5969 37.8369 41.9608L37.1319 41.5826C36.7552 42.2846 36.4886 43.0148 36.3337 43.7723L37.1174 43.9326ZM36.8556 45.7609C36.8868 45.2303 36.9731 44.6221 37.1171 43.9344L36.334 43.7705C36.1842 44.4863 36.091 45.1347 36.057 45.7139L36.8556 45.7609ZM38.0693 43.9213C37.2409 44.3947 36.5909 44.9153 36.1411 45.4911L36.7715 45.9836C37.1376 45.515 37.6953 45.0564 38.4662 44.6159L38.0693 43.9213ZM41.4745 43.1832C40.0962 43.1832 38.9507 43.4176 38.0693 43.9213L38.4662 44.6159C39.1841 44.2057 40.1764 43.9832 41.4745 43.9832V43.1832ZM44.5852 43.9454C43.6837 43.4327 42.6424 43.1832 41.4745 43.1832V43.9832C42.526 43.9832 43.4268 44.2069 44.1898 44.6408L44.5852 43.9454ZM46.7212 46.1084C46.2124 45.1784 45.4978 44.4543 44.5823 43.9437L44.1927 44.6424C44.9745 45.0784 45.5818 45.6925 46.0194 46.4924L46.7212 46.1084ZM47.4802 49.3359C47.4802 48.1069 47.2325 47.0251 46.7197 46.1056L46.021 46.4952C46.4547 47.273 46.6802 48.2148 46.6802 49.3359H47.4802ZM46.6923 52.3509C47.2187 51.4385 47.4802 50.4306 47.4802 49.3359H46.6802C46.6802 50.2975 46.4521 51.1663 45.9994 51.9511L46.6923 52.3509ZM44.4615 54.5068C45.4163 53.9687 46.1629 53.251 46.6906 52.3538L46.0011 51.9482C45.5496 52.7157 44.9091 53.3362 44.0687 53.8099L44.4615 54.5068ZM41.0339 55.2927C42.3422 55.2927 43.4883 55.0377 44.4567 54.5095L44.0736 53.8072C43.2468 54.2582 42.2387 54.4927 41.0339 54.4927V55.2927ZM42.8628 51.9776C42.3815 52.2607 41.7858 52.412 41.0584 52.412V53.212C41.8976 53.212 42.6401 53.0368 43.2685 52.6672L42.8628 51.9776ZM44.0409 50.8254C43.7683 51.2988 43.3805 51.6818 42.8672 51.9751L43.2641 52.6697C43.8932 52.3102 44.3866 51.8283 44.7342 51.2245L44.0409 50.8254ZM44.4526 49.2869C44.4526 49.8369 44.3161 50.3474 44.0409 50.8254L44.7342 51.2245C45.0791 50.6254 45.2526 49.9773 45.2526 49.2869H44.4526ZM43.6467 46.9075C44.175 47.5072 44.4526 48.2887 44.4526 49.2869H45.2526C45.2526 48.1309 44.9264 47.1499 44.247 46.3787L43.6467 46.9075ZM41.2052 46.015C42.3554 46.015 43.1424 46.335 43.6467 46.9075L44.247 46.3787C43.5438 45.5804 42.503 45.215 41.2052 45.215V46.015ZM39.017 46.4585C39.5623 46.1715 40.2842 46.015 41.2052 46.015V45.215C40.2005 45.215 39.3395 45.3848 38.6444 45.7506L39.017 46.4585ZM37.6674 47.4645C37.9839 47.0904 38.4263 46.754 39.0096 46.4623L38.6519 45.7468C37.9949 46.0753 37.4582 46.4732 37.0566 46.9478L37.6674 47.4645ZM36.9292 48.5005C37.092 48.2044 37.3359 47.8592 37.6683 47.4634L37.0557 46.9489C36.7027 47.3691 36.4244 47.7582 36.2282 48.115L36.9292 48.5005ZM37.5796 50.346C37.2857 49.6964 37.0836 48.9983 36.9745 48.25L36.1829 48.3655C36.3022 49.1839 36.5244 49.9545 36.8507 50.6758L37.5796 50.346ZM38.8363 51.8454C38.2767 51.4625 37.8595 50.9648 37.5796 50.346L36.8507 50.6758C37.1909 51.4278 37.7039 52.0399 38.3846 52.5056L38.8363 51.8454ZM41.0584 52.412C40.0998 52.412 39.3704 52.2108 38.8363 51.8454L38.3846 52.5056C39.0907 52.9888 39.9933 53.212 41.0584 53.212V52.412ZM52.0061 54.113C53.0826 54.9071 54.4022 55.2927 55.94 55.2927V54.4927C54.5402 54.4927 53.3956 54.1439 52.4811 53.4693L52.0061 54.113ZM49.6654 50.8457C50.1775 52.2284 50.954 53.324 52.0036 54.1112L52.4836 53.4712C51.5748 52.7896 50.8826 51.8288 50.4156 50.5678L49.6654 50.8457ZM48.9061 46.1046C48.9061 47.8873 49.1559 49.4701 49.6654 50.8457L50.4156 50.5678C49.9459 49.2996 49.7061 47.8143 49.7061 46.1046H48.9061ZM49.6654 41.3635C49.1559 42.739 48.9061 44.3219 48.9061 46.1046H49.7061C49.7061 44.3949 49.9459 42.9096 50.4156 41.6413L49.6654 41.3635ZM52.0036 38.098C50.954 38.8852 50.1775 39.9807 49.6654 41.3635L50.4156 41.6413C50.8826 40.3803 51.5748 39.4196 52.4836 38.738L52.0036 38.098ZM55.94 36.9164C54.4022 36.9164 53.0826 37.302 52.0061 38.0961L52.4811 38.7399C53.3956 38.0652 54.5402 37.7164 55.94 37.7164V36.9164ZM59.8518 38.098C58.7904 37.3019 57.4775 36.9164 55.94 36.9164V37.7164C57.34 37.7164 58.4749 38.0653 59.3718 38.738L59.8518 38.098ZM62.1901 41.3635C61.6779 39.9807 60.9014 38.8852 59.8518 38.098L59.3718 38.738C60.2806 39.4196 60.9728 40.3803 61.4399 41.6413L62.1901 41.3635ZM62.9738 46.1046C62.9738 44.3205 62.7155 42.7363 62.1885 41.3594L61.4414 41.6454C61.9263 42.9124 62.1738 44.3962 62.1738 46.1046H62.9738ZM62.1885 50.8497C62.7155 49.4729 62.9738 47.8886 62.9738 46.1046H62.1738C62.1738 47.8129 61.9263 49.2968 61.4414 50.5638L62.1885 50.8497ZM59.8518 54.1112C60.9014 53.324 61.6779 52.2284 62.1901 50.8457L61.4399 50.5678C60.9728 51.8288 60.2806 52.7896 59.3718 53.4712L59.8518 54.1112ZM55.94 55.2927C57.4775 55.2927 58.7904 54.9072 59.8518 54.1112L59.3718 53.4712C58.4749 54.1439 57.34 54.4927 55.94 54.4927V55.2927ZM58.8784 50.8171C58.219 51.9015 57.2574 52.4365 55.94 52.4365V53.2365C57.5273 53.2365 58.7526 52.5638 59.5619 51.2328L58.8784 50.8171ZM59.9462 46.1046C59.9462 48.1347 59.5776 49.6922 58.8805 50.8138L59.5599 51.2361C60.3641 49.9424 60.7462 48.2196 60.7462 46.1046H59.9462ZM58.8805 41.4198C59.5779 42.5418 59.9462 44.0915 59.9462 46.1046H60.7462C60.7462 44.0051 60.3638 42.2908 59.5599 40.9975L58.8805 41.4198ZM55.94 39.7972C57.2574 39.7972 58.219 40.3321 58.8784 41.4165L59.5619 41.0008C58.7526 39.6699 57.5273 38.9972 55.94 38.9972V39.7972ZM52.9995 41.4198C53.6763 40.331 54.6404 39.7972 55.94 39.7972V38.9972C54.3673 38.9972 53.1446 39.671 52.32 40.9975L52.9995 41.4198ZM51.9337 46.1046C51.9337 44.0915 52.302 42.5418 52.9995 41.4198L52.32 40.9975C51.5161 42.2908 51.1337 44.0051 51.1337 46.1046H51.9337ZM52.9995 50.8138C52.3023 49.6922 51.9337 48.1347 51.9337 46.1046H51.1337C51.1337 48.2196 51.5158 49.9424 52.32 51.2361L52.9995 50.8138ZM55.94 52.4365C54.6404 52.4365 53.6763 51.9026 52.9995 50.8138L52.32 51.2361C53.1446 52.5626 54.3673 53.2365 55.94 53.2365V52.4365Z" fill="#2E2A46" mask="url(#path-2-outside-1_2843_1806)"/>
</svg>
