<svg width="69" height="77" viewBox="0 0 69 77" fill="none" xmlns="http://www.w3.org/2000/svg">
<path fill-rule="evenodd" clip-rule="evenodd" d="M68.8638 34C68.8638 44.0962 64.4632 53.1645 57.4755 59.3916L52.7711 51.2435C57.0624 46.9618 59.8273 41.1511 60.1792 34.6981H53.6229C53.3266 38.7163 51.7682 42.3836 49.3425 45.3049L43.0738 34.4472L43.2996 34.1964C43.9606 33.4618 44.3264 32.5087 44.3264 31.5205V26.1895C44.3264 23.9803 42.5355 22.1895 40.3264 22.1895H38.8349V15.7637H30.8899V22.1895H29.3985C27.1894 22.1895 25.3985 23.9803 25.3985 26.1895V31.5205C25.3985 32.5087 25.7643 33.4618 26.4254 34.1963L26.6513 34.4473L12.2505 59.3902C5.26369 53.1632 0.86377 44.0954 0.86377 34C0.86377 15.2223 16.0861 0 34.8638 0C53.6415 0 68.8638 15.2223 68.8638 34ZM17.7642 63.3936C15.7914 62.2434 13.9449 60.9004 12.2505 59.3902L6.74962 68.918L6.07725 75.0282C5.98203 75.8935 6.96123 76.4588 7.66298 75.9437L12.6184 72.3063L17.7642 63.3936ZM51.9616 63.3946C53.9344 62.2446 55.781 60.9016 57.4755 59.3916L62.9755 68.918L63.6479 75.0282C63.7431 75.8935 62.7639 76.4588 62.0622 75.9437L57.1068 72.3063L51.9616 63.3946ZM51.9616 63.3946L47.3323 55.3764C43.6505 57.46 39.3958 58.6493 34.8634 58.6493C30.3304 58.6493 26.0753 57.4597 22.3932 55.3758L17.7642 63.3936C22.7875 66.3222 28.6297 68 34.8638 68C41.0971 68 46.9386 66.3226 51.9616 63.3946ZM25.6654 49.7081C28.3849 51.2354 31.5224 52.1064 34.8634 52.1064C38.2038 52.1064 41.3409 51.2356 44.0601 49.7088L38.3068 39.7438L37.8356 40.2674C36.2467 42.0329 33.4783 42.0329 31.8893 40.2674L31.4182 39.744L25.6654 49.7081ZM34.8637 34.5829C37.6707 34.5829 39.9462 32.3074 39.9462 29.5004C39.9462 26.6935 37.6707 24.418 34.8637 24.418C32.0568 24.418 29.7812 26.6935 29.7812 29.5004C29.7812 32.3074 32.0568 34.5829 34.8637 34.5829Z" fill="#2E2A46"/>
</svg>
