<svg width="229" height="229" viewBox="0 0 229 229" fill="none" xmlns="http://www.w3.org/2000/svg">
<path fill-rule="evenodd" clip-rule="evenodd" d="M159.178 114.46C159.178 128.066 153.247 140.286 143.829 148.677L137.492 137.7C143.275 131.931 147.002 124.1 147.476 115.404H138.642C138.243 120.819 136.142 125.762 132.872 129.699L124.43 115.075L125.09 114.341C125.751 113.607 126.117 112.654 126.117 111.666V102.56C126.117 100.35 124.326 98.5596 122.117 98.5596H118.718V89.9014H108.013V98.5596H104.613C102.404 98.5596 100.613 100.35 100.613 102.56V111.666C100.613 112.654 100.979 113.607 101.64 114.341L102.3 115.075L82.901 148.676C73.4842 140.285 67.5537 128.065 67.5537 114.46C67.5537 89.1592 88.0644 68.6484 113.366 68.6484C138.667 68.6484 159.178 89.1592 159.178 114.46ZM90.3308 154.069C87.6725 152.519 85.1843 150.71 82.901 148.676L75.4852 161.52L74.4928 170.539C74.3976 171.404 75.3768 171.97 76.0785 171.455L83.3928 166.086L90.3308 154.069ZM136.399 154.069C139.058 152.52 141.546 150.711 143.829 148.677L151.245 161.52L152.237 170.539C152.332 171.404 151.353 171.97 150.651 171.455L143.337 166.086L136.399 154.069ZM136.399 154.069L130.163 143.268C125.203 146.075 119.471 147.677 113.365 147.677C107.259 147.677 101.527 146.075 96.5664 143.268L90.3308 154.069C97.0982 158.013 104.968 160.272 113.366 160.272C121.763 160.272 129.632 158.013 136.399 154.069ZM100.975 135.632C104.639 137.688 108.865 138.861 113.365 138.861C117.865 138.861 122.091 137.688 125.754 135.632L118.007 122.212L116.338 124.066C114.749 125.831 111.981 125.831 110.392 124.066L108.724 122.212L100.975 135.632ZM113.366 115.247C117.148 115.247 120.214 112.181 120.214 108.399C120.214 104.617 117.148 101.551 113.366 101.551C109.584 101.551 106.518 104.617 106.518 108.399C106.518 112.181 109.584 115.247 113.366 115.247Z" fill="#6E4CF8"/>
<circle cx="114.379" cy="114.398" r="113.75" stroke="#6E4CF8" stroke-width="0.5"/>
</svg>
