<svg width="88" height="88" viewBox="0 0 88 88" fill="none" xmlns="http://www.w3.org/2000/svg">
<path d="M69.4956 2.94763C71.613 11.0725 76.6949 16.1568 84.8502 18.2793C81.3305 28.5335 74.4939 37.5686 65.3618 46.7007C56.4954 55.5671 47.5002 62.0445 33.8181 66.7654C33.4727 66.8848 33.2653 66.8361 33.0115 66.5811C29.0746 62.6293 25.1308 58.6857 21.1789 54.749C20.9401 54.5114 20.8822 54.3132 20.9934 53.9921C25.0728 42.123 32.3535 31.5514 40.9481 22.287C49.1567 13.4376 57.4996 6.81938 68.9822 3.0879C69.1456 3.03457 69.3148 2.99748 69.4956 2.94879V2.94763ZM65.1218 30.1913C65.1311 26.0726 61.7737 22.6564 57.7001 22.6402C53.4839 22.6228 50.0651 26.0031 50.0848 30.1693C50.1045 34.2972 53.4561 37.6809 57.5332 37.6879C61.7239 37.696 65.1114 34.3482 65.1218 30.1913Z" fill="#E0E0E0"/>
<path d="M20.8076 46.9935C16.133 46.6809 12.8708 46.527 8.82617 46.0609C2.5664 45.3396 -4.36943 46.0524 5.61616 36.4901C10.882 31.4498 17.5937 29.5815 24.9114 28.9272C27.0682 28.7336 29.2619 28.9506 31.4394 28.9857C31.5867 28.9886 31.7332 29.0506 31.7928 29.0653C29.8293 31.9837 27.7656 34.8423 25.9292 37.8403C24.1004 40.826 22.4978 43.9497 20.8065 46.9935L20.8076 46.9935Z" fill="#E0E0E0"/>
<path d="M40.9512 67.1371C41.2638 71.8118 41.4178 75.0739 41.8838 79.1185C42.6051 85.3783 41.8923 92.3141 51.4546 82.3285C56.4949 77.0627 58.3632 70.351 59.0175 63.0333C59.2111 60.8765 58.9941 58.6828 58.959 56.5053C58.9561 56.358 58.8941 56.2115 58.8794 56.1519C55.961 58.1154 53.1024 60.1791 50.1044 62.0155C47.1187 63.8443 43.995 65.4469 40.9512 67.1382L40.9512 67.1371Z" fill="#E0E0E0"/>
<path d="M85.4679 16.1349C77.7459 14.6847 72.5342 8.1526 71.6882 2.34499C74.4754 1.17535 83.857 -0.499599 86.1053 1.74873C88.3537 3.99706 86.8841 10.842 85.4679 16.1349Z" fill="#E0E0E0"/>
<path d="M7.04346 81.9619C6.48717 81.8541 6.16499 81.6211 5.97957 81.1864C5.78023 80.7204 5.90076 80.3123 6.23916 79.968C7.10604 79.0882 7.98451 78.2188 8.85718 77.3459C12.4325 73.7698 16.0077 70.1948 19.5842 66.6198C19.6931 66.5108 19.7998 66.3961 19.9214 66.3033C20.3746 65.9602 21.0143 66.0112 21.3979 66.41C21.7711 66.7983 21.8024 67.3918 21.4663 67.8416C21.3863 67.9494 21.2843 68.041 21.1893 68.136C16.7808 72.5445 12.3757 76.9553 7.95785 81.3533C7.70405 81.606 7.35057 81.7602 7.0423 81.9607L7.04346 81.9619Z" fill="#E0E0E0"/>
<path d="M6.43846 72.1016C6.08963 71.7979 5.71413 71.5881 5.51248 71.2682C5.24013 70.8335 5.39659 70.3814 5.76397 70.0162C7.16974 68.6136 8.57204 67.2075 9.97666 65.8037C11.4624 64.3176 12.9493 62.8326 14.4362 61.3465C15.0099 60.7727 15.6983 60.7043 16.1618 61.1727C16.6486 61.6642 16.5953 62.3064 15.9973 62.9057C13.1498 65.7573 10.3035 68.6101 7.44325 71.4478C7.19872 71.6901 6.85567 71.835 6.43846 72.1016Z" fill="#E0E0E0"/>
<path d="M27.0697 72.3137C26.8391 72.7102 26.729 73.0348 26.5123 73.2527C23.6184 76.1693 20.7119 79.0731 17.8006 81.9722C17.271 82.4997 16.6162 82.5136 16.1526 82.0545C15.6972 81.6036 15.7088 80.9336 16.2315 80.4085C19.1299 77.4965 22.0388 74.5951 24.9431 71.6889C25.3186 71.3133 25.7868 71.1244 26.2492 71.4061C26.5725 71.6031 26.7823 71.9845 27.0697 72.3137Z" fill="#E0E0E0"/>
</svg>
