<svg width="25" height="25" viewBox="0 0 25 25" fill="none" xmlns="http://www.w3.org/2000/svg">
<g id="Icon inst">
<path id="Union" fill-rule="evenodd" clip-rule="evenodd" d="M19 1.7H6C3.62518 1.7 1.7 3.62518 1.7 6V19C1.7 21.3748 3.62518 23.3 6 23.3H19C21.3748 23.3 23.3 21.3748 23.3 19V6C23.3 3.62518 21.3748 1.7 19 1.7ZM6 0C2.68629 0 0 2.68629 0 6V19C0 22.3137 2.68629 25 6 25H19C22.3137 25 25 22.3137 25 19V6C25 2.68629 22.3137 0 19 0H6ZM12.5 17.8C15.4271 17.8 17.8 15.4271 17.8 12.5C17.8 9.57289 15.4271 7.2 12.5 7.2C9.57289 7.2 7.2 9.57289 7.2 12.5C7.2 15.4271 9.57289 17.8 12.5 17.8ZM12.5 19.5C16.366 19.5 19.5 16.366 19.5 12.5C19.5 8.63401 16.366 5.5 12.5 5.5C8.63401 5.5 5.5 8.63401 5.5 12.5C5.5 16.366 8.63401 19.5 12.5 19.5ZM19.4688 6.6875C20.1418 6.6875 20.6875 6.14185 20.6875 5.46875C20.6875 4.79565 20.1418 4.25 19.4688 4.25C18.7957 4.25 18.25 4.79565 18.25 5.46875C18.25 6.14185 18.7957 6.6875 19.4688 6.6875Z" fill="#211D38"/>
</g>
</svg>
