<svg width="25" height="25" viewBox="0 0 25 25" fill="none" xmlns="http://www.w3.org/2000/svg">
<g id="Icon linkedin">
<path id="Union" fill-rule="evenodd" clip-rule="evenodd" d="M19 1.7H6C3.62518 1.7 1.7 3.62518 1.7 6V19C1.7 21.3748 3.62518 23.3 6 23.3H19C21.3748 23.3 23.3 21.3748 23.3 19V6C23.3 3.62518 21.3748 1.7 19 1.7ZM6 0C2.68629 0 0 2.68629 0 6V19C0 22.3137 2.68629 25 6 25H19C22.3137 25 25 22.3137 25 19V6C25 2.68629 22.3137 0 19 0H6ZM9.95166 20.2498V8.80984H11.2717L11.4917 10.3498H11.6017C11.9683 9.73384 12.4377 9.28651 13.0097 9.00784C13.5963 8.72918 14.227 8.58984 14.9017 8.58984C15.7083 8.58984 16.4343 8.78051 17.0797 9.16184C17.7397 9.52851 18.253 10.0638 18.6197 10.7678C19.001 11.4718 19.1917 12.2858 19.1917 13.2098V20.2498H17.5417V13.2098C17.5417 12.2418 17.2777 11.4865 16.7497 10.9438C16.2217 10.4012 15.5323 10.1298 14.6817 10.1298C14.1097 10.1298 13.589 10.2692 13.1197 10.5478C12.6503 10.8265 12.2763 11.2078 11.9977 11.6918C11.7337 12.1612 11.6017 12.6672 11.6017 13.2098V20.2498H9.95166ZM5.66499 20.2502H7.31499V8.81016H5.66499V20.2502ZM5.64299 6.39016C5.87766 6.61016 6.15632 6.72016 6.47899 6.72016C6.80165 6.72016 7.07299 6.61016 7.29299 6.39016C7.51299 6.15549 7.62299 5.88416 7.62299 5.57616C7.62299 5.25349 7.51299 4.98216 7.29299 4.76216C7.07299 4.52749 6.80165 4.41016 6.47899 4.41016C6.15632 4.41016 5.87766 4.52749 5.64299 4.76216C5.42299 4.98216 5.31299 5.25349 5.31299 5.57616C5.31299 5.89882 5.42299 6.17016 5.64299 6.39016Z" fill="black"/>
</g>
</svg>
