<svg width="96" height="76" viewBox="0 0 96 76" fill="none" xmlns="http://www.w3.org/2000/svg">
<path fill-rule="evenodd" clip-rule="evenodd" d="M93.3096 32.1074C94.987 32.1074 95.9068 30.7348 95.738 29.0659C94.0764 12.6362 80.8283 0.25 64.1766 0.25C63.0196 0.25 61.2707 0.895758 61.2707 2.99447C61.2707 5.36225 62.9599 5.84657 64.1766 5.84657C77.4574 5.84657 88.5304 15.9496 90.1311 29.1323C90.3303 30.7726 91.6573 32.1074 93.3096 32.1074ZM82.6614 32.1074C84.362 32.1074 85.4406 30.6989 85.1595 29.0217C83.46 18.8806 74.7485 11.1589 64.2573 11.1589C63.3425 11.1589 61.2707 11.8467 61.2707 13.9724C61.2707 16.2863 63.3936 16.8244 64.2573 16.8244C71.4212 16.8244 78.0535 22.2786 79.5941 29.2059C79.9485 30.7996 81.0288 32.1074 82.6614 32.1074ZM0.757812 37.4896C0.757812 35.112 2.68525 33.1846 5.06286 33.1846H63.9345C66.3121 33.1846 68.2395 35.112 68.2395 37.4896V44.6716L80.7414 38.7597C81.8838 38.2195 83.1996 39.0527 83.1996 40.3164V68.8135C83.1996 70.0688 81.8995 70.9023 80.7587 70.3783L68.2395 64.6273V71.2843C68.2395 73.6619 66.3121 75.5893 63.9345 75.5893H5.06287C2.68525 75.5893 0.757812 73.6619 0.757812 71.2843V37.4896ZM46.732 57.5711C46.9995 57.8308 47.3329 57.9594 47.7098 57.9594H56.9561C57.3125 57.9594 57.6297 57.8416 57.8828 57.5983C58.1523 57.3544 58.292 57.0389 58.292 56.6748C58.292 56.313 58.1541 55.9992 57.8879 55.756C57.6374 55.4976 57.319 55.3678 56.9561 55.3678H49.1148V51.0868H56.126C56.4824 51.0868 56.7996 50.969 57.0527 50.7257C57.3222 50.4818 57.4619 50.1663 57.4619 49.8022C57.4619 49.4404 57.324 49.1266 57.0578 48.8834C56.8073 48.625 56.4889 48.4952 56.126 48.4952H49.1148V44.2366H56.9561C57.3125 44.2366 57.6297 44.1188 57.8828 43.8755C58.1523 43.6316 58.292 43.3161 58.292 42.952C58.292 42.5902 58.1541 42.2764 57.8879 42.0332C57.6374 41.7748 57.319 41.645 56.9561 41.645H47.7098C47.3269 41.645 46.9923 41.7855 46.7274 42.0602C46.4624 42.3196 46.3277 42.6465 46.3277 43.0192V56.6076C46.3277 56.9824 46.464 57.3109 46.732 57.5711ZM57.6478 56.0032C57.4634 55.8092 57.2328 55.7122 56.9561 55.7122H48.7704L48.7705 55.7125H56.9561C57.2328 55.7125 57.4634 55.8095 57.6479 56.0035C57.7116 56.0606 57.7652 56.1223 57.8086 56.1884C57.7652 56.1221 57.7116 56.0604 57.6478 56.0032ZM56.8178 49.1306C56.6333 48.9366 56.4027 48.8396 56.126 48.8396H48.7704L48.7705 48.8399H56.126C56.4027 48.8399 56.6333 48.937 56.8178 49.131C56.8822 49.1887 56.9363 49.251 56.9799 49.318C56.9363 49.2509 56.8822 49.1884 56.8178 49.1306ZM57.8029 42.4572C57.7605 42.3942 57.7089 42.3354 57.6479 42.2808C57.4634 42.0868 57.2328 41.9897 56.9561 41.9897H47.7098C47.4177 41.9897 47.1717 42.0942 46.9719 42.3032C46.7721 42.4972 46.6721 42.736 46.6721 43.0195V56.608L46.6721 56.6076V43.0192C46.6721 42.7356 46.772 42.4968 46.9719 42.3028C47.1717 42.0939 47.4177 41.9894 47.7098 41.9894H56.9561C57.2328 41.9894 57.4634 42.0864 57.6478 42.2804C57.7089 42.3352 57.7606 42.3941 57.8029 42.4572ZM11.1233 57.4979L11.1282 57.503L11.1334 57.5078C11.4746 57.8216 11.8858 57.9816 12.354 57.9816H20.5397C20.898 57.9816 21.2112 57.8602 21.4622 57.6183C21.7289 57.3762 21.8664 57.0701 21.8664 56.7159C21.8664 56.3632 21.7302 56.0583 21.4658 55.8168C21.217 55.5601 20.9029 55.4278 20.5397 55.4278H13.2657V43.0155C13.2657 42.6628 13.1294 42.3579 12.8651 42.1164C12.6163 41.8597 12.3022 41.7274 11.939 41.7274C11.5741 41.7274 11.2588 41.8609 11.0095 42.1199C10.7603 42.3635 10.6353 42.6676 10.6353 43.0155V56.3129C10.6353 56.7675 10.8001 57.1668 11.1233 57.4979ZM34.5974 56.9039L34.6013 56.9127C34.7758 57.2837 35.0005 57.5807 35.2844 57.7852C35.5714 57.992 35.9045 58.0935 36.273 58.0935H36.7803C37.1487 58.0935 37.4818 57.992 37.7689 57.7852C38.0527 57.5807 38.2776 57.2838 38.4521 56.9128L44.1514 43.4946L44.1544 43.4867C44.2123 43.3368 44.2405 43.1791 44.2405 43.0155C44.2405 42.6612 44.1291 42.3496 43.8932 42.1015C43.649 41.8446 43.3188 41.7274 42.9368 41.7274C42.6581 41.7274 42.4039 41.7982 42.1875 41.9497C41.9731 42.0997 41.8138 42.3162 41.6999 42.5798L36.5266 55.1041L31.3549 42.5835L31.3533 42.5798C31.2394 42.3162 31.0801 42.0997 30.8658 41.9497C30.6494 41.7982 30.3952 41.7274 30.1164 41.7274C29.7345 41.7274 29.4043 41.8446 29.16 42.1015C28.9242 42.3496 28.8128 42.6612 28.8128 43.0155C28.8128 43.1791 28.8408 43.3369 28.8987 43.4868L34.5974 56.9039ZM25.2245 58.0935C24.8645 58.0935 24.5501 57.9711 24.2985 57.7268C24.0469 57.4826 23.9208 57.1773 23.9208 56.8278V43.0155C23.9208 42.6676 24.0458 42.3635 24.295 42.1199C24.5443 41.8609 24.8596 41.7274 25.2245 41.7274C25.5877 41.7274 25.9018 41.8597 26.1506 42.1164C26.415 42.3579 26.5512 42.6628 26.5512 43.0155V56.8278C26.5512 57.1821 26.4137 57.4882 26.147 57.7302C25.896 57.9722 25.5828 58.0935 25.2245 58.0935ZM55.917 66.9497C55.3667 66.9497 54.8845 66.8292 54.4705 66.5881C54.0564 66.347 53.7341 66.0169 53.5035 65.5976C53.2729 65.1731 53.1576 64.6857 53.1576 64.1354C53.1576 63.7109 53.2284 63.3257 53.3699 62.9798C53.5114 62.6286 53.7053 62.3299 53.9516 62.0836C54.2032 61.832 54.4941 61.6407 54.8242 61.5097C55.1544 61.3734 55.5108 61.3053 55.8934 61.3053C56.3389 61.3053 56.7136 61.3603 57.0176 61.4704C57.3268 61.5804 57.6045 61.7141 57.8509 61.8713C57.8875 61.8923 57.9216 61.9263 57.9531 61.9735C57.9897 62.0207 58.0081 62.081 58.0081 62.1543C58.0081 62.2382 57.9793 62.3142 57.9216 62.3823C57.864 62.4452 57.7827 62.4766 57.6779 62.4766C57.6203 62.4766 57.5652 62.4635 57.5128 62.4373C57.2822 62.3011 57.0438 62.1936 56.7974 62.115C56.5511 62.0364 56.276 61.9971 55.972 61.9971C55.5789 61.9971 55.2225 62.081 54.9029 62.2487C54.5884 62.4111 54.3368 62.6522 54.1482 62.9719C53.9647 63.2864 53.873 63.6742 53.873 64.1354C53.873 64.5389 53.9569 64.9032 54.1246 65.2281C54.2923 65.5478 54.536 65.802 54.8557 65.9907C55.1754 66.1793 55.5606 66.2737 56.0113 66.2737C56.2891 66.2737 56.5433 66.2422 56.7739 66.1793C57.0045 66.1112 57.2088 66.0273 57.387 65.9278V64.5049H56.0899C56.0008 64.5049 55.9248 64.4734 55.8619 64.4105C55.799 64.3476 55.7676 64.2716 55.7676 64.1826C55.7676 64.0935 55.799 64.0175 55.8619 63.9546C55.9248 63.8917 56.0008 63.8602 56.0899 63.8602H57.6386C57.7434 63.8602 57.8325 63.8969 57.9059 63.9703C57.9793 64.0437 58.0159 64.1328 58.0159 64.2376V66.0221C58.0159 66.1322 57.9871 66.2317 57.9295 66.3208C57.8771 66.4047 57.8063 66.4676 57.7172 66.5095C57.4604 66.6405 57.18 66.748 56.876 66.8318C56.5773 66.9104 56.2576 66.9497 55.917 66.9497ZM47.2793 66.8076C47.3474 66.8757 47.4313 66.9098 47.5308 66.9098C47.6304 66.9098 47.7143 66.8757 47.7824 66.8076C47.8558 66.7395 47.8925 66.6556 47.8925 66.556V62.3031L50.9348 66.6975C50.982 66.7604 51.0422 66.8129 51.1156 66.8548C51.189 66.8915 51.2676 66.9098 51.3514 66.9098H51.4458C51.5873 66.9098 51.7078 66.86 51.8074 66.7604C51.9122 66.6609 51.9646 66.5403 51.9646 66.3988V61.7056C51.9646 61.606 51.9279 61.5222 51.8546 61.454C51.7864 61.3807 51.7026 61.344 51.603 61.344C51.5034 61.344 51.4196 61.3807 51.3514 61.454C51.2833 61.5222 51.2492 61.606 51.2492 61.7056V65.9507L48.2226 61.5798C48.1702 61.5064 48.1073 61.4488 48.034 61.4069C47.9606 61.3649 47.8793 61.344 47.7903 61.344H47.6881C47.5466 61.344 47.426 61.3964 47.3264 61.5012C47.2269 61.6008 47.1771 61.7213 47.1771 61.8628V66.556C47.1771 66.6556 47.2111 66.7395 47.2793 66.8076ZM45.2891 66.9098C45.1895 66.9098 45.1056 66.8757 45.0375 66.8076C44.9694 66.7395 44.9353 66.6556 44.9353 66.556V61.7056C44.9353 61.606 44.9694 61.5222 45.0375 61.454C45.1056 61.3807 45.1895 61.344 45.2891 61.344C45.3886 61.344 45.4725 61.3807 45.5406 61.454C45.614 61.5222 45.6507 61.606 45.6507 61.7056V66.556C45.6507 66.6556 45.614 66.7395 45.5406 66.8076C45.4725 66.8757 45.3886 66.9098 45.2891 66.9098ZM37.4447 66.8076C37.5128 66.8757 37.5967 66.9098 37.6963 66.9098C37.7958 66.9098 37.8797 66.8757 37.9478 66.8076C38.0212 66.7395 38.0579 66.6556 38.0579 66.556V62.0908L39.8739 66.5796C39.9158 66.6792 39.9813 66.7604 40.0704 66.8233C40.1595 66.881 40.2617 66.9098 40.377 66.9098C40.4923 66.9098 40.5945 66.881 40.6836 66.8233C40.7727 66.7604 40.8382 66.6792 40.8801 66.5796L42.6961 62.0908V66.556C42.6961 66.6556 42.7301 66.7395 42.7983 66.8076C42.8717 66.8757 42.9581 66.9098 43.0577 66.9098C43.1573 66.9098 43.2411 66.8757 43.3093 66.8076C43.3774 66.7395 43.4115 66.6556 43.4115 66.556V61.8628C43.4115 61.7213 43.3617 61.6008 43.2621 61.5012C43.1625 61.3964 43.042 61.344 42.9005 61.344H42.6411C42.5362 61.344 42.4393 61.3754 42.3502 61.4383C42.2663 61.5012 42.2034 61.5798 42.1615 61.6742L40.377 66.1237L38.5925 61.6742C38.5558 61.5798 38.4929 61.5012 38.4038 61.4383C38.3147 61.3754 38.2177 61.344 38.1129 61.344H37.8535C37.712 61.344 37.5914 61.3964 37.4919 61.5012C37.3923 61.6008 37.3425 61.7213 37.3425 61.8628V66.556C37.3425 66.6556 37.3766 66.7395 37.4447 66.8076ZM31.4614 66.9098C31.3513 66.9098 31.2649 66.8757 31.202 66.8076C31.1391 66.7395 31.1076 66.6556 31.1076 66.556C31.1076 66.5141 31.1207 66.4617 31.1469 66.3988L33.1516 61.6663C33.1883 61.5824 33.2433 61.5091 33.3167 61.4462C33.3953 61.378 33.4922 61.344 33.6075 61.344H33.6862C33.8067 61.344 33.9037 61.378 33.977 61.4462C34.0504 61.5091 34.1054 61.5824 34.1421 61.6663L36.1468 66.3988C36.173 66.4617 36.1861 66.5141 36.1861 66.556C36.1861 66.6556 36.1546 66.7395 36.0917 66.8076C36.0288 66.8757 35.9424 66.9098 35.8323 66.9098C35.6698 66.9098 35.5572 66.8364 35.4943 66.6897L34.9833 65.4633H32.3104L31.7994 66.6897C31.7365 66.8364 31.6239 66.9098 31.4614 66.9098ZM32.5856 64.8108H34.7081L33.6469 62.2559L32.5856 64.8108ZM26.4584 66.7694C26.5265 66.8375 26.6104 66.8716 26.71 66.8716H29.8624C29.9567 66.8716 30.0353 66.8401 30.0982 66.7772C30.1663 66.7143 30.2004 66.6357 30.2004 66.5414C30.2004 66.447 30.1663 66.3684 30.0982 66.3055C30.0353 66.2374 29.9567 66.2033 29.8624 66.2033H27.0716V64.4581H29.5794C29.6737 64.4581 29.7523 64.4267 29.8152 64.3638C29.8833 64.3009 29.9174 64.2223 29.9174 64.1279C29.9174 64.0336 29.8833 63.955 29.8152 63.8921C29.7523 63.824 29.6737 63.7899 29.5794 63.7899H27.0716V62.0526H29.8624C29.9567 62.0526 30.0353 62.0211 30.0982 61.9582C30.1663 61.8953 30.2004 61.8167 30.2004 61.7224C30.2004 61.628 30.1663 61.5494 30.0982 61.4865C30.0353 61.4184 29.9567 61.3843 29.8624 61.3843H26.71C26.6104 61.3843 26.5265 61.421 26.4584 61.4944C26.3903 61.5625 26.3562 61.6464 26.3562 61.746V66.5178C26.3562 66.6174 26.3903 66.7012 26.4584 66.7694ZM21.2209 66.9109C21.1213 66.9109 21.0374 66.8768 20.9693 66.8087C20.9012 66.7405 20.8671 66.6567 20.8671 66.5571V61.746C20.8671 61.6464 20.9012 61.5625 20.9693 61.4944C21.0374 61.421 21.1213 61.3843 21.2209 61.3843H23.0526C23.5505 61.3843 23.9566 61.4551 24.2711 61.5966C24.5855 61.7381 24.8161 61.9294 24.9629 62.1705C25.1149 62.4063 25.1909 62.6762 25.1909 62.9802C25.1909 63.2842 25.1044 63.5672 24.9314 63.8292C24.7637 64.0913 24.5069 64.2825 24.161 64.4031C24.3811 64.4607 24.5567 64.5656 24.6877 64.7175C24.8188 64.8643 24.9157 65.032 24.9786 65.2207C25.0467 65.4093 25.0913 65.5928 25.1122 65.771C25.1332 65.9439 25.1437 66.0854 25.1437 66.1955V66.5571C25.1437 66.6567 25.1096 66.7405 25.0415 66.8087C24.9734 66.8768 24.8895 66.9109 24.7899 66.9109C24.6799 66.9109 24.5908 66.8794 24.5226 66.8165C24.4597 66.7484 24.4283 66.6619 24.4283 66.5571V66.3213C24.4283 66.1902 24.4178 66.0356 24.3969 65.8574C24.3811 65.6792 24.3366 65.5037 24.2632 65.3307C24.1898 65.1578 24.0693 65.0163 23.9016 64.9062C23.7391 64.7909 23.5085 64.7333 23.2098 64.7333H21.5825V66.5571C21.5825 66.6567 21.5458 66.7405 21.4724 66.8087C21.4043 66.8768 21.3205 66.9109 21.2209 66.9109ZM21.5825 64.0572H23.0054C23.4456 64.0572 23.7994 63.9707 24.0667 63.7978C24.3392 63.6248 24.4755 63.3706 24.4755 63.0352C24.4755 62.8413 24.4309 62.671 24.3418 62.5242C24.2527 62.3775 24.0981 62.2648 23.878 62.1862C23.6579 62.1023 23.3539 62.0604 22.9661 62.0604H21.5825V64.0572ZM17.3445 66.8087C17.4127 66.8768 17.4965 66.9109 17.5961 66.9109C17.6957 66.9109 17.7795 66.8768 17.8477 66.8087C17.921 66.7405 17.9577 66.6567 17.9577 66.5571V62.0526H19.5536C19.6479 62.0526 19.7265 62.0211 19.7894 61.9582C19.8575 61.8953 19.8916 61.8167 19.8916 61.7224C19.8916 61.628 19.8575 61.5494 19.7894 61.4865C19.7265 61.4184 19.6479 61.3843 19.5536 61.3843H15.6386C15.5443 61.3843 15.4657 61.4184 15.4028 61.4865C15.3399 61.5494 15.3084 61.628 15.3084 61.7224C15.3084 61.8167 15.3399 61.8953 15.4028 61.9582C15.4657 62.0211 15.5443 62.0526 15.6386 62.0526H17.2423V66.5571C17.2423 66.6567 17.2764 66.7405 17.3445 66.8087ZM12.7152 66.9497C12.3222 66.9497 11.9684 66.9131 11.654 66.8397C11.3447 66.7611 11.0748 66.672 10.8442 66.5724C10.7866 66.5462 10.7342 66.5043 10.687 66.4466C10.6451 66.3837 10.6241 66.3182 10.6241 66.2501C10.6241 66.161 10.6529 66.085 10.7106 66.0221C10.7682 65.954 10.8469 65.9199 10.9464 65.9199C10.9988 65.9199 11.0486 65.9304 11.0958 65.9514C11.274 66.03 11.4915 66.1033 11.7483 66.1715C12.0103 66.2396 12.3091 66.2737 12.6445 66.2737C12.9065 66.2737 13.1397 66.2475 13.3441 66.1951C13.5538 66.1374 13.7189 66.0431 13.8394 65.912C13.9599 65.7758 14.0202 65.595 14.0202 65.3696C14.0202 65.2019 13.9599 65.0683 13.8394 64.9687C13.7189 64.8639 13.559 64.7774 13.3599 64.7093C13.1607 64.6411 12.9406 64.5782 12.6995 64.5206C12.4637 64.4629 12.2278 64.4 11.992 64.3319C11.7562 64.2585 11.5387 64.1642 11.3395 64.0489C11.1403 63.9336 10.9805 63.7869 10.86 63.6087C10.7394 63.4252 10.6791 63.1946 10.6791 62.9169C10.6791 62.6234 10.7551 62.3561 10.9071 62.115C11.0644 61.8687 11.295 61.6722 11.5989 61.5254C11.9029 61.3787 12.275 61.3053 12.7152 61.3053C13.0244 61.3053 13.3101 61.3289 13.5721 61.376C13.8342 61.4232 14.07 61.4861 14.2796 61.5647C14.3373 61.5857 14.3871 61.6198 14.429 61.6669C14.4762 61.7141 14.4998 61.7848 14.4998 61.8792C14.4998 61.9578 14.4709 62.0338 14.4133 62.1072C14.3609 62.1753 14.2849 62.2094 14.1853 62.2094C14.1643 62.2094 14.1434 62.2067 14.1224 62.2015C14.1015 62.191 14.0805 62.1831 14.0595 62.1779C13.8813 62.115 13.6848 62.0652 13.4699 62.0285C13.2603 61.9866 13.0349 61.9657 12.7938 61.9657C12.3955 61.9657 12.0627 62.0416 11.7955 62.1936C11.5282 62.3456 11.3945 62.5684 11.3945 62.8618C11.3945 63.0558 11.4548 63.2104 11.5753 63.3257C11.6959 63.441 11.8557 63.5327 12.0549 63.6008C12.254 63.6689 12.4715 63.7318 12.7074 63.7895C12.9432 63.8419 13.1791 63.9022 13.4149 63.9703C13.6507 64.0384 13.8682 64.1301 14.0674 64.2454C14.2665 64.3555 14.4264 64.5049 14.5469 64.6935C14.6675 64.877 14.7277 65.118 14.7277 65.4168C14.7277 65.7103 14.6439 65.9749 14.4762 66.2108C14.3137 66.4414 14.0805 66.6222 13.7765 66.7532C13.4778 66.8842 13.124 66.9497 12.7152 66.9497Z" fill="#2E2A46"/>
</svg>
