<?xml version="1.0" encoding="utf-8"?>
<!-- Generator: Adobe Illustrator 24.0.3, SVG Export Plug-In . SVG Version: 6.00 Build 0)  -->
<svg version="1.1" id="Layer_1" xmlns="http://www.w3.org/2000/svg" xmlns:xlink="http://www.w3.org/1999/xlink" x="0px" y="0px"
	 viewBox="0 0 101.1 85.3" style="enable-background:new 0 0 101.1 85.3;" xml:space="preserve">
<style type="text/css">
	.st0{fill:#FFFFFF;}
</style>
<title>OneTouch</title>
<polygon class="st0" points="98.8,65.7 98.8,69.6 93.3,69.6 93.3,65.7 91,65.7 91,75.7 93.3,75.7 93.3,71.7 98.8,71.7 98.8,75.7 
	101.1,75.7 101.1,65.7 "/>
<g>
	<path class="st0" d="M30.5,81.3c-0.3-0.1-0.6-0.2-0.9-0.2h-2.9v4.1h1v-1.4h1.9c0.3,0,0.6-0.1,0.9-0.2c0.2-0.1,0.5-0.2,0.6-0.5
		c0.1-0.2,0.2-0.5,0.2-0.7v-0.1c0-0.2-0.1-0.5-0.2-0.7C30.9,81.6,30.7,81.4,30.5,81.3z M30.2,82.5c0,0.1-0.1,0.3-0.2,0.4
		C29.9,83,29.7,83,29.5,83h-1.8v-1h1.8c0.1,0,0.3,0,0.4,0.1c0.1,0,0.2,0.1,0.2,0.2C30.2,82.3,30.2,82.4,30.2,82.5L30.2,82.5z"/>
	<path class="st0" d="M35.8,83.6c0.2-0.1,0.4-0.2,0.6-0.4c0.1-0.2,0.2-0.4,0.2-0.7v-0.1c0-0.2-0.1-0.5-0.2-0.7
		c-0.1-0.2-0.4-0.4-0.6-0.5c-0.3-0.1-0.6-0.2-0.9-0.2h-2.9v4.1h1.1v-1.5h1l1.4,1.5h1.2v-0.1l-1.4-1.3C35.4,83.7,35.6,83.7,35.8,83.6
		z M32.9,83v-1h1.8c0.1,0,0.3,0,0.4,0.1c0.1,0,0.2,0.1,0.2,0.2c0.1,0.1,0.1,0.2,0.1,0.3v0c0,0.1-0.1,0.3-0.2,0.4
		C35.1,83,35,83,34.8,83H32.9z"/>
	<path class="st0" d="M41.4,81.3c-0.9-0.3-2-0.3-2.9,0c-0.4,0.1-0.7,0.4-1,0.7c-0.2,0.3-0.4,0.7-0.3,1.1v0.1c0,0.4,0.1,0.8,0.3,1.1
		c0.3,0.3,0.6,0.6,1,0.7c0.9,0.3,2,0.3,2.9,0c0.4-0.1,0.7-0.4,1-0.7c0.2-0.3,0.3-0.7,0.3-1.1v-0.1c0-0.4-0.1-0.8-0.3-1.1
		C42.2,81.7,41.8,81.5,41.4,81.3z M41.6,83.2c0,0.2-0.1,0.5-0.2,0.7c-0.1,0.2-0.3,0.3-0.6,0.4c-0.3,0.1-0.6,0.1-0.9,0.1
		c-0.3,0-0.6,0-0.9-0.1c-0.2-0.1-0.4-0.2-0.6-0.4c-0.1-0.2-0.2-0.4-0.2-0.7v-0.1c0-0.2,0.1-0.5,0.2-0.7c0.1-0.2,0.3-0.3,0.6-0.4
		c0.6-0.2,1.2-0.2,1.8,0c0.2,0.1,0.4,0.2,0.6,0.4C41.6,82.7,41.6,82.9,41.6,83.2L41.6,83.2z"/>
	<path class="st0" d="M47.2,81.4c-0.5-0.2-0.9-0.2-1.4-0.2h-2.3v4.1h2.3c0.5,0,1-0.1,1.5-0.2c0.4-0.1,0.7-0.4,0.9-0.7
		c0.2-0.3,0.3-0.7,0.3-1.1v-0.1c0-0.4-0.1-0.8-0.3-1.1C47.8,81.8,47.5,81.5,47.2,81.4z M46.9,84.1c-0.4,0.2-0.8,0.3-1.2,0.3h-1.2V82
		h1.2c0.3,0,0.6,0,0.9,0.1c0.2,0.1,0.4,0.2,0.5,0.4c0.1,0.2,0.2,0.4,0.2,0.7l0,0.1C47.3,83.6,47.1,83.9,46.9,84.1z"/>
	<path class="st0" d="M52.6,83.4c0,0.2,0,0.4-0.1,0.6c-0.1,0.2-0.3,0.3-0.4,0.4c-0.2,0.1-0.4,0.1-0.7,0.1c-0.2,0-0.5,0-0.7-0.1
		c-0.2-0.1-0.3-0.2-0.4-0.4c-0.1-0.2-0.1-0.4-0.1-0.6v-2.2h-1v2.2c0,0.7,0.4,1.4,1.1,1.7c0.8,0.3,1.6,0.3,2.4,0
		c0.7-0.3,1.1-0.9,1.1-1.7v-2.2h-1.1L52.6,83.4z"/>
	<path class="st0" d="M58.5,81.3c-0.4-0.2-0.9-0.2-1.4-0.2c-0.5,0-1,0.1-1.5,0.2c-0.4,0.1-0.7,0.4-1,0.7c-0.2,0.3-0.3,0.7-0.3,1.1
		v0.1c0,0.4,0.1,0.8,0.3,1.1c0.3,0.3,0.6,0.6,1,0.7c0.5,0.2,1,0.3,1.5,0.2c0.5,0,0.9-0.1,1.4-0.2c0.4-0.1,0.7-0.3,1-0.6
		c0.2-0.2,0.3-0.6,0.3-0.9h-1.1c0,0.2-0.1,0.3-0.2,0.4c-0.2,0.1-0.4,0.2-0.6,0.3c-0.3,0.1-0.6,0.1-0.9,0.1c-0.3,0-0.6,0-0.9-0.1
		c-0.2-0.1-0.4-0.2-0.6-0.4c-0.1-0.2-0.2-0.4-0.2-0.7v-0.1c0-0.2,0.1-0.5,0.2-0.7c0.1-0.2,0.3-0.3,0.6-0.4c0.3-0.1,0.6-0.2,0.9-0.1
		c0.3,0,0.6,0,0.9,0.1c0.2,0.1,0.4,0.2,0.6,0.3c0.1,0.1,0.2,0.3,0.2,0.5v0h1.1v0c0-0.3-0.1-0.6-0.4-0.9
		C59.2,81.6,58.8,81.4,58.5,81.3z"/>
	<polygon class="st0" points="60,82 61.8,82 61.8,85.2 62.8,85.2 62.8,82 64.6,82 64.6,81.2 60,81.2 	"/>
	<rect x="65.3" y="81.2" class="st0" width="1.1" height="4.1"/>
	<path class="st0" d="M71.4,81.3c-0.5-0.2-0.9-0.3-1.4-0.2c-0.5,0-1,0.1-1.5,0.2c-0.4,0.1-0.7,0.4-1,0.7c-0.2,0.3-0.4,0.7-0.3,1.1
		v0.1c0,0.4,0.1,0.8,0.3,1.1c0.3,0.3,0.6,0.6,1,0.7c0.9,0.3,2,0.3,2.9,0c0.4-0.1,0.7-0.4,1-0.7c0.2-0.3,0.3-0.7,0.3-1.1v-0.1
		c0-0.4-0.1-0.8-0.3-1.1C72.2,81.7,71.8,81.5,71.4,81.3z M71.6,83.2c0,0.2-0.1,0.5-0.2,0.7c-0.1,0.2-0.3,0.3-0.6,0.4
		c-0.3,0.1-0.6,0.1-0.9,0.1c-0.3,0-0.6,0-0.9-0.1c-0.2-0.1-0.4-0.2-0.6-0.4c-0.1-0.2-0.2-0.4-0.2-0.7v-0.1c0-0.2,0.1-0.5,0.2-0.7
		c0.1-0.2,0.3-0.3,0.6-0.4c0.6-0.2,1.2-0.2,1.8,0c0.2,0.1,0.4,0.2,0.6,0.4C71.6,82.7,71.6,82.9,71.6,83.2L71.6,83.2z"/>
	<polygon class="st0" points="77.2,81.2 77.2,83.9 74.6,81.2 73.5,81.2 73.5,85.2 74.6,85.2 74.6,82.5 77.2,85.2 78.2,85.2 
		78.2,81.2 	"/>
</g>
<path class="st0" d="M9.1,66.1c-1-0.4-2.1-0.6-3.1-0.6c-1.1,0-2.2,0.2-3.1,0.6c-0.9,0.4-1.6,1-2.1,1.8C0.2,68.7,0,69.7,0,70.6v0.2
	c0,0.9,0.2,1.9,0.7,2.7c0.5,0.8,1.2,1.4,2.1,1.8c2,0.8,4.3,0.8,6.3,0c0.8-0.4,1.6-1,2.1-1.8c0.5-0.8,0.8-1.7,0.7-2.7v-0.1
	c0-1-0.2-1.9-0.7-2.7C10.7,67.1,9.9,66.5,9.1,66.1z M9.6,70.8c0,0.6-0.1,1.1-0.4,1.6c-0.3,0.5-0.7,0.8-1.2,1c-1.3,0.5-2.7,0.5-4,0
	c-0.5-0.2-0.9-0.5-1.2-1c-0.3-0.5-0.4-1-0.4-1.6v-0.2c0-0.6,0.1-1.1,0.4-1.6c0.3-0.4,0.7-0.8,1.2-1c1.3-0.5,2.7-0.5,3.9,0
	c0.5,0.2,0.9,0.6,1.2,1c0.3,0.5,0.4,1.1,0.4,1.6L9.6,70.8z"/>
<polygon class="st0" points="21.3,72.4 15.6,65.7 13.4,65.7 13.4,75.7 15.6,75.7 15.6,68.9 21.3,75.7 23.5,75.7 23.5,65.7 
	21.3,65.7 "/>
<polygon class="st0" points="35.1,73.7 27.4,73.7 27.4,71.7 33.7,71.7 33.7,69.7 27.4,69.7 27.4,67.7 34.7,67.7 34.7,65.7 
	25.2,65.7 25.2,75.7 35.1,75.7 "/>
<polygon class="st0" points="49.5,75.7 49.5,67.7 53.4,67.7 53.4,65.7 43.3,65.7 43.3,67.7 47.2,67.7 47.2,75.7 "/>
<path class="st0" d="M62.9,66.1c-1-0.4-2.1-0.6-3.1-0.6c-1.1,0-2.2,0.2-3.1,0.6c-0.9,0.4-1.6,1-2.1,1.8c-0.5,0.8-0.7,1.7-0.7,2.7
	v0.2c0,0.9,0.2,1.9,0.7,2.7c0.5,0.8,1.2,1.4,2.1,1.8c2,0.8,4.3,0.8,6.3,0c0.8-0.4,1.6-1,2.1-1.8c0.5-0.8,0.8-1.7,0.7-2.7v-0.1
	c0-1-0.2-1.9-0.7-2.7C64.5,67.1,63.8,66.5,62.9,66.1z M63.4,70.8c0,0.6-0.1,1.1-0.4,1.6c-0.3,0.5-0.7,0.8-1.2,1
	c-1.3,0.5-2.7,0.5-4,0c-0.5-0.2-0.9-0.5-1.2-1c-0.3-0.5-0.4-1-0.4-1.6v-0.2c0-0.6,0.1-1.1,0.4-1.6c0.3-0.5,0.7-0.8,1.2-1
	c0.6-0.3,1.3-0.4,2-0.4c0.7,0,1.4,0.1,2,0.4c0.5,0.2,0.9,0.6,1.2,1c0.3,0.5,0.4,1.1,0.4,1.6L63.4,70.8z"/>
<path class="st0" d="M74.9,71.2c0,0.5-0.1,1-0.3,1.4c-0.2,0.4-0.5,0.7-0.9,0.9c-0.5,0.2-1,0.3-1.5,0.3c-0.5,0-1-0.1-1.5-0.3
	c-0.4-0.2-0.7-0.5-0.9-0.9c-0.2-0.4-0.3-0.9-0.3-1.4v-5.5h-2.3v5.5c0,0.9,0.2,1.7,0.6,2.5c0.4,0.7,1,1.3,1.8,1.6
	c1.7,0.8,3.6,0.8,5.2,0c0.7-0.4,1.3-0.9,1.8-1.6c0.4-0.8,0.6-1.6,0.6-2.5v-5.5h-2.3L74.9,71.2z"/>
<path class="st0" d="M87.7,72.8c-0.4,0.3-0.8,0.6-1.2,0.7c-0.6,0.2-1.2,0.3-1.9,0.3c-0.7,0-1.4-0.1-2-0.3c-0.5-0.2-0.9-0.5-1.2-1
	c-0.3-0.5-0.4-1.1-0.4-1.6v-0.2c0-0.6,0.1-1.1,0.4-1.6c0.3-0.5,0.7-0.8,1.2-1c1.3-0.4,2.6-0.5,3.9-0.1c0.5,0.1,0.9,0.4,1.2,0.7
	c0.1,0.1,0.2,0.2,0.3,0.3l1.7-1.4c-0.5-0.6-1.2-1.1-2-1.5c-1-0.4-2-0.6-3-0.5c-1.1,0-2.2,0.2-3.2,0.6c-0.9,0.4-1.6,1-2.1,1.8
	c-0.5,0.8-0.8,1.7-0.7,2.7v0.1c0,0.9,0.2,1.9,0.7,2.7c0.5,0.8,1.2,1.4,2.1,1.8c1,0.4,2.1,0.7,3.2,0.6c1,0,2-0.2,3-0.5
	c0.8-0.3,1.5-0.9,2-1.5c0.1-0.2,0.2-0.4,0.4-0.5L88.3,72C88.2,72.3,88,72.5,87.7,72.8z"/>
<g>
	<path class="st0" d="M52.4,2.2c5.5,0,7.3,0,7.3-0.4c0-1-3.3-1.7-7.3-1.8c-4,0-7.3,0.8-7.3,1.8C45.1,2.2,47,2.2,52.4,2.2z"/>
	<path class="st0" d="M81.1,28.3c0-2.8-8.1-5.6-19.4-6.6c9.9,0.7,16.9,2,16.9-0.2c0-1.8-4.5-4.7-11.2-6.7c5.8,0.6,8.4,1.2,8.4,0.2
		c0-2.2-8.8-6.3-20.3-7c8.4,0.2,14.7,1.3,14.7,0.5c0-1-8-4.9-17.8-5c-9.8,0-17.8,4-17.8,5c0,0.8,6.4-0.2,14.7-0.5
		c-11.5,0.6-20.3,4.7-20.3,7c0,1,2.6,0.4,8.4-0.2c-6.8,2-11.2,5-11.2,6.7c0,2.2,7,0.9,16.9,0.2c-11.3,1-19.4,3.9-19.4,6.6
		s7.5,5.5,18,6.7c-9.2-0.7-15.6-1.8-15.6,0.3c0,1.8,4.4,4.7,11.2,6.7c-5.8-0.6-8.4-1.2-8.4-0.2c0,2.2,8.8,6.3,20.3,7
		c-8.4-0.2-14.7-1.2-14.7-0.5c0,1,8,4.9,17.8,4.9c9.8,0,17.8-3.9,17.8-4.9c0-0.8-6.4,0.2-14.7,0.5c11.5-0.6,20.3-4.7,20.3-7
		c0-1-2.6-0.4-8.4,0.2c6.8-2,11.2-5,11.2-6.7c0-2.1-6.4-1-15.6-0.3C73.6,33.8,81.1,31,81.1,28.3z"/>
	<path class="st0" d="M52.4,54.6c-5.4,0-7.3,0-7.3,0.4c0,1,3.3,1.7,7.3,1.8c4,0,7.3-0.8,7.3-1.8C59.7,54.6,57.9,54.6,52.4,54.6z"/>
</g>
</svg>
