<svg width="102" height="79" viewBox="0 0 102 79" fill="none" xmlns="http://www.w3.org/2000/svg">
<path fill-rule="evenodd" clip-rule="evenodd" d="M68.5555 8.08598C69.5241 9.01255 69.6775 10.324 68.6582 11.1946C67.654 12.0521 66.1549 11.9296 65.1826 11.0362C57.3682 3.85576 45.3958 3.46273 37.325 10.3551C36.5856 10.9866 35.3077 11.5689 34.0789 10.13C32.9897 8.85462 33.7174 7.55454 34.4205 6.9541C44.5398 -1.68776 59.019 -1.03608 68.5555 8.08598ZM62.1038 13.5487C63.145 14.4221 63.2206 15.8378 62.1871 16.7204C61.1949 17.5677 59.8597 17.3336 58.8172 16.549C54.2859 13.1388 47.4248 13.2663 43.0713 16.9842C42.5464 17.4324 40.977 18.2072 39.7761 16.801C38.6729 15.5092 39.575 14.016 40.131 13.5413C46.5065 8.09657 55.808 8.26799 62.1038 13.5487ZM72.7767 54.1838C72.7767 51.6517 70.7216 49.5966 68.1895 49.5966C67.8775 49.5966 67.5656 49.6333 67.272 49.6883V49.3027C67.272 46.7706 65.2169 44.7156 62.6848 44.7156C62.2628 44.7156 61.8408 44.7706 61.4554 44.8807C60.7765 43.1743 59.1251 41.9633 57.1802 41.9633C56.8648 41.9633 55.9617 42.1124 55.5746 42.2199V36.8672C55.5746 33.9429 54.1841 31.9647 51.3601 31.9647C48.828 31.9647 47.0883 34.0197 47.0883 36.5518V55.7879C46.4645 55.2191 45.6938 54.7971 44.8498 54.5769L43.4369 54.1916C41.914 53.7696 40.3176 54.3567 39.4185 55.7145C38.7213 56.7604 38.6846 58.1182 39.1433 59.2925L43.4369 69.6001C45.7489 75.435 51.804 78.2888 58.0976 78.2888C66.2078 78.2888 72.7767 71.4722 72.7767 63.362V54.1838ZM60.3912 31.0414C60.3912 33.8357 59.1574 36.3417 57.2049 38.0446V36.2378C57.2049 32.1869 55.2787 29.4466 51.3669 29.4466C47.8593 29.4466 45.4494 32.2933 45.4494 35.8009V38.4131C43.2383 36.7151 41.813 34.0447 41.813 31.0414C41.813 25.9112 45.9719 21.7524 51.1021 21.7524C56.2323 21.7524 60.3912 25.9112 60.3912 31.0414ZM17.4619 26.6746C16.3573 26.6746 15.4619 25.7791 15.4619 24.6746V23.0056C15.4619 21.3761 13.6177 20.4305 12.2946 21.3815L1.31174 29.2754C0.172254 30.0944 0.208492 31.8016 1.38171 32.5715L12.3646 39.779C13.6946 40.6518 15.4619 39.6977 15.4619 38.1069V36.5874C15.4619 35.4829 16.3573 34.5874 17.4619 34.5874H34.1043C35.2089 34.5874 36.1043 33.692 36.1043 32.5874V28.6746C36.1043 27.57 35.2089 26.6746 34.1043 26.6746H17.4619ZM86.5383 36.4409C86.5383 35.3364 85.6428 34.4409 84.5383 34.4409L67.8958 34.4409C66.7913 34.4409 65.8958 33.5455 65.8958 32.4409V28.5281C65.8958 27.4235 66.7913 26.5281 67.8958 26.5281L84.5383 26.5281C85.6428 26.5281 86.5383 25.6326 86.5383 24.5281V23.0086C86.5383 21.4178 88.3056 20.4637 89.6356 21.3365L100.618 28.544C101.792 29.3139 101.828 31.0211 100.688 31.8401L89.7055 39.734C88.3824 40.685 86.5383 39.7394 86.5383 38.1099V36.4409Z" fill="#2E2A46"/>
</svg>
