<svg width="458" height="309" viewBox="0 0 458 309" fill="none" xmlns="http://www.w3.org/2000/svg">
<rect x="78.7155" y="46.9531" width="66.8209" height="19.6532" rx="4.40297" fill="#947CF7"/>
<rect x="168.594" y="46.9541" width="178.713" height="19.6532" rx="4.40297" fill="#947CF7"/>
<rect x="5.21252" y="296.037" width="239.519" height="29.4798" rx="4.40297" transform="rotate(-90 5.21252 296.037)" fill="#947CF7"/>
<path d="M146.296 56.3166C146.124 56.4885 146.124 56.7673 146.296 56.9393L149.098 59.7413C149.27 59.9132 149.549 59.9132 149.721 59.7413C149.893 59.5694 149.893 59.2906 149.721 59.1186L147.23 56.6279L149.721 54.1372C149.893 53.9653 149.893 53.6865 149.721 53.5146C149.549 53.3426 149.27 53.3426 149.098 53.5146L146.296 56.3166ZM159.163 56.1876H146.608V57.0682H159.163V56.1876Z" fill="#E0E0E0"/>
<path d="M168.122 56.9393C168.294 56.7673 168.294 56.4885 168.122 56.3166L165.32 53.5146C165.148 53.3426 164.869 53.3426 164.697 53.5146C164.525 53.6865 164.525 53.9653 164.697 54.1372L167.188 56.6279L164.697 59.1186C164.525 59.2906 164.525 59.5694 164.697 59.7413C164.869 59.9132 165.148 59.9132 165.32 59.7413L168.122 56.9393ZM155.255 57.0682H167.81V56.1876H155.255V57.0682Z" fill="#E0E0E0"/>
<path d="M41.7413 54.2199C41.5694 54.3919 41.5694 54.6706 41.7413 54.8426L44.5434 57.6446C44.7153 57.8166 44.9941 57.8166 45.1661 57.6446C45.338 57.4727 45.338 57.1939 45.1661 57.0219L42.6754 54.5312L45.1661 52.0406C45.338 51.8686 45.338 51.5898 45.1661 51.4179C44.9941 51.2459 44.7153 51.2459 44.5434 51.4179L41.7413 54.2199ZM68.7578 54.091H42.0527V54.9715H68.7578V54.091Z" fill="#E0E0E0"/>
<path d="M68.8079 61.1317C68.9798 60.9597 68.9798 60.6809 68.8079 60.509L66.0058 57.7069C65.8339 57.535 65.5551 57.535 65.3832 57.7069C65.2112 57.8789 65.2112 58.1577 65.3832 58.3296L67.8739 60.8203L65.3832 63.311C65.2112 63.483 65.2112 63.7617 65.3832 63.9337C65.5551 64.1056 65.8339 64.1056 66.0058 63.9337L68.8079 61.1317ZM41.2433 61.2606L68.4965 61.2606L68.4965 60.38L41.2433 60.38L41.2433 61.2606Z" fill="#E0E0E0"/>
<rect x="78.7155" y="74.7305" width="66.8209" height="19.6532" rx="4.40297" fill="#947CF7"/>
<rect x="78.7155" y="111.678" width="66.8209" height="19.6532" rx="4.40297" fill="#947CF7"/>
<rect x="168.596" y="74.7305" width="178.713" height="19.6532" rx="4.40297" fill="#947CF7"/>
<path d="M336.859 91.5244V90.1436L340.669 86.5808C340.882 86.3917 341.047 86.2027 341.162 86.0137C341.277 85.8164 341.334 85.6068 341.334 85.3849C341.334 84.9822 341.215 84.6781 340.977 84.4726C340.739 84.2589 340.381 84.1521 339.904 84.1521C339.502 84.1521 339.165 84.263 338.893 84.4849C338.63 84.7069 338.466 84.9986 338.4 85.3603H336.859C336.974 84.5466 337.295 83.9137 337.821 83.4617C338.347 83.0014 339.041 82.7713 339.904 82.7713C340.874 82.7713 341.618 83.0055 342.136 83.474C342.654 83.9343 342.912 84.5466 342.912 85.3109C342.912 86.0424 342.534 86.7575 341.778 87.4561L338.918 90.1436H343.036V91.5244H336.859Z" fill="#947CF7"/>
<path d="M146.296 84.0939C146.124 84.2659 146.124 84.5447 146.296 84.7166L149.098 87.5186C149.27 87.6906 149.549 87.6906 149.721 87.5186C149.893 87.3467 149.893 87.0679 149.721 86.896L147.23 84.4053L149.721 81.9146C149.893 81.7426 149.893 81.4638 149.721 81.2919C149.549 81.12 149.27 81.12 149.098 81.2919L146.296 84.0939ZM159.163 83.965H146.608V84.8456H159.163V83.965Z" fill="#E0E0E0"/>
<path d="M168.122 84.7166C168.294 84.5447 168.294 84.2659 168.122 84.0939L165.32 81.2919C165.148 81.12 164.869 81.12 164.697 81.2919C164.525 81.4638 164.525 81.7426 164.697 81.9146L167.188 84.4053L164.697 86.896C164.525 87.0679 164.525 87.3467 164.697 87.5186C164.869 87.6906 165.148 87.6906 165.32 87.5186L168.122 84.7166ZM155.255 84.8456H167.81V83.965H155.255V84.8456Z" fill="#E0E0E0"/>
<path d="M41.7413 81.9973C41.5694 82.1692 41.5694 82.448 41.7413 82.6199L44.5434 85.422C44.7153 85.5939 44.9941 85.5939 45.1661 85.422C45.338 85.25 45.338 84.9712 45.1661 84.7993L42.6754 82.3086L45.1661 79.8179C45.338 79.6459 45.338 79.3672 45.1661 79.1952C44.9941 79.0233 44.7153 79.0233 44.5434 79.1952L41.7413 81.9973ZM68.7578 81.8683H42.0527V82.7489H68.7578V81.8683Z" fill="#E0E0E0"/>
<path d="M68.8079 88.908C68.9798 88.7361 68.9798 88.4573 68.8079 88.2853L66.0058 85.4833C65.8339 85.3114 65.5551 85.3114 65.3832 85.4833C65.2112 85.6553 65.2112 85.934 65.3832 86.106L67.8739 88.5967L65.3832 91.0874C65.2112 91.2593 65.2112 91.5381 65.3832 91.7101C65.5551 91.882 65.8339 91.882 66.0058 91.7101L68.8079 88.908ZM41.2433 89.037L68.4965 89.037L68.4965 88.1564L41.2433 88.1564L41.2433 89.037Z" fill="#E0E0E0"/>
<rect x="69.9424" y="45.137" width="286.14" height="23.3111" stroke="#E0E0E0" stroke-width="1.32089" stroke-dasharray="5.28 5.28"/>
<rect x="69.9424" y="1.37529" width="286.14" height="23.3111" stroke="#E0E0E0" stroke-width="1.32089" stroke-dasharray="5.28 5.28"/>
<rect x="0.763107" y="45.137" width="39.8198" height="262.818" stroke="#E0E0E0" stroke-width="1.32089" stroke-dasharray="5.28 5.28"/>
<path d="M427.757 120.992L426.97 222.665" stroke="#E0E0E0" stroke-width="1.32089" stroke-dasharray="5.28 5.28"/>
<path d="M383.995 194.103H363.818" stroke="#E0E0E0" stroke-width="1.32089" stroke-dasharray="5.28 5.28"/>
<path d="M240.658 102.912H180.65" stroke="#E0E0E0" stroke-width="1.32089" stroke-dasharray="5.28 5.28"/>
<path d="M383.995 284.77H363.818" stroke="#E0E0E0" stroke-width="1.32089" stroke-dasharray="5.28 5.28"/>
<path d="M426.97 246.511L426.97 302.85" stroke="#E0E0E0" stroke-width="1.32089" stroke-dasharray="5.28 5.28"/>
<rect x="69.9424" y="72.9134" width="286.14" height="23.3111" stroke="#E0E0E0" stroke-width="1.32089" stroke-dasharray="5.28 5.28"/>
<rect x="168.596" y="111.678" width="178.713" height="19.6532" rx="4.40297" fill="#947CF7"/>
<path d="M339.001 128.479V122.266H337.3V120.885H338.545C338.701 120.885 338.82 120.844 338.902 120.762C338.993 120.672 339.038 120.548 339.038 120.392V119.85H340.542V128.479H339.001ZM339.188 138.603C338.465 138.603 337.828 138.438 337.277 138.11C336.734 137.773 336.311 137.271 336.007 136.606C335.711 135.94 335.563 135.126 335.563 134.165C335.563 133.219 335.711 132.414 336.007 131.748C336.303 131.082 336.722 130.581 337.265 130.244C337.807 129.899 338.448 129.726 339.188 129.726C339.911 129.726 340.544 129.895 341.086 130.232C341.637 130.561 342.06 131.058 342.356 131.724C342.66 132.389 342.812 133.203 342.812 134.165C342.812 135.11 342.664 135.915 342.368 136.581C342.073 137.247 341.653 137.752 341.111 138.097C340.569 138.434 339.927 138.603 339.188 138.603ZM339.188 137.222C339.804 137.222 340.306 136.959 340.692 136.433C341.078 135.899 341.271 135.143 341.271 134.165C341.271 133.491 341.177 132.928 340.988 132.476C340.807 132.015 340.56 131.674 340.248 131.452C339.936 131.222 339.582 131.107 339.188 131.107C338.785 131.107 338.428 131.226 338.115 131.465C337.803 131.695 337.556 132.04 337.376 132.5C337.195 132.961 337.104 133.515 337.104 134.165C337.104 134.839 337.195 135.406 337.376 135.866C337.565 136.318 337.815 136.659 338.128 136.889C338.448 137.111 338.801 137.222 339.188 137.222Z" fill="#947CF7"/>
<rect x="78.9775" y="160.942" width="270.428" height="47.5733" rx="4.40297" fill="#947CF7"/>
<rect x="78.9775" y="246.631" width="270.428" height="47.5733" rx="4.40297" fill="#947CF7"/>
<path d="M146.296 121.041C146.124 121.213 146.124 121.492 146.296 121.664L149.098 124.466C149.27 124.638 149.549 124.638 149.721 124.466C149.893 124.294 149.893 124.015 149.721 123.843L147.23 121.353L149.721 118.862C149.893 118.69 149.893 118.411 149.721 118.239C149.549 118.067 149.27 118.067 149.098 118.239L146.296 121.041ZM159.163 120.912H146.608V121.793H159.163V120.912Z" fill="#E0E0E0"/>
<path d="M187.786 220.892C187.614 220.72 187.335 220.72 187.163 220.892L184.361 223.694C184.189 223.866 184.189 224.144 184.361 224.316C184.533 224.488 184.812 224.488 184.984 224.316L187.474 221.826L189.965 224.316C190.137 224.488 190.416 224.488 190.588 224.316C190.76 224.144 190.76 223.866 190.588 223.694L187.786 220.892ZM187.915 233.758L187.915 221.203L187.034 221.203L187.034 233.758L187.915 233.758Z" fill="#E0E0E0"/>
<path d="M239.31 234.069C239.482 234.241 239.76 234.241 239.932 234.069L242.734 231.267C242.906 231.095 242.906 230.817 242.734 230.645C242.563 230.473 242.284 230.473 242.112 230.645L239.621 233.135L237.13 230.645C236.958 230.473 236.68 230.473 236.508 230.645C236.336 230.817 236.336 231.095 236.508 231.267L239.31 234.069ZM239.181 221.203L239.181 233.758L240.061 233.758L240.061 221.203L239.181 221.203Z" fill="#E0E0E0"/>
<path d="M168.122 121.664C168.294 121.492 168.294 121.213 168.122 121.041L165.32 118.239C165.148 118.067 164.869 118.067 164.697 118.239C164.525 118.411 164.525 118.69 164.697 118.862L167.188 121.353L164.697 123.843C164.525 124.015 164.525 124.294 164.697 124.466C164.869 124.638 165.148 124.638 165.32 124.466L168.122 121.664ZM155.255 121.793H167.81V120.912H155.255V121.793Z" fill="#E0E0E0"/>
<path d="M424.399 174.335C424.571 174.163 424.571 173.884 424.399 173.712L421.597 170.91C421.425 170.738 421.147 170.738 420.975 170.91C420.803 171.082 420.803 171.361 420.975 171.533L423.465 174.023L420.975 176.514C420.803 176.686 420.803 176.965 420.975 177.137C421.147 177.309 421.425 177.309 421.597 177.137L424.399 174.335ZM349.691 174.464H424.088V173.583H349.691V174.464Z" fill="#E0E0E0"/>
<path d="M424.399 182.196C424.571 182.024 424.571 181.745 424.399 181.573L421.597 178.771C421.425 178.599 421.147 178.599 420.975 178.771C420.803 178.943 420.803 179.222 420.975 179.394L423.465 181.885L420.975 184.375C420.803 184.547 420.803 184.826 420.975 184.998C421.147 185.17 421.425 185.17 421.597 184.998L424.399 182.196ZM349.691 182.325H424.088V181.444H349.691V182.325Z" fill="#E0E0E0"/>
<path d="M424.399 190.319C424.571 190.147 424.571 189.868 424.399 189.696L421.597 186.894C421.425 186.722 421.147 186.722 420.975 186.894C420.803 187.066 420.803 187.345 420.975 187.517L423.465 190.008L420.975 192.499C420.803 192.67 420.803 192.949 420.975 193.121C421.147 193.293 421.425 193.293 421.597 193.121L424.399 190.319ZM349.691 190.448H424.088V189.568H349.691V190.448Z" fill="#E0E0E0"/>
<path d="M350.143 280.363C349.971 280.535 349.971 280.814 350.143 280.986L352.945 283.788C353.116 283.96 353.395 283.96 353.567 283.788C353.739 283.616 353.739 283.337 353.567 283.165L351.077 280.675L353.567 278.184C353.739 278.012 353.739 277.733 353.567 277.561C353.395 277.389 353.116 277.389 352.945 277.561L350.143 280.363ZM424.088 280.235L350.454 280.235L350.454 281.115L424.088 281.115L424.088 280.235Z" fill="#E0E0E0"/>
<path d="M350.143 289.011C349.971 289.183 349.971 289.462 350.143 289.634L352.945 292.436C353.116 292.608 353.395 292.608 353.567 292.436C353.739 292.264 353.739 291.985 353.567 291.813L351.077 289.322L353.567 286.832C353.739 286.66 353.739 286.381 353.567 286.209C353.395 286.037 353.116 286.037 352.945 286.209L350.143 289.011ZM424.088 288.882L350.454 288.882L350.454 289.763L424.088 289.763L424.088 288.882Z" fill="#E0E0E0"/>
<path d="M350.143 272.502C349.971 272.674 349.971 272.953 350.143 273.125L352.945 275.927C353.116 276.099 353.395 276.099 353.567 275.927C353.739 275.755 353.739 275.476 353.567 275.304L351.077 272.813L353.567 270.323C353.739 270.151 353.739 269.872 353.567 269.7C353.395 269.528 353.116 269.528 352.945 269.7L350.143 272.502ZM424.088 272.373L350.454 272.373L350.454 273.254L424.088 273.254L424.088 272.373Z" fill="#E0E0E0"/>
<path d="M350.143 264.379C349.971 264.551 349.971 264.83 350.143 265.002L352.945 267.804C353.116 267.976 353.395 267.976 353.567 267.804C353.739 267.632 353.739 267.353 353.567 267.181L351.077 264.69L353.567 262.2C353.739 262.028 353.739 261.749 353.567 261.577C353.395 261.405 353.116 261.405 352.945 261.577L350.143 264.379ZM424.088 264.25L350.454 264.25L350.454 265.131L424.088 265.131L424.088 264.25Z" fill="#E0E0E0"/>
<path d="M390.284 242.057L390.284 242.497L390.725 242.497L390.725 242.057L390.284 242.057ZM357.765 241.745C357.593 241.917 357.593 242.196 357.765 242.368L360.567 245.17C360.739 245.342 361.018 245.342 361.19 245.17C361.362 244.998 361.362 244.719 361.19 244.547L358.699 242.057L361.19 239.566C361.362 239.394 361.362 239.115 361.19 238.943C361.018 238.771 360.739 238.771 360.567 238.943L357.765 241.745ZM389.844 184.145L389.844 242.057L390.725 242.057L390.725 184.145L389.844 184.145ZM390.284 241.616L358.077 241.616L358.077 242.497L390.284 242.497L390.284 241.616Z" fill="#E0E0E0"/>
<path d="M390.284 116.275L390.284 115.835L390.725 115.835L390.725 116.275L390.284 116.275ZM357.765 116.587C357.593 116.415 357.593 116.136 357.765 115.964L360.567 113.162C360.739 112.99 361.018 112.99 361.19 113.162C361.362 113.334 361.362 113.613 361.19 113.785L358.699 116.275L361.19 118.766C361.362 118.938 361.362 119.217 361.19 119.389C361.018 119.561 360.739 119.561 360.567 119.389L357.765 116.587ZM389.844 188.599L389.844 116.275L390.725 116.275L390.725 188.599L389.844 188.599ZM390.284 116.716L358.077 116.716L358.077 115.835L390.284 115.835L390.284 116.716Z" fill="#E0E0E0"/>
<path d="M397.622 249.918L397.622 250.358L398.062 250.358L398.062 249.918L397.622 249.918ZM357.765 249.607C357.593 249.779 357.593 250.057 357.765 250.229L360.567 253.031C360.739 253.203 361.018 253.203 361.19 253.031C361.362 252.859 361.362 252.581 361.19 252.409L358.699 249.918L361.19 247.427C361.362 247.255 361.362 246.977 361.19 246.805C361.018 246.633 360.739 246.633 360.567 246.805L357.765 249.607ZM397.181 150.604L397.181 249.918L398.062 249.918L398.062 150.604L397.181 150.604ZM397.622 249.478L358.077 249.478L358.077 250.358L397.622 250.358L397.622 249.478Z" fill="#E0E0E0"/>
<path d="M405.221 52.0752L405.221 51.6349L405.661 51.6349L405.661 52.0752L405.221 52.0752ZM357.765 52.3865C357.593 52.2146 357.593 51.9358 357.765 51.7639L360.567 48.9618C360.739 48.7899 361.018 48.7899 361.19 48.9618C361.362 49.1338 361.362 49.4126 361.19 49.5845L358.699 52.0752L361.19 54.5659C361.362 54.7378 361.362 55.0166 361.19 55.1886C361.018 55.3605 360.739 55.3605 360.567 55.1886L357.765 52.3865ZM404.781 196.985L404.781 52.0752L405.661 52.0752L405.661 196.985L404.781 196.985ZM405.221 52.5155L358.077 52.5155L358.077 51.6349L405.221 51.6349L405.221 52.5155Z" fill="#E0E0E0"/>
<path d="M381.375 60.9844L381.375 60.5441L381.815 60.5441L381.815 60.9844L381.375 60.9844ZM357.765 61.2957C357.593 61.1238 357.593 60.845 357.765 60.673L360.567 57.871C360.739 57.6991 361.018 57.6991 361.19 57.871C361.362 58.043 361.362 58.3217 361.19 58.4937L358.699 60.9844L361.19 63.4751C361.362 63.647 361.362 63.9258 361.19 64.0977C361.018 64.2697 360.739 64.2697 360.567 64.0977L357.765 61.2957ZM380.935 135.405L380.935 60.9844L381.815 60.9844L381.815 135.405L380.935 135.405ZM381.375 61.4247L358.077 61.4247L358.077 60.5441L381.375 60.5441L381.375 61.4247Z" fill="#E0E0E0"/>
<path d="M373.776 86.9268V86.4865H374.216L374.216 86.9268L373.776 86.9268ZM357.765 87.2381C357.593 87.0661 357.593 86.7874 357.765 86.6154L360.567 83.8134C360.739 83.6414 361.018 83.6414 361.19 83.8134C361.362 83.9853 361.362 84.2641 361.19 84.4361L358.699 86.9268L361.19 89.4175C361.362 89.5894 361.362 89.8682 361.19 90.0401C361.018 90.2121 360.739 90.2121 360.567 90.0401L357.765 87.2381ZM373.335 126.757L373.335 86.9268L374.216 86.9268L374.216 126.757L373.335 126.757ZM373.776 87.3671H358.077V86.4865H373.776V87.3671Z" fill="#E0E0E0"/>
<path d="M381.375 168.684L381.375 169.124L381.815 169.124L381.815 168.684L381.375 168.684ZM357.765 168.372C357.593 168.544 357.593 168.823 357.765 168.995L360.567 171.797C360.739 171.969 361.018 171.969 361.19 171.797C361.362 171.625 361.362 171.346 361.19 171.174L358.699 168.684L361.19 166.193C361.362 166.021 361.362 165.742 361.19 165.57C361.018 165.398 360.739 165.398 360.567 165.57L357.765 168.372ZM380.935 105.007L380.935 168.684L381.815 168.684L381.815 105.007L380.935 105.007ZM381.375 168.243L358.077 168.243L358.077 169.124L381.375 169.124L381.375 168.243Z" fill="#E0E0E0"/>
<path d="M366.963 124.661V124.221H367.403L367.403 124.661L366.963 124.661ZM357.765 124.972C357.593 124.801 357.593 124.522 357.765 124.35L360.567 121.548C360.739 121.376 361.018 121.376 361.19 121.548C361.362 121.72 361.362 121.998 361.19 122.17L358.699 124.661L361.19 127.152C361.362 127.324 361.362 127.603 361.19 127.775C361.018 127.946 360.739 127.946 360.567 127.775L357.765 124.972ZM366.522 141.432L366.522 124.661L367.403 124.661L367.403 141.432L366.522 141.432ZM366.963 125.101H358.077V124.221H366.963V125.101Z" fill="#E0E0E0"/>
<path d="M366.963 151.914L366.963 152.354L367.403 152.354L367.403 151.914L366.963 151.914ZM357.765 151.603C357.593 151.775 357.593 152.053 357.765 152.225L360.567 155.027C360.739 155.199 361.018 155.199 361.19 155.027C361.362 154.855 361.362 154.577 361.19 154.405L358.699 151.914L361.19 149.423C361.362 149.251 361.362 148.973 361.19 148.801C361.018 148.629 360.739 148.629 360.567 148.801L357.765 151.603ZM366.522 136.191L366.522 151.914L367.403 151.914L367.403 136.191L366.522 136.191ZM366.963 151.474L358.077 151.474L358.077 152.354L366.963 152.354L366.963 151.474Z" fill="#E0E0E0"/>
<path d="M405.221 258.564L405.221 259.005L405.661 259.005L405.661 258.564L405.221 258.564ZM357.765 258.253C357.593 258.425 357.593 258.704 357.765 258.876L360.567 261.678C360.739 261.85 361.018 261.85 361.19 261.678C361.362 261.506 361.362 261.227 361.19 261.055L358.699 258.564L361.19 256.074C361.362 255.902 361.362 255.623 361.19 255.451C361.018 255.279 360.739 255.279 360.567 255.451L357.765 258.253ZM404.781 194.888L404.781 258.564L405.661 258.564L405.661 194.888L404.781 194.888ZM405.221 258.124L358.077 258.124L358.077 259.005L405.221 259.005L405.221 258.124Z" fill="#E0E0E0"/>
<path d="M373.776 160.037L373.776 160.477L374.216 160.477L374.216 160.037L373.776 160.037ZM357.765 159.726C357.593 159.898 357.593 160.176 357.765 160.348L360.567 163.15C360.739 163.322 361.018 163.322 361.19 163.15C361.362 162.979 361.362 162.7 361.19 162.528L358.699 160.037L361.19 157.546C361.362 157.374 361.362 157.096 361.19 156.924C361.018 156.752 360.739 156.752 360.567 156.924L357.765 159.726ZM373.335 96.3607L373.335 160.037L374.216 160.037L374.216 96.3607L373.335 96.3607ZM373.776 159.597L358.077 159.597L358.077 160.477L373.776 160.477L373.776 159.597Z" fill="#E0E0E0"/>
<path d="M397.622 78.8037L397.622 78.3634L398.062 78.3634L398.062 78.8037L397.622 78.8037ZM357.765 79.1151C357.593 78.9431 357.593 78.6643 357.765 78.4924L360.567 75.6903C360.739 75.5184 361.018 75.5184 361.19 75.6903C361.362 75.8623 361.362 76.1411 361.19 76.313L358.699 78.8037L361.19 81.2944C361.362 81.4664 361.362 81.7451 361.19 81.9171C361.018 82.089 360.739 82.089 360.567 81.9171L357.765 79.1151ZM397.181 151.128L397.181 78.8037L398.062 78.8037L398.062 151.128L397.181 151.128ZM397.622 79.244L358.077 79.244L358.077 78.3634L397.622 78.3634L397.622 79.244Z" fill="#E0E0E0"/>
<path d="M424.399 199.228C424.571 199.056 424.571 198.778 424.399 198.606L421.597 195.804C421.425 195.632 421.147 195.632 420.975 195.804C420.803 195.976 420.803 196.254 420.975 196.426L423.465 198.917L420.975 201.408C420.803 201.58 420.803 201.858 420.975 202.03C421.147 202.202 421.425 202.202 421.597 202.03L424.399 199.228ZM349.691 199.357H424.088V198.477H349.691V199.357Z" fill="#E0E0E0"/>
<path d="M41.7413 118.945C41.5694 119.116 41.5694 119.395 41.7413 119.567L44.5434 122.369C44.7153 122.541 44.9941 122.541 45.1661 122.369C45.338 122.197 45.338 121.919 45.1661 121.747L42.6754 119.256L45.1661 116.765C45.338 116.593 45.338 116.314 45.1661 116.142C44.9941 115.971 44.7153 115.971 44.5434 116.142L41.7413 118.945ZM68.7578 118.816H42.0527V119.696H68.7578V118.816Z" fill="#E0E0E0"/>
<path d="M68.8079 125.856C68.9798 125.684 68.9798 125.406 68.8079 125.234L66.0058 122.432C65.8339 122.26 65.5551 122.26 65.3832 122.432C65.2112 122.603 65.2112 122.882 65.3832 123.054L67.8739 125.545L65.3832 128.036C65.2112 128.208 65.2112 128.486 65.3832 128.658C65.5551 128.83 65.8339 128.83 66.0058 128.658L68.8079 125.856ZM41.2433 125.985L68.4965 125.985L68.4965 125.105L41.2433 125.105L41.2433 125.985Z" fill="#E0E0E0"/>
<path d="M41.7413 189.172C41.5694 189.344 41.5694 189.623 41.7413 189.795L44.5434 192.597C44.7153 192.769 44.9941 192.769 45.1661 192.597C45.338 192.425 45.338 192.146 45.1661 191.974L42.6754 189.483L45.1661 186.993C45.338 186.821 45.338 186.542 45.1661 186.37C44.9941 186.198 44.7153 186.198 44.5434 186.37L41.7413 189.172ZM68.7578 189.043H42.0527V189.924H68.7578V189.043Z" fill="#E0E0E0"/>
<path d="M68.8079 171.715C68.9798 171.543 68.9798 171.264 68.8079 171.092L66.0058 168.29C65.8339 168.118 65.5551 168.118 65.3832 168.29C65.2112 168.462 65.2112 168.741 65.3832 168.913L67.8739 171.403L65.3832 173.894C65.2112 174.066 65.2112 174.345 65.3832 174.517C65.5551 174.689 65.8339 174.689 66.0058 174.517L68.8079 171.715ZM41.2433 171.844L68.4965 171.844L68.4965 170.963L41.2433 170.963L41.2433 171.844Z" fill="#E0E0E0"/>
<path d="M41.7413 277.743C41.5694 277.915 41.5694 278.194 41.7413 278.366L44.5434 281.168C44.7153 281.34 44.9941 281.34 45.1661 281.168C45.338 280.996 45.338 280.717 45.1661 280.545L42.6754 278.055L45.1661 275.564C45.338 275.392 45.338 275.113 45.1661 274.941C44.9941 274.769 44.7153 274.769 44.5434 274.941L41.7413 277.743ZM68.7578 277.614H42.0527V278.495H68.7578V277.614Z" fill="#E0E0E0"/>
<path d="M68.8079 260.285C68.9798 260.113 68.9798 259.834 68.8079 259.662L66.0058 256.86C65.8339 256.688 65.5551 256.688 65.3832 256.86C65.2112 257.032 65.2112 257.311 65.3832 257.483L67.8739 259.974L65.3832 262.464C65.2112 262.636 65.2112 262.915 65.3832 263.087C65.5551 263.259 65.8339 263.259 66.0058 263.087L68.8079 260.285ZM41.2433 260.414L68.4965 260.414L68.4965 259.533L41.2433 259.533L41.2433 260.414Z" fill="#E0E0E0"/>
<path d="M146.296 12.6867C146.125 12.8587 146.125 13.1374 146.296 13.3094L149.099 16.1114C149.27 16.2834 149.549 16.2834 149.721 16.1114C149.893 15.9395 149.893 15.6607 149.721 15.4887L147.23 12.998L149.721 10.5073C149.893 10.3354 149.893 10.0566 149.721 9.88467C149.549 9.71273 149.27 9.71273 149.099 9.88467L146.296 12.6867ZM186.677 12.5577L146.608 12.5577V13.4383L186.677 13.4383V12.5577Z" fill="#E0E0E0"/>
<rect x="69.9424" y="109.862" width="286.14" height="23.3111" stroke="#E0E0E0" stroke-width="1.32089" stroke-dasharray="5.28 5.28"/>
<rect x="69.9424" y="147.858" width="286.14" height="71.7891" stroke="#E0E0E0" stroke-width="1.32089" stroke-dasharray="5.28 5.28"/>
<rect x="69.9424" y="235.117" width="286.14" height="71.7891" stroke="#E0E0E0" stroke-width="1.32089" stroke-dasharray="5.28 5.28"/>
<path d="M262.67 12.998L263.11 12.998L263.11 12.5577H262.67V12.998ZM262.358 42.953C262.53 43.1249 262.809 43.1249 262.981 42.953L265.783 40.1509C265.955 39.979 265.955 39.7002 265.783 39.5283C265.611 39.3563 265.332 39.3563 265.16 39.5283L262.67 42.019L260.179 39.5283C260.007 39.3563 259.728 39.3563 259.556 39.5283C259.384 39.7002 259.384 39.979 259.556 40.1509L262.358 42.953ZM210.809 13.4383H262.67V12.5577H210.809V13.4383ZM262.229 12.998L262.229 42.6416L263.11 42.6416L263.11 12.998L262.229 12.998Z" fill="#E0E0E0"/>
<rect x="78.7155" y="2.93164" width="66.8209" height="19.6532" rx="4.40297" fill="#947CF7"/>
<path d="M198.207 6.48073C200.095 6.48073 202.024 7.51559 202.391 9.43372L202.607 10.5532L203.504 10.6353C205.02 10.6353 205.872 12.4232 205.872 13.58C205.872 14.8115 204.44 16.4384 203.251 16.4384H193.883C192.291 16.4384 190.673 14.4831 190.673 12.8337C190.673 11.3036 191.952 9.59045 193.415 9.43372L194.186 9.35162L194.546 8.64258C195.231 7.27675 196.723 6.48073 198.207 6.48073ZM198.207 5.37012C196.125 5.37012 194.316 6.59414 193.415 8.38539C191.246 8.62422 189.56 10.5274 189.56 12.8337C189.56 15.3041 191.498 17.3118 193.883 17.3118H203.251C205.24 17.3118 206.855 15.64 206.855 13.58C206.855 11.6096 205.377 10.0124 203.504 9.8781C203.014 7.30317 200.83 5.37012 198.207 5.37012Z" fill="#E0E0E0"/>
<path fill-rule="evenodd" clip-rule="evenodd" d="M440.834 201.6H453.676V205.32H448.904V204.663C449.464 204.549 449.886 204.054 449.886 203.46C449.886 202.782 449.336 202.232 448.658 202.232C447.98 202.232 447.43 202.782 447.43 203.46C447.43 204.029 447.817 204.508 448.342 204.647V205.32H443.079V204.663C443.64 204.55 444.062 204.054 444.062 203.46C444.062 202.782 443.512 202.232 442.834 202.232C442.156 202.232 441.606 202.782 441.606 203.46C441.606 204.029 441.993 204.508 442.518 204.647V205.32H440.834V201.6ZM448.342 205.881H443.079V206.162C443.079 206.472 443.331 206.723 443.641 206.723H444.974C445.594 206.723 446.097 207.226 446.097 207.846V208.127H451.36V207.846C451.36 207.536 451.109 207.285 450.798 207.285H449.465C448.845 207.285 448.342 206.782 448.342 206.162V205.881ZM451.921 208.127H455.64C455.95 208.127 456.202 208.378 456.202 208.688V212.407C456.202 212.717 455.95 212.969 455.64 212.969H438.939C438.629 212.969 438.378 212.717 438.378 212.407V208.688C438.378 208.378 438.629 208.127 438.939 208.127H445.536V207.846C445.536 207.536 445.284 207.285 444.974 207.285H443.641C443.021 207.285 442.518 206.782 442.518 206.162V205.881H438.939C438.629 205.881 438.378 205.63 438.378 205.32V201.6C438.378 201.29 438.629 201.039 438.939 201.039H455.64C455.95 201.039 456.202 201.29 456.202 201.6V205.32C456.202 205.63 455.95 205.881 455.64 205.881H448.904V206.162C448.904 206.472 449.155 206.723 449.465 206.723H450.798C451.419 206.723 451.921 207.226 451.921 207.846V208.127ZM451.36 208.688H446.097V209.352C446.64 209.479 447.044 209.966 447.044 210.548C447.044 211.226 446.494 211.776 445.816 211.776C445.138 211.776 444.588 211.226 444.588 210.548C444.588 209.966 444.993 209.479 445.536 209.352V208.688H440.834V212.407H453.676V208.688H451.921V209.361C452.446 209.5 452.833 209.979 452.833 210.548C452.833 211.226 452.284 211.776 451.605 211.776C450.927 211.776 450.377 211.226 450.377 210.548C450.377 209.953 450.799 209.458 451.36 209.344V208.688ZM447.044 203.46C447.044 204.138 446.494 204.688 445.816 204.688C445.138 204.688 444.588 204.138 444.588 203.46C444.588 202.782 445.138 202.232 445.816 202.232C446.494 202.232 447.044 202.782 447.044 203.46ZM452.833 203.46C452.833 204.138 452.284 204.688 451.605 204.688C450.927 204.688 450.377 204.138 450.377 203.46C450.377 202.782 450.927 202.232 451.605 202.232C452.284 202.232 452.833 202.782 452.833 203.46ZM442.834 211.776C443.512 211.776 444.062 211.226 444.062 210.548C444.062 209.869 443.512 209.32 442.834 209.32C442.156 209.32 441.606 209.869 441.606 210.548C441.606 211.226 442.156 211.776 442.834 211.776ZM448.658 211.776C449.336 211.776 449.886 211.226 449.886 210.548C449.886 209.869 449.336 209.32 448.658 209.32C447.98 209.32 447.43 209.869 447.43 210.548C447.43 211.226 447.98 211.776 448.658 211.776Z" fill="#E0E0E0"/>
<path fill-rule="evenodd" clip-rule="evenodd" d="M440.834 268.946H453.676V272.665H448.904V272.009C449.464 271.895 449.886 271.4 449.886 270.806C449.886 270.127 449.336 269.578 448.658 269.578C447.98 269.578 447.43 270.127 447.43 270.806C447.43 271.375 447.817 271.853 448.342 271.993V272.665H443.079V272.009C443.64 271.895 444.062 271.4 444.062 270.806C444.062 270.127 443.512 269.578 442.834 269.578C442.156 269.578 441.606 270.127 441.606 270.806C441.606 271.375 441.993 271.853 442.518 271.993V272.665H440.834V268.946ZM448.342 273.227H443.079V273.508C443.079 273.818 443.331 274.069 443.641 274.069H444.974C445.594 274.069 446.097 274.572 446.097 275.192V275.473H451.36V275.192C451.36 274.882 451.109 274.63 450.798 274.63H449.465C448.845 274.63 448.342 274.128 448.342 273.508V273.227ZM451.921 275.473H455.64C455.95 275.473 456.202 275.724 456.202 276.034V279.753C456.202 280.063 455.95 280.314 455.64 280.314H438.939C438.629 280.314 438.378 280.063 438.378 279.753V276.034C438.378 275.724 438.629 275.473 438.939 275.473H445.536V275.192C445.536 274.882 445.284 274.63 444.974 274.63H443.641C443.021 274.63 442.518 274.128 442.518 273.508V273.227H438.939C438.629 273.227 438.378 272.975 438.378 272.665V268.946C438.378 268.636 438.629 268.385 438.939 268.385H455.64C455.95 268.385 456.202 268.636 456.202 268.946V272.665C456.202 272.975 455.95 273.227 455.64 273.227H448.904V273.508C448.904 273.818 449.155 274.069 449.465 274.069H450.798C451.419 274.069 451.921 274.572 451.921 275.192V275.473ZM451.36 276.034H446.097V276.697C446.64 276.824 447.044 277.312 447.044 277.893C447.044 278.572 446.494 279.121 445.816 279.121C445.138 279.121 444.588 278.572 444.588 277.893C444.588 277.312 444.993 276.824 445.536 276.698V276.034H440.834V279.753H453.676V276.034H451.921V276.706C452.446 276.846 452.833 277.324 452.833 277.893C452.833 278.572 452.284 279.121 451.605 279.121C450.927 279.121 450.377 278.572 450.377 277.893C450.377 277.299 450.799 276.804 451.36 276.69V276.034ZM447.044 270.806C447.044 271.484 446.494 272.034 445.816 272.034C445.138 272.034 444.588 271.484 444.588 270.806C444.588 270.127 445.138 269.578 445.816 269.578C446.494 269.578 447.044 270.127 447.044 270.806ZM452.833 270.806C452.833 271.484 452.284 272.034 451.605 272.034C450.927 272.034 450.377 271.484 450.377 270.806C450.377 270.127 450.927 269.578 451.605 269.578C452.284 269.578 452.833 270.127 452.833 270.806ZM442.834 279.121C443.512 279.121 444.062 278.572 444.062 277.893C444.062 277.215 443.512 276.665 442.834 276.665C442.156 276.665 441.606 277.215 441.606 277.893C441.606 278.572 442.156 279.121 442.834 279.121ZM448.658 279.121C449.336 279.121 449.886 278.572 449.886 277.893C449.886 277.215 449.336 276.665 448.658 276.665C447.98 276.665 447.43 277.215 447.43 277.893C447.43 278.572 447.98 279.121 448.658 279.121Z" fill="#E0E0E0"/>
<path fill-rule="evenodd" clip-rule="evenodd" d="M445.174 287.566C445.264 286.476 446.177 285.619 447.29 285.619C448.403 285.619 449.315 286.476 449.405 287.566H445.174ZM445.016 287.566C445.106 286.388 446.089 285.461 447.29 285.461C448.49 285.461 449.474 286.388 449.564 287.566H452.132C453.12 287.566 453.921 288.367 453.921 289.355C453.921 289.414 453.92 289.472 453.917 289.531C454.387 289.547 454.763 289.933 454.763 290.407C454.763 290.892 454.37 291.284 453.886 291.284C453.746 291.284 453.613 291.252 453.496 291.193C453.033 292.135 452.227 292.877 451.24 293.255C451.088 293.04 450.836 292.899 450.553 292.899C450.16 292.899 449.831 293.167 449.737 293.53H444.842C444.748 293.167 444.418 292.899 444.026 292.899C443.743 292.899 443.492 293.04 443.339 293.255C442.352 292.876 441.546 292.135 441.084 291.193C440.966 291.252 440.833 291.285 440.693 291.285C440.209 291.285 439.816 290.892 439.816 290.407C439.816 289.933 440.192 289.547 440.662 289.531C440.66 289.473 440.658 289.414 440.658 289.355C440.658 288.367 441.46 287.566 442.448 287.566H445.016ZM443.196 295.144H442.202C441.36 295.144 440.659 294.442 440.659 294.442V296.146C439.942 296.264 439.396 296.886 439.396 297.635V301.425C439.396 302.258 440.071 302.933 440.904 302.933C441.358 302.933 441.766 302.733 442.042 302.415C443.172 303.802 444.894 304.688 446.823 304.688H447.757C449.686 304.688 451.407 303.802 452.538 302.415C452.814 302.733 453.222 302.933 453.676 302.933C454.509 302.933 455.184 302.258 455.184 301.425V297.635C455.184 296.886 454.638 296.264 453.921 296.146V294.442C453.921 294.442 453.29 295.144 452.518 295.144H451.383C451.317 295.543 450.97 295.847 450.553 295.847C450.135 295.847 449.788 295.543 449.722 295.144H444.857C444.791 295.543 444.444 295.847 444.026 295.847C443.609 295.847 443.262 295.543 443.196 295.144ZM443.886 300.442C443.886 299.996 444.248 299.635 444.693 299.635H449.886C450.332 299.635 450.693 299.996 450.693 300.442C450.693 300.887 450.332 301.249 449.886 301.249H444.693C444.248 301.249 443.886 300.887 443.886 300.442Z" fill="#E0E0E0"/>
<path fill-rule="evenodd" clip-rule="evenodd" d="M450.567 166.746C450.93 166.753 451.237 166.469 451.225 166.106C451.162 164.246 450.435 162.403 449.037 160.964C447.597 159.48 445.708 158.696 443.794 158.617C443.425 158.601 443.138 158.914 443.149 159.282C443.16 159.659 443.478 159.95 443.855 159.972C445.396 160.064 446.908 160.71 448.068 161.905C449.193 163.063 449.792 164.538 449.87 166.034C449.889 166.415 450.185 166.738 450.567 166.746ZM448.105 166.698C448.463 166.705 448.768 166.428 448.748 166.07C448.679 164.844 448.185 163.636 447.263 162.686C446.324 161.72 445.106 161.189 443.861 161.097C443.495 161.07 443.211 161.382 443.221 161.748C443.233 162.127 443.557 162.416 443.933 162.461C444.8 162.563 445.638 162.952 446.294 163.627C446.937 164.29 447.3 165.12 447.386 165.973C447.424 166.357 447.719 166.691 448.105 166.698ZM441.527 169.632C439.14 169.632 437.205 171.567 437.205 173.954C437.205 175.42 437.935 176.716 439.051 177.497C438.974 177.712 438.933 177.943 438.933 178.183C438.933 179.314 439.85 180.231 440.981 180.231C442.081 180.231 442.978 179.364 443.027 178.276H451.037C451.086 179.364 451.983 180.231 453.083 180.231C454.185 180.231 455.084 179.361 455.129 178.27C456.385 178.179 457.375 177.131 457.375 175.852C457.375 174.796 456.691 173.861 455.684 173.541L454.93 173.303C454.332 173.113 453.829 172.703 453.522 172.156C452.648 170.597 451 169.632 449.212 169.632H443.271V168.493C444.667 169.182 446.368 169.044 447.641 168.078L445.228 165.665C445.494 165.518 445.675 165.232 445.675 164.903C445.675 164.425 445.293 164.037 444.822 164.037C444.493 164.037 444.208 164.226 444.065 164.502L441.788 162.225C440.553 163.853 440.671 166.181 442.142 167.676V169.632H441.527ZM441.882 178.183C441.882 178.681 441.478 179.084 440.981 179.084C440.483 179.084 440.08 178.681 440.08 178.183C440.08 177.686 440.483 177.282 440.981 177.282C441.478 177.282 441.882 177.686 441.882 178.183ZM453.984 178.183C453.984 178.681 453.581 179.084 453.083 179.084C452.586 179.084 452.182 178.681 452.182 178.183C452.182 177.686 452.586 177.282 453.083 177.282C453.581 177.282 453.984 177.686 453.984 178.183ZM448.529 170.456H448.484V173.502H452.765L452.488 172.933C451.751 171.417 450.214 170.456 448.529 170.456Z" fill="#E0E0E0"/>
<path fill-rule="evenodd" clip-rule="evenodd" d="M453.015 127.234C452.672 126.846 452.08 126.809 451.691 127.152L450.725 128.004L443.697 128.004L442.786 127.093C440.802 129.709 440.846 133.373 442.92 135.942L442.208 136.691V142.28H444.516V137.406C447.044 139.104 450.411 139.025 452.86 137.167L452.08 136.387L452.08 129.31L452.932 128.558C453.321 128.215 453.358 127.623 453.015 127.234ZM451.351 129.954V135.658L448.085 132.392L450.954 129.524L451.34 129.963L451.351 129.954ZM450.47 128.976L450.256 128.733L444.426 128.733L447.57 131.877L450.47 128.976Z" fill="#E0E0E0"/>
<path fill-rule="evenodd" clip-rule="evenodd" d="M453.015 247.773C452.672 247.385 452.08 247.348 451.691 247.691L450.725 248.543L443.696 248.543L442.786 247.633C440.802 250.249 440.846 253.912 442.92 256.481L442.208 257.23V262.819H444.516V257.945C447.044 259.644 450.411 259.564 452.86 257.707L452.08 256.927L452.08 249.849L452.932 249.097C453.321 248.754 453.358 248.162 453.015 247.773ZM451.351 250.493V256.198L448.085 252.932L450.954 250.063L451.34 250.502L451.351 250.493ZM450.47 249.515L450.256 249.272L444.425 249.272L447.569 252.416L450.47 249.515Z" fill="#E0E0E0"/>
</svg>
