<?xml version="1.0" encoding="utf-8"?>
<!-- Generator: Adobe Illustrator 26.0.2, SVG Export Plug-In . SVG Version: 6.00 Build 0)  -->
<svg version="1.1" id="Layer_1" xmlns="http://www.w3.org/2000/svg" xmlns:xlink="http://www.w3.org/1999/xlink" x="0px" y="0px"
	 viewBox="0 0 671.78 567.16" style="enable-background:new 0 0 671.78 567.16;" xml:space="preserve">
<style type="text/css">
	.st0{fill:#26630F;stroke:#000000;stroke-miterlimit:10;}
	.st1{fill:#969792;}
	.st2{fill:#19294D;}
	.st3{fill:#4C67AC;}
	.st4{fill:#A39DA7;}
	.st5{fill:none;stroke:#FFFFFF;stroke-miterlimit:10;}
	.st6{fill:#FFFFFF;}
	.st7{font-family:'MyriadPro-Regular';}
	.st8{font-size:57.5465px;}
</style>
<path class="st0" d="M469.16,389.98H204.94c-17.19,0-31.13-13.94-31.13-31.13V201.19c0-17.19,13.94-31.13,31.13-31.13h264.22
	c17.19,0,31.13,13.94,31.13,31.13v157.65C500.28,376.04,486.35,389.98,469.16,389.98z"/>
<path class="st1" d="M158.43,111.53c0,0-38.71,16.41-52.59,61.36c-5.94,19.23-5.16,169.94-3.82,195.67
	c3.02,57.84,56.41,80.16,56.41,80.16l-13.57,23.33c0,0-102.07-58.81-100.06-202.74C46.56,144,145.29,88.63,145.29,88.63
	L158.43,111.53z"/>
<path class="st2" d="M147.41,86.93l13.57,24.18c0,0,11.21-4.39,15.06-5.51c3.8-1.11,15.48-3.39,15.48-3.39l-7-36.48
	C184.52,65.73,162.67,74.85,147.41,86.93z"/>
<path class="st2" d="M186.21,65.73l8.06,36.48l35.42-1.06V50.03c0,0-37.02,11.45-43.47,14.63"/>
<polygon class="st2" points="231.81,50.03 261.29,45.37 260.44,101.14 231.81,101.14 "/>
<polygon class="st2" points="262.77,45.37 291.61,43.88 291.61,101.14 262.77,101.14 "/>
<polygon class="st2" points="293.73,43.88 293.73,101.14 321.72,101.14 321.72,53.21 304.83,53.21 "/>
<polygon class="st2" points="323.77,53.36 323.77,100.86 352.76,100.86 353.04,53.36 "/>
<polygon class="st2" points="354.24,53.36 371.63,53.36 383.65,43.88 383.65,100.86 354.24,100.86 "/>
<polygon class="st2" points="385.34,43.88 385.34,101.14 414.47,101.14 414.47,45.16 "/>
<polygon class="st2" points="416.02,45.23 416.02,100.86 445.36,100.86 445.36,50.46 "/>
<polygon class="st2" points="446.84,51.02 446.84,100.86 484.87,102.06 493.07,67.35 "/>
<polygon class="st2" points="494.49,68.2 486.71,102.55 503.46,106.58 516.05,112.03 529.69,88.77 "/>
<path class="st3" d="M518.87,113.23c0,0,10.96,6.61,14.35,9.19c2.44,1.86,9.12,8.2,9.12,8.2l17.6-16.61c0,0-9.73-9.08-13.11-11.95
	c-3.67-3.12-15.09-11.95-15.09-11.95L518.87,113.23z"/>
<path class="st3" d="M561.64,115.14l24.88,29.48l-24.46,11.88c0,0-5.51-9.62-7.71-12.58c-2.38-3.21-10.6-11.95-10.6-11.95
	L561.64,115.14z"/>
<path class="st3" d="M562.77,158.33c0,0,5.82,12.11,7.07,16.4c0.9,3.11,2.05,12.79,2.05,12.79l35.98-5.66l-20.29-35.63
	L562.77,158.33z"/>
<polygon class="st3" points="572.7,189.57 573.34,220.11 622.22,220.11 609.5,183.63 "/>
<polygon class="st3" points="573.34,221.7 622.54,221.7 627.63,249.16 561.46,249.16 573.23,237.5 "/>
<polygon class="st3" points="560.62,250.97 560.62,278.43 629.75,278.43 628.16,250.97 "/>
<polygon class="st3" points="560.62,280.34 560.62,307.38 628.27,307.38 629.75,280.34 "/>
<polygon class="st3" points="561.25,309.39 573.34,320.95 573.34,336.32 623.18,336.32 628.05,309.39 "/>
<polygon class="st3" points="573.34,338.34 572.81,369.19 610.03,375.02 623.18,338.34 "/>
<polygon class="st3" points="572.07,370.68 569.52,387.43 564.43,399.84 589.03,412.14 609.39,376.72 "/>
<polygon class="st3" points="563.59,401.53 587.87,413.73 562.84,443.52 545.14,427.3 556.48,413.73 "/>
<polygon class="st3" points="518.2,447.02 531.88,438.86 543.86,428.47 561.15,445.22 531.56,470.03 "/>
<polygon class="st2" points="486.71,457.94 501.66,454.44 516.29,448.51 529.44,472.04 495.19,491.77 "/>
<polygon class="st2" points="447.06,459.32 485.23,458.47 492.65,492.93 447.06,509.37 "/>
<polygon class="st2" points="415.99,459.53 445.25,459.53 445.25,509.37 415.99,514.56 "/>
<polygon class="st2" points="385.13,459.53 414.4,459.53 414.4,514.56 385.13,516.26 "/>
<polygon class="st2" points="354.17,459.53 383.54,459.53 383.54,516.26 354.59,516.26 "/>
<rect x="324.06" y="459.53" class="st2" width="28.52" height="56.73"/>
<rect x="293.31" y="459.53" class="st2" width="29.16" height="56.73"/>
<polygon class="st2" points="262.77,459.53 291.5,459.53 291.5,516.26 262.77,515.62 "/>
<polygon class="st2" points="231.81,459.53 260.97,459.53 260.97,515.41 231.81,510 "/>
<polygon class="st2" points="191.2,457.94 197.88,459.11 230.22,459.53 230.22,509.58 202.97,502.05 182.71,493.15 "/>
<polygon class="st2" points="160.34,447.98 172.85,453.91 189.29,457.94 181.34,492.51 147.19,473.21 "/>
<path class="st1" d="M139.45,418.6l13.04-11.77c0,0-15.69-18.45-16.33-24.39c-0.64-5.94-3.29-5.2-4.03-20.25
	c-0.74-15.06,0-165.62,0-165.62s3.29-19.83,7.74-27.99c4.45-8.16,14.21-17.6,14.21-17.6l-13.04-12.41c0,0-15.8,19.3-16.97,22.9
	c-1.17,3.61-9.54,20.78-9.54,34.67s0,167.53,0,167.53s2.01,22.37,7.85,31.28C128.21,403.87,139.45,418.6,139.45,418.6z"/>
<polygon class="st2" points="142.95,136.87 155.89,149.81 166.28,142.07 174.02,137.51 164.9,121.61 152.07,129.45 "/>
<polygon class="st2" points="166.81,120.65 182.08,115.24 194.48,113.34 197.88,130.3 184.84,133.48 175.82,136.87 "/>
<polygon class="st2" points="196.39,112.49 230.22,111.96 230.22,130.19 199.68,130.19 "/>
<rect x="231.81" y="111.96" class="st2" width="28.95" height="18.24"/>
<rect x="262.77" y="111.96" class="st2" width="28.84" height="18.24"/>
<polygon class="st2" points="293.1,112.03 293.1,130.19 322.36,130.19 322.36,111.96 "/>
<polygon class="st2" points="323.77,112.03 323.77,130.19 353.04,130.19 353.04,111.96 "/>
<polygon class="st2" points="354.31,112.03 354.31,130.19 383.58,130.19 383.58,111.96 "/>
<polygon class="st2" points="385.27,112.03 385.27,130.19 414.54,130.19 414.54,111.96 "/>
<polygon class="st2" points="416.06,112.03 416.06,130.19 445.32,130.19 445.32,111.96 "/>
<polygon class="st2" points="446.84,112.03 446.84,130.19 478.65,130.62 482.89,113.12 471.44,112.03 "/>
<polygon class="st2" points="480.46,130.62 492.01,133.59 501.66,137.83 510.89,122.24 497.63,116.52 484.06,113.34 "/>
<path class="st3" d="M503.99,138.89c0,0,7.03,4.21,9.22,5.83c1.97,1.45,7.42,6.36,7.42,6.36l13.78-12.72c0,0-7.17-6.31-9.76-8.16
	c-2.85-2.05-11.98-7.32-11.98-7.32L503.99,138.89z"/>
<path class="st3" d="M521.7,152.46c0,0,5.89,6.01,7.53,8.27c1.54,2.12,5.2,9.12,5.2,9.12l16.65-8.06c0,0-4.43-8.96-6.36-11.66
	c-2.12-2.96-9.86-10.71-9.86-10.71L521.7,152.46z"/>
<path class="st3" d="M535.49,171.12l16.97-7.85c0,0,4.06,9.03,4.98,12.19c0.98,3.34,2.51,13.68,2.51,13.68l-17.78,2.76
	c0,0-1.85-8.57-2.76-11.35C538.62,178.13,535.49,171.12,535.49,171.12z"/>
<polygon class="st3" points="542.59,194.24 542.59,251.39 561.46,231.14 561.46,190.63 "/>
<polygon class="st3" points="542.59,307.38 542.59,363.68 561.25,367.07 561.25,326.25 "/>
<path class="st3" d="M542.17,365.91l-1.7,11.45l-4.03,8.69l16.44,8.69c0,0,5.73-11.98,5.51-12.83c-0.21-0.85,2.33-13.36,2.33-13.36
	L542.17,365.91z"/>
<polygon class="st3" points="536.44,388.28 552.56,396.55 545.77,408.32 536.44,418.82 522.66,406.62 530.5,397.5 "/>
<polygon class="st3" points="503.36,422.1 512.37,437.27 524.67,430.16 535.38,420.41 522.66,408.21 512.58,415.85 "/>
<polygon class="st2" points="479.93,429.21 484.48,446.6 498.8,443.52 510.57,437.9 501.45,422.1 490.21,427.19 "/>
<polygon class="st2" points="446.42,430.27 446.42,448.19 483,447.13 478.65,429.42 "/>
<rect x="415.99" y="430.37" class="st2" width="29.27" height="17.81"/>
<rect x="385.13" y="430.37" class="st2" width="29.27" height="17.81"/>
<rect x="354.22" y="430.37" class="st2" width="29.27" height="17.81"/>
<rect x="323.54" y="430.37" class="st2" width="29.27" height="17.81"/>
<rect x="292.62" y="430.37" class="st2" width="29.27" height="17.81"/>
<rect x="262.5" y="430.37" class="st2" width="29.27" height="17.81"/>
<rect x="231.7" y="430.37" class="st2" width="29.27" height="17.81"/>
<polygon class="st2" points="197.35,429.84 193.21,448.19 230.22,448.19 230.22,430.37 "/>
<polygon class="st2" points="191.83,446.81 195.97,429.31 184.62,426.98 174.02,422.63 165.54,438.43 177.31,443.52 "/>
<polygon class="st2" points="154.09,408.42 162.78,415.85 172.85,422.1 163.95,438.01 151.12,430.37 140.62,421.04 "/>
<path class="st1" d="M161.19,398.25l20.68-19.62c0,0-4.75-5.95-5.73-8.27c-1.14-2.71-2.23-11.56-2.23-11.56l-29.27,5.41
	c0,0,2.96,13.81,4.98,18.03C151.77,386.69,161.19,398.25,161.19,398.25z"/>
<polygon class="st1" points="144.65,338.66 144.65,361.98 173.81,356.79 173.81,338.66 "/>
<rect x="144.65" y="309.39" class="st1" width="29.16" height="26.93"/>
<rect x="144.65" y="280.34" class="st1" width="29.16" height="27.04"/>
<rect x="144.65" y="250.86" class="st1" width="29.16" height="27.04"/>
<rect x="144.65" y="221.91" class="st1" width="29.16" height="27.04"/>
<polygon class="st1" points="144.65,195.19 144.65,220 173.81,220 173.81,199.75 "/>
<path class="st1" d="M145.18,192.86l28.84,4.98c0,0,1.59-8.09,2.86-10.5c1.18-2.25,6.57-7.74,6.57-7.74l-20.89-20.04
	c0,0-8.45,9.8-10.5,13.57C149.58,177.73,145.18,192.86,145.18,192.86z"/>
<polygon class="st2" points="164.32,157.97 185.37,178.7 189.82,174.73 194.06,172.82 179.75,146.95 170.84,152.57 "/>
<polygon class="st2" points="181.02,146.95 195.23,172.18 201.27,170.27 206.78,169.64 200.63,141.54 189.82,143.45 "/>
<polygon class="st2" points="202.23,141.54 207.95,170.06 230.22,170.06 230.22,141.54 "/>
<rect x="231.81" y="141.54" class="st2" width="28.95" height="28.52"/>
<rect x="262.77" y="141.54" class="st2" width="28.84" height="28.52"/>
<rect x="293.1" y="141.54" class="st2" width="28.84" height="28.52"/>
<rect x="323.72" y="141.54" class="st2" width="28.84" height="28.52"/>
<rect x="354.52" y="141.54" class="st2" width="28.84" height="28.52"/>
<rect x="385.49" y="141.54" class="st2" width="28.84" height="28.52"/>
<rect x="416.27" y="141.54" class="st2" width="28.84" height="28.52"/>
<polygon class="st2" points="446.84,141.54 446.84,170.06 469.96,169.85 476.43,141.54 "/>
<path class="st2" d="M477.7,142.28l-6.36,28.2l5.09,0.95l5.09,2.12l15.16-25.77c0,0-7.4-3.09-9.97-3.82
	C484.51,143.35,477.7,142.28,477.7,142.28z"/>
<path class="st3" d="M498.27,149.07l-14.26,25.24c0,0,5.53,4.26,7.13,5.94c1.58,1.65,5.54,7.28,5.54,7.28l27.14-12.9
	c0,0-6.92-11.63-9.7-14.53C510.57,156.4,498.27,149.07,498.27,149.07z"/>
<path class="st3" d="M497.74,189.36c0,0,1.5,3.69,1.8,4.98c0.27,1.14,0.53,4.67,0.53,4.67l30.43-4.82l-2.54-10.55l-3.61-7.85
	L497.74,189.36z"/>
<polygon class="st3" points="500.28,200.71 500.28,220.11 530.5,220.11 530.5,195.4 "/>
<rect x="500.28" y="221.7" class="st3" width="30.22" height="27.46"/>
<rect x="500.28" y="250.75" class="st3" width="30.22" height="27.46"/>
<rect x="500.28" y="280.12" class="st3" width="30.22" height="27.46"/>
<rect x="500.28" y="309.12" class="st3" width="30.22" height="27.46"/>
<polygon class="st3" points="500.28,338.34 500.28,356.68 530.5,362.09 530.5,338.34 "/>
<polygon class="st3" points="500.28,359.23 499.86,364.21 498.27,368.24 525.52,381.49 529.02,372.9 530.5,363.25 "/>
<polygon class="st3" points="483.53,386.48 498.27,411.5 513.96,399.62 524.99,383.4 498.27,369.72 492.23,379.37 "/>
<polygon class="st2" points="471.44,390.61 477.91,417.97 487.67,415.64 496.15,412.14 481.2,386.69 476.64,389.02 "/>
<polygon class="st2" points="446.42,389.98 446.42,419.24 476.43,418.81 469.85,389.98 "/>
<polygon class="st2" points="415.99,389.98 415.99,419.24 445.25,419.24 444.83,389.98 "/>
<rect x="385.13" y="389.98" class="st2" width="29.27" height="29.27"/>
<rect x="354.22" y="389.98" class="st2" width="29.32" height="29.27"/>
<rect x="323.54" y="389.98" class="st2" width="29.04" height="29.27"/>
<rect x="293.37" y="389.98" class="st2" width="29.04" height="29.27"/>
<rect x="262.5" y="389.98" class="st2" width="29.04" height="29.27"/>
<rect x="231.87" y="389.98" class="st2" width="29.04" height="29.27"/>
<polygon class="st2" points="229.97,389.98 229.97,419.24 199.72,419.24 206.93,389.98 "/>
<polygon class="st2" points="193.85,387.22 199.36,389.06 205.3,389.98 198.3,418.6 188.76,416.48 179.57,412.24 "/>
<path class="st2" d="M184.02,379.87c-0.21,0.07,2.38,3.13,3.39,3.96c1.14,0.93,5.02,3.05,5.02,3.05l-14.14,25.09l-9.26-5.58
	l-6.43-5.8L184.02,379.87z"/>
<rect x="216.33" y="450.2" class="st4" width="13.64" height="7.32"/>
<rect x="231.7" y="450.2" class="st4" width="13.64" height="7.32"/>
<rect x="247.32" y="450.2" class="st4" width="13.64" height="7.32"/>
<rect x="262.77" y="450.2" class="st4" width="13.64" height="7.32"/>
<rect x="278.14" y="450.2" class="st4" width="13.64" height="7.32"/>
<rect x="293.77" y="450.2" class="st4" width="13.64" height="7.32"/>
<rect x="308.16" y="450.2" class="st4" width="13.64" height="7.32"/>
<rect x="323.54" y="450.2" class="st4" width="13.64" height="7.32"/>
<rect x="339.16" y="450.2" class="st4" width="13.64" height="7.32"/>
<rect x="354.22" y="450.2" class="st4" width="13.64" height="7.32"/>
<rect x="369.6" y="450.2" class="st4" width="13.64" height="7.32"/>
<rect x="385.22" y="450.2" class="st4" width="13.64" height="7.32"/>
<rect x="400.61" y="450.2" class="st4" width="13.64" height="7.32"/>
<rect x="415.99" y="450.2" class="st4" width="13.64" height="7.32"/>
<rect x="216.33" y="102.89" class="st4" width="13.64" height="7.32"/>
<rect x="231.7" y="102.89" class="st4" width="13.64" height="7.32"/>
<rect x="247.32" y="102.89" class="st4" width="28.88" height="7.32"/>
<rect x="278.14" y="102.89" class="st4" width="13.64" height="7.32"/>
<rect x="293.77" y="102.89" class="st4" width="13.64" height="7.32"/>
<rect x="308.16" y="102.89" class="st4" width="13.64" height="7.32"/>
<rect x="323.54" y="102.89" class="st4" width="13.64" height="7.32"/>
<rect x="339.16" y="102.89" class="st4" width="13.64" height="7.32"/>
<rect x="354.22" y="102.89" class="st4" width="13.64" height="7.32"/>
<rect x="369.6" y="102.89" class="st4" width="13.64" height="7.32"/>
<rect x="385.22" y="102.89" class="st4" width="13.64" height="7.32"/>
<rect x="400.75" y="102.89" class="st4" width="28.88" height="7.32"/>
<rect x="206.78" y="201.87" class="st5" width="260.98" height="157.35"/>
<rect x="424.65" y="231.99" class="st5" width="43.12" height="96"/>
<rect x="453.63" y="257.58" class="st5" width="14.14" height="44.82"/>
<line class="st5" x1="338.17" y1="201.87" x2="338.17" y2="359.23"/>
<rect x="206.78" y="257.01" class="st5" width="15.13" height="46.09"/>
<rect x="206.78" y="231.99" class="st5" width="43.54" height="96"/>
<path class="st5" d="M250.33,262.24c0,0,9.47,5.94,9.47,16.35c0,13.63-9.47,19.85-9.47,19.85"/>
<path class="st5" d="M424.65,262.24c0,0-9.76,5.23-9.76,16.82c0,13.29,9.76,19.37,9.76,19.37"/>
<ellipse class="st5" cx="338.64" cy="279.81" rx="23.27" ry="22.8"/>
<text transform="matrix(1 0 0 1 629.7505 298.175)" class="st6 st7 st8">D</text>
<text transform="matrix(1 0 0 1 1.187 298.175)" class="st6 st7 st8">B</text>
<text transform="matrix(1 0 0 1 321.7241 45.3678)" class="st6 st7 st8">A</text>
<text transform="matrix(1 0 0 1 321.7241 558.7023)" class="st6 st7 st8">C</text>
</svg>
