<svg width="229" height="229" viewBox="0 0 229 229" fill="none" xmlns="http://www.w3.org/2000/svg">
<path fill-rule="evenodd" clip-rule="evenodd" d="M68.7822 75.554C68.7822 71.2192 72.2963 67.7051 76.6312 67.7051H122.853C127.188 67.7051 130.702 71.2192 130.702 75.554V151.427C130.702 155.762 127.188 159.276 122.853 159.276H76.6312C72.2963 159.276 68.7822 155.762 68.7822 151.427V75.554ZM89.154 107.168C88.2919 109.704 85.8905 111.528 83.063 111.528C79.5108 111.528 76.6312 108.649 76.6312 105.096C76.6312 101.544 79.5108 98.6647 83.063 98.6647C85.8905 98.6647 88.2919 100.489 89.154 103.025H121.436C122.58 103.025 123.507 103.953 123.507 105.096C123.507 106.24 122.58 107.168 121.436 107.168H89.154ZM89.154 141.616C88.2919 144.152 85.8905 145.976 83.063 145.976C79.5108 145.976 76.6312 143.097 76.6312 139.545C76.6312 135.992 79.5108 133.113 83.063 133.113C85.8905 133.113 88.2919 134.937 89.154 137.473H121.436C122.58 137.473 123.507 138.401 123.507 139.545C123.507 140.689 122.58 141.616 121.436 141.616H89.154ZM110.548 85.8012C111.41 83.2652 113.812 81.4407 116.639 81.4407C120.191 81.4407 123.071 84.3202 123.071 87.8724C123.071 91.4246 120.191 94.3041 116.639 94.3041C113.812 94.3041 111.41 92.4796 110.548 89.9436L78.2664 89.9436C77.1225 89.9436 76.1951 89.0163 76.1951 87.8724C76.1951 86.7285 77.1225 85.8012 78.2664 85.8012L110.548 85.8012ZM116.639 116.107C113.812 116.107 111.41 117.931 110.548 120.467L78.2664 120.467C77.1225 120.467 76.1951 121.395 76.1951 122.539C76.1951 123.683 77.1225 124.61 78.2664 124.61L110.548 124.61C111.41 127.146 113.812 128.97 116.639 128.97C120.191 128.97 123.071 126.091 123.071 122.539C123.071 118.986 120.191 116.107 116.639 116.107ZM143.147 150.171H134.21V129.099C134.744 129.155 135.286 129.183 135.835 129.183C144.413 129.183 151.366 122.23 151.366 113.652C151.366 105.075 144.413 98.122 135.835 98.122C135.286 98.122 134.744 98.1504 134.21 98.206V77.1326H143.147C144.06 77.1326 144.827 77.79 144.937 78.6664L146.324 88.344C148.552 89.257 150.597 90.4621 152.496 91.9229L161.589 88.271C162.393 87.9788 163.379 88.2709 163.817 89.0744L171.121 101.71C171.559 102.514 171.377 103.5 170.683 104.047L162.977 110.073C163.123 111.242 163.233 112.41 163.233 113.652C163.233 114.894 163.123 116.062 162.977 117.231L170.683 123.257C171.377 123.804 171.559 124.79 171.121 125.594L163.817 138.23C163.379 139.033 162.429 139.362 161.589 139.033L152.496 135.381C150.597 136.805 148.552 138.047 146.324 138.96L144.937 148.637C144.827 149.514 144.06 150.171 143.147 150.171Z" fill="#E0E0E0"/>
<circle cx="114.379" cy="114.418" r="113.75" stroke="#E0E0E0" stroke-width="0.5"/>
</svg>
