<svg width="71" height="63" viewBox="0 0 71 63" fill="none" xmlns="http://www.w3.org/2000/svg">
<path fill-rule="evenodd" clip-rule="evenodd" d="M0.5 5.3563C0.5 2.39809 2.8981 0 5.8563 0H37.3989C40.3572 0 42.7552 2.3981 42.7552 5.3563V57.1337C42.7552 60.0919 40.3572 62.49 37.3989 62.49H5.8563C2.8981 62.49 0.5 60.0919 0.5 57.1337V5.3563ZM14.4021 26.9302C13.8138 28.6608 12.1751 29.9059 10.2455 29.9059C7.82141 29.9059 5.8563 27.9408 5.8563 25.5167C5.8563 23.0926 7.82141 21.1275 10.2455 21.1275C12.1751 21.1275 13.8138 22.3726 14.4021 24.1032H36.4318C37.2125 24.1032 37.8453 24.7361 37.8453 25.5167C37.8453 26.2973 37.2125 26.9302 36.4318 26.9302H14.4021ZM14.4021 50.4384C13.8138 52.169 12.1751 53.4141 10.2455 53.4141C7.82141 53.4141 5.8563 51.449 5.8563 49.0249C5.8563 46.6008 7.82141 44.6357 10.2455 44.6357C12.1751 44.6357 13.8138 45.8808 14.4021 47.6114H36.4318C37.2125 47.6114 37.8453 48.2443 37.8453 49.0249C37.8453 49.8055 37.2125 50.4384 36.4318 50.4384H14.4021ZM29.0019 12.3492C29.5902 10.6186 31.229 9.37349 33.1585 9.37349C35.5826 9.37349 37.5477 11.3385 37.5477 13.7626C37.5477 16.1867 35.5826 18.1518 33.1585 18.1518C31.229 18.1518 29.5902 16.9067 29.0019 15.1761L6.97219 15.1761C6.19156 15.1761 5.55873 14.5432 5.55873 13.7626C5.55873 12.982 6.19156 12.3492 6.97219 12.3492L29.0019 12.3492ZM33.1585 33.0304C31.229 33.0304 29.5902 34.2755 29.0019 36.0061L6.97219 36.0061C6.19156 36.0061 5.55873 36.6389 5.55873 37.4196C5.55873 38.2002 6.19156 38.833 6.97219 38.833L29.0019 38.833C29.5902 40.5637 31.229 41.8088 33.1585 41.8088C35.5826 41.8088 37.5477 39.8437 37.5477 37.4196C37.5477 34.9955 35.5826 33.0304 33.1585 33.0304ZM51.2483 56.2768H45.1495V41.8965C45.514 41.9344 45.884 41.9539 46.2584 41.9539C52.1118 41.9539 56.8567 37.2088 56.8567 31.3555C56.8567 25.5022 52.1118 20.7571 46.2584 20.7571C45.884 20.7571 45.514 20.7766 45.1495 20.8145V6.43357H51.2483C51.8713 6.43357 52.3947 6.88215 52.4695 7.48027L53.4165 14.0844C54.9367 14.7075 56.3322 15.5299 57.6282 16.5268L63.8337 14.0346C64.3819 13.8352 65.0548 14.0346 65.3539 14.5829L70.3382 23.2058C70.6373 23.754 70.5127 24.4269 70.0392 24.8008L64.7807 28.9128C64.8804 29.7103 64.9551 30.5078 64.9551 31.3552C64.9551 32.2025 64.8804 33 64.7807 33.7975L70.0392 37.9095C70.5127 38.2834 70.6373 38.9563 70.3382 39.5045L65.3539 48.1274C65.0548 48.6757 64.4069 48.9 63.8337 48.6757L57.6282 46.1835C56.3322 47.1555 54.9367 48.0028 53.4165 48.6259L52.4695 55.23C52.3947 55.8282 51.8713 56.2768 51.2483 56.2768Z" fill="#2E2A46"/>
</svg>
