<svg width="107" height="78" viewBox="0 0 107 78" fill="none" xmlns="http://www.w3.org/2000/svg">
<path fill-rule="evenodd" clip-rule="evenodd" d="M44.8702 0C42.2838 0 40.187 2.09672 40.187 4.68315V31.6113C40.187 34.1977 42.2838 36.2944 44.8702 36.2944H51.6609V44.9486C51.6609 46.5732 53.5877 47.4276 54.7918 46.3369L65.8778 36.2944H101.537C104.123 36.2944 106.22 34.1977 106.22 31.6113V4.68315C106.22 2.09672 104.123 0 101.537 0H44.8702ZM70.3858 25.2419L70.3907 25.2476L70.3958 25.2531C70.5953 25.4662 70.8481 25.5703 71.13 25.5703C71.3583 25.5703 71.5739 25.5038 71.7535 25.3503C71.9134 25.2137 72.0287 25.0387 72.0937 24.8314L72.0941 24.83L76.495 11.0826C76.5161 11.0313 76.5308 10.9771 76.5417 10.9301L76.5437 10.9219L76.5452 10.9136C76.5595 10.8374 76.5683 10.7602 76.5683 10.6841C76.5683 10.3912 76.4686 10.1311 76.2763 9.92311C76.0849 9.70332 75.8332 9.60046 75.5538 9.60046C75.3255 9.60046 75.1099 9.66696 74.9303 9.82043C74.7703 9.95708 74.6551 10.1321 74.5901 10.3394L74.5897 10.3408L70.1887 24.0881C70.1677 24.1394 70.153 24.1937 70.142 24.2407L70.1401 24.2489L70.1386 24.2572C70.1243 24.3334 70.1155 24.4106 70.1155 24.4867C70.1155 24.7726 70.205 25.0312 70.3858 25.2419ZM90.4003 23.3842C90.5444 23.5382 90.7218 23.6152 90.9325 23.6152C91.1431 23.6152 91.3205 23.5382 91.4647 23.3842C91.6155 23.2346 91.693 23.0515 91.6973 22.8348C91.6933 23.0521 91.6158 23.2357 91.4646 23.3856C91.3205 23.5396 91.1431 23.6165 90.9324 23.6165C90.7218 23.6165 90.5444 23.5396 90.4002 23.3856C90.2561 23.2317 90.184 23.0422 90.184 22.8172V11.9456L90.1841 11.9442V22.8158C90.1841 23.0408 90.2561 23.2303 90.4003 23.3842ZM91.6975 18.6959H95.1401C95.7721 18.6959 96.2599 18.8262 96.6036 19.0867C96.9584 19.3354 97.2134 19.6552 97.3687 20.046C97.5239 20.4368 97.6181 20.8335 97.6514 21.2362C97.6957 21.6388 97.7179 21.9882 97.7179 22.2842V22.8172C97.7179 23.054 97.7844 23.2494 97.9175 23.4034C98.0616 23.5455 98.2501 23.6165 98.4829 23.6165C98.6936 23.6165 98.871 23.5396 99.0151 23.3856C99.1555 23.2357 99.2275 23.0521 99.2312 22.8348C99.2272 23.0515 99.1552 23.2346 99.0152 23.3842C98.871 23.5382 98.6936 23.6152 98.483 23.6152C98.2501 23.6152 98.0616 23.5441 97.9175 23.402C97.7845 23.248 97.7179 23.0526 97.7179 22.8158V22.2829C97.7179 21.9868 97.6958 21.6374 97.6514 21.2348C97.6181 20.8321 97.5239 20.4354 97.3687 20.0446C97.2135 19.6538 96.9585 19.334 96.6037 19.0853C96.2599 18.8248 95.7721 18.6945 95.1401 18.6945H91.6975L91.6975 18.6959ZM97.1546 17.949C97.3183 17.888 97.4725 17.819 97.6173 17.7419C98.1189 17.4751 98.5072 17.1121 98.7823 16.6531C99.1085 16.1252 99.2892 15.5596 99.3246 14.9565C99.289 15.5591 99.1082 16.1242 98.7823 16.6517C98.4275 17.2438 97.8842 17.6761 97.1525 17.9484L97.1546 17.949ZM94.7077 16.8129H92.0301V13.1546V13.0114H94.6245C95.4273 13.0114 96.0241 13.105 96.4353 13.2724L96.4419 13.275C96.8615 13.435 97.114 13.6483 97.2506 13.8886C97.4036 14.1577 97.4851 14.4771 97.4851 14.8589C97.4851 15.501 97.2506 15.9594 96.7746 16.282L96.7722 16.2837C96.2775 16.6256 95.5986 16.8129 94.7077 16.8129ZM66.3915 17.9484L66.3937 17.949C66.5573 17.888 66.7116 17.819 66.8564 17.7419C67.358 17.4751 67.7463 17.1121 68.0214 16.6531C68.3516 16.1185 68.5328 15.5454 68.5649 14.9337C68.5326 15.5449 68.3514 16.1176 68.0214 16.6517C67.6666 17.2438 67.1233 17.6761 66.3915 17.9484ZM66.774 13.7042C66.9625 14.0358 67.0568 14.4207 67.0568 14.8589L67.0568 14.8575C67.0568 14.4193 66.9625 14.0344 66.7741 13.7028C66.5856 13.3712 66.2585 13.1166 65.7928 12.939C65.3272 12.7495 64.6841 12.6548 63.8636 12.6548H60.9366V12.6561H63.8636C64.6841 12.6561 65.3271 12.7509 65.7928 12.9404C66.2585 13.118 66.5855 13.3726 66.774 13.7042ZM60.9366 22.8158L60.9365 18.6959V22.8172L60.9366 22.8158ZM97.5218 11.2841C98.2331 11.626 98.7782 12.0997 99.1308 12.7163C99.4882 13.3105 99.6637 13.987 99.6637 14.7345C99.6637 15.4927 99.4608 16.1992 99.061 16.8469C98.7909 17.297 98.427 17.6594 97.9781 17.9378C98.1805 18.0708 98.3607 18.2332 98.5168 18.4261C98.8225 18.7925 99.0493 19.2116 99.1963 19.6806C99.3473 20.1281 99.4476 20.5677 99.4951 20.9989C99.5402 21.3964 99.564 21.7315 99.564 22V22.8172C99.564 23.1329 99.4591 23.4138 99.2503 23.6368C99.0415 23.8599 98.7785 23.9718 98.4829 23.9718C98.1831 23.9718 97.9086 23.8782 97.6919 23.6644L97.6821 23.6548L97.6731 23.6444C97.4758 23.4161 97.3853 23.1308 97.3853 22.8172V22.2842C97.3853 22.006 97.3644 21.6712 97.321 21.2777L97.3201 21.2674C97.29 20.9036 97.2048 20.5431 97.0625 20.1847C96.9347 19.863 96.7249 19.5967 96.4211 19.3838L96.4161 19.3802L96.4111 19.3765C96.1454 19.175 95.7356 19.0512 95.1401 19.0512H92.0301V22.8172C92.0301 23.1394 91.9151 23.4214 91.6954 23.6415C91.4873 23.8614 91.226 23.9718 90.9324 23.9718C90.6369 23.9718 90.3739 23.8599 90.165 23.6368C89.9562 23.4138 89.8514 23.1329 89.8514 22.8172V11.9456C89.8514 11.6321 89.9548 11.3528 90.1607 11.1306C90.3668 10.896 90.6308 10.7732 90.9324 10.7732H94.8075C95.8886 10.7732 96.799 10.9367 97.5218 11.2841ZM82.7943 21.0441L79.1947 11.4567L79.1928 11.4515C79.1033 11.2236 78.9742 11.0268 78.7936 10.8877C78.6105 10.7467 78.3974 10.683 78.1709 10.683C77.8641 10.683 77.5854 10.7878 77.3776 11.0282C77.1804 11.2564 77.0899 11.5418 77.0899 11.8554C77.0899 12.0023 77.1129 12.1454 77.1609 12.2821L81.2751 22.9396L81.2777 22.9456C81.4104 23.2561 81.5856 23.5148 81.8145 23.6962C82.0473 23.8807 82.3174 23.9704 82.6114 23.9704H82.9772C83.2712 23.9704 83.5413 23.8807 83.7742 23.6962C84.003 23.5148 84.1782 23.2561 84.311 22.9456L84.3135 22.9396L88.4237 12.2928L88.4277 12.2821C88.4757 12.1454 88.4988 12.0023 88.4988 11.8554C88.4988 11.5418 88.4082 11.2564 88.211 11.0282C88.0032 10.7878 87.7245 10.683 87.4177 10.683C87.1912 10.683 86.9781 10.7467 86.795 10.8877C86.6144 11.0268 86.4853 11.2236 86.3959 11.4515L82.7943 21.0441ZM59.3998 11.1306C59.6058 10.896 59.8698 10.7732 60.1715 10.7732H64.0465C65.1276 10.7732 66.038 10.9367 66.7608 11.2841C67.4721 11.6259 68.0172 12.0996 68.3698 12.7162C68.7273 13.3103 68.9028 13.9869 68.9028 14.7345C68.9028 15.4926 68.6999 16.199 68.3003 16.8467C68.0301 17.2968 67.6662 17.6594 67.2171 17.9378C67.4196 18.0708 67.5998 18.2332 67.7558 18.4261C68.0616 18.7925 68.2884 19.2117 68.4354 19.6807C68.5863 20.128 68.6866 20.5674 68.7341 20.9984C68.7793 21.3961 68.803 21.7314 68.803 22V22.8172C68.803 23.1329 68.6982 23.4138 68.4894 23.6368C68.2806 23.8599 68.0176 23.9718 67.722 23.9718C67.4221 23.9718 67.1477 23.8782 66.9309 23.6644L66.9212 23.6548L66.9121 23.6444C66.7149 23.4161 66.6244 23.1308 66.6244 22.8172V22.2842C66.6244 22.006 66.6035 21.6712 66.5601 21.2777L66.559 21.2674C66.5289 20.9036 66.4438 20.5431 66.3015 20.1847C66.1738 19.863 65.9639 19.5967 65.6602 19.3838L65.6551 19.3802L65.6502 19.3765C65.3845 19.175 64.9747 19.0512 64.3792 19.0512H61.2692V22.8172C61.2692 23.1394 61.1542 23.4214 60.9345 23.6415C60.7264 23.8614 60.465 23.9718 60.1715 23.9718C59.8759 23.9718 59.6129 23.8599 59.4041 23.6368C59.1953 23.4138 59.0905 23.1329 59.0905 22.8172V11.9456C59.0905 11.6321 59.1939 11.3529 59.3998 11.1306ZM61.2692 13.0114H63.8636C64.6663 13.0114 65.2632 13.105 65.6744 13.2724L65.6809 13.275C66.1006 13.435 66.3531 13.6483 66.4897 13.8886C66.6427 14.1577 66.7241 14.4771 66.7241 14.8589C66.7241 15.501 66.4897 15.9594 66.0137 16.282L66.0113 16.2837C65.5165 16.6256 64.8377 16.8129 63.9468 16.8129H61.2692V13.0114ZM52.9575 11.6242C52.8595 11.385 52.7135 11.1779 52.5248 11.0039C52.2967 10.7804 52.0066 10.683 51.6881 10.683H51.5218C51.2075 10.683 50.9226 10.7844 50.6893 11.0001C50.4986 11.1749 50.3511 11.3832 50.2525 11.6241L46.01 22.3219L46.0093 22.3238C45.9462 22.4855 45.9005 22.6539 45.9005 22.8158C45.9005 23.1229 45.9941 23.4005 46.1883 23.6252C46.3961 23.8656 46.6748 23.9704 46.9815 23.9704C47.2043 23.9704 47.4161 23.9162 47.5996 23.7885C47.7835 23.6606 47.9149 23.4758 48.0024 23.2577L48.9994 20.7019H54.2105L55.2062 23.2544L55.2075 23.2577C55.295 23.4757 55.4264 23.6606 55.6103 23.7885C55.7939 23.9162 56.0057 23.9704 56.2284 23.9704C56.5352 23.9704 56.8139 23.8656 57.0216 23.6252C57.2158 23.4005 57.3094 23.1229 57.3094 22.8158C57.3094 22.6539 57.2637 22.4855 57.2007 22.3238L52.959 11.628L52.9575 11.6242ZM53.3518 18.5169H49.8581L51.605 14.025L53.3518 18.5169ZM54.4708 50.7838C54.4708 49.232 55.7288 47.9739 57.2807 47.9739H57.749C59.3009 47.9739 60.559 49.2319 60.559 50.7838V59.8619C60.559 61.2716 59.7676 62.562 58.5112 63.2012L32.0883 76.6427C31.0209 77.1857 29.7582 77.1857 28.6908 76.6427L2.26802 63.2012C1.01154 62.562 0.220215 61.2716 0.220215 59.8619L0.220219 27.598C0.220219 26.1883 1.01154 24.8979 2.26803 24.2587L28.6908 10.8172C29.7582 10.2742 31.0209 10.2742 32.0883 10.8172L36.1967 12.9071C37.6681 13.6556 38.1803 15.5051 37.3036 16.9038L37.0539 17.3022C36.2813 18.5349 34.6955 18.9741 33.3989 18.3144L31.6637 17.4317C30.8631 17.0245 29.9161 17.0245 29.1155 17.4317C26.9936 18.5112 11.9347 26.2851 11.678 26.4314C11.4213 26.5778 10.9688 27.231 11.678 27.598C12.3872 27.9649 16.6439 29.9494 16.6439 29.9494C18.1246 30.7456 18.6795 32.5914 17.8833 34.0721C17.0871 35.5527 15.2413 36.1076 13.7606 35.3114L7.49239 31.9341C6.96553 31.7 6.30839 31.817 6.30839 32.4902L6.30838 56.7028C6.30838 57.7601 6.90188 58.7279 7.84424 59.2073L29.1155 70.0282C29.9161 70.4354 30.8631 70.4354 31.6637 70.0282L52.9349 59.2073C53.8773 58.7279 54.4708 57.7601 54.4708 56.7028V50.7838ZM31.9329 23.0361C31.9329 23.8612 31.2645 24.5289 30.4401 24.5289C29.6157 24.5289 28.9473 23.8612 28.9473 23.0361C28.9473 22.2111 29.6157 21.5434 30.4401 21.5434C31.2645 21.5434 31.9329 22.2111 31.9329 23.0361ZM31.9329 29.0071C31.9329 29.8322 31.2645 30.4999 30.4401 30.4999C29.6157 30.4999 28.9473 29.8322 28.9473 29.0071C28.9473 28.1821 29.6157 27.5144 30.4401 27.5144C31.2645 27.5144 31.9329 28.1821 31.9329 29.0071ZM31.2625 36.4581C31.6664 36.191 31.9329 35.7337 31.9329 35.2123C31.9329 34.3873 31.2645 33.7196 30.4401 33.7196C29.6157 33.7196 28.9473 34.3873 28.9473 35.2123C28.9473 36.0374 29.6157 36.7051 30.4401 36.7051C30.744 36.7051 31.0266 36.6136 31.2625 36.4581ZM31.9329 41.1833C31.9329 42.0084 31.2645 42.6761 30.4401 42.6761C29.6157 42.6761 28.9473 42.0084 28.9473 41.1833C28.9473 40.3583 29.6157 39.6906 30.4401 39.6906C31.2645 39.6906 31.9329 40.3583 31.9329 41.1833ZM21.3556 51.032C21.7678 51.746 22.6807 51.9906 23.3947 51.5784C24.1087 51.1662 24.3533 50.2532 23.9411 49.5393C23.5289 48.8253 22.6159 48.5807 21.902 48.9929C21.188 49.4051 20.9433 50.318 21.3556 51.032ZM15.9817 54.1346C16.3939 54.8486 17.3068 55.0932 18.0208 54.681C18.7348 54.2688 18.9794 53.3558 18.5672 52.6418C18.155 51.9279 17.242 51.6832 16.5281 52.0955C15.8141 52.5077 15.5694 53.4206 15.9817 54.1346ZM12.8497 57.6665C12.1357 58.0787 11.2228 57.8341 10.8105 57.1201C10.3983 56.4061 10.643 55.4932 11.3569 55.081C12.0709 54.6688 12.9839 54.9134 13.3961 55.6274C13.8083 56.3413 13.5637 57.2543 12.8497 57.6665ZM48.1279 57.6665C47.4139 57.2543 47.1693 56.3413 47.5815 55.6274C47.9937 54.9134 48.9067 54.6688 49.6207 55.081C50.3347 55.4932 50.5793 56.4061 50.1671 57.1201C49.7549 57.8341 48.8419 58.0787 48.1279 57.6665ZM42.754 54.5639C42.04 54.1517 41.7954 53.2387 42.2076 52.5248C42.6198 51.8108 43.5328 51.5662 44.2468 51.9784C44.9608 52.3906 45.2054 53.3035 44.7932 54.0175C44.381 54.7315 43.468 54.9761 42.754 54.5639ZM37.0365 49.5393C36.6243 50.2532 36.8689 51.1662 37.5829 51.5784C38.2969 51.9906 39.2098 51.746 39.6221 51.032C40.0343 50.318 39.7896 49.4051 39.0757 48.9929C38.3617 48.5807 37.4487 48.8253 37.0365 49.5393Z" fill="#2E2A46"/>
</svg>
