<svg width="740" height="117" viewBox="0 0 740 117" fill="none" xmlns="http://www.w3.org/2000/svg">
<path d="M-6.12091 10.3027C-6.12091 4.77989 -1.64376 0.302735 3.87909 0.302736L718.562 0.302852C722.434 0.302852 725.957 2.53731 727.608 6.03908L737.369 26.7479C738.642 29.448 738.642 32.5754 737.369 35.2755L727.608 55.9843C725.957 59.486 722.434 61.7205 718.562 61.7205L3.87905 61.7204C-1.6438 61.7204 -6.12092 57.2432 -6.12092 51.7204L-6.12091 10.3027Z" fill="#2E2A46"/>
<path d="M-10.6211 65.4824C-10.6211 59.9596 -6.14393 55.4824 -0.621082 55.4824L718.563 55.4825C722.434 55.4825 725.958 57.717 727.608 61.2188L737.37 81.9276C738.643 84.6276 738.643 87.7551 737.37 90.4551L727.608 111.164C725.958 114.666 722.434 116.9 718.563 116.9L-0.62111 116.9C-6.14396 116.9 -10.6211 112.423 -10.6211 106.9L-10.6211 65.4824Z" fill="#2E2A46"/>
</svg>
