<svg width="349" height="349" viewBox="0 0 349 349" fill="none" xmlns="http://www.w3.org/2000/svg">
<g clip-path="url(#clip0_1_439)">
<path d="M167.24 347.401C165.502 347.331 164.114 339.259 163.218 323.995C162.322 308.732 161.949 286.815 162.136 260.449C162.323 234.083 163.064 204.194 164.284 173.789C165.502 143.383 167.157 113.531 169.083 87.2341C171.008 60.9373 173.136 39.1213 175.251 23.9792C177.368 8.83704 179.396 0.90074 181.135 0.971663" stroke="#3A3939"/>
<path d="M140.6 344.254C132.637 342.682 126.367 333.278 122.419 316.99C118.471 300.702 116.985 278.102 118.11 251.462C119.234 224.821 122.93 195.08 128.826 165.227C134.722 135.374 142.611 106.46 151.699 81.3928C160.785 56.3258 170.752 35.9879 180.595 22.4231C190.44 8.85833 199.815 2.54472 207.776 4.11779" stroke="#3A3939"/>
<path d="M111.638 335.864C98.6376 330.834 88.7557 318.422 82.9865 299.876C77.2173 281.331 75.7639 257.303 78.7719 230.211C81.78 203.118 89.144 173.915 100.124 145.534C111.104 117.153 125.312 90.5981 141.321 68.5355C157.331 46.4728 174.577 29.6795 191.326 19.8453C208.074 10.0111 223.736 7.48195 236.736 12.5118" stroke="#3A3939"/>
<path d="M78.7158 318.879C63.0126 308.519 51.9973 291.653 46.7773 269.981C41.5572 248.308 42.3162 222.591 48.9786 195.414C55.6405 168.237 67.9712 140.558 84.7298 115.158C101.489 89.7589 122.086 67.5346 144.451 50.7202C166.817 33.9043 190.162 23.0898 212.141 19.3636C234.12 15.6372 253.957 19.1309 269.661 29.4914" stroke="#3A3939"/>
<path d="M42.1234 286.485C27.6097 269.417 19.4534 247.461 18.4748 222.822C17.4963 198.185 23.7299 171.733 36.5493 146.128C49.3679 120.522 68.3212 96.6633 91.5034 76.9509C114.685 57.2387 141.279 42.3676 168.612 33.8299C195.945 25.2921 223.054 23.3913 247.215 28.3176C271.376 33.2425 291.736 44.8215 306.25 61.8899" stroke="#3A3939"/>
<path d="M10.0054 229.827C2.15125 206.651 2.0221 181.313 9.63043 156.36C17.2384 131.406 32.3162 107.715 53.3484 87.6692C74.3798 67.6236 100.625 51.9282 129.445 42.1607C158.265 32.3945 188.644 28.9009 217.53 32.03C246.416 35.1591 272.791 44.8019 294.002 59.988C315.212 75.1753 330.515 95.3716 338.369 118.546" stroke="#3A3939"/>
<path d="M2.10815 153.208C6.65506 115.912 29.1456 82.3539 64.6314 59.9168C100.118 37.4794 145.694 27.9998 191.332 33.5645C236.971 39.1278 278.933 59.2799 307.989 89.5855C337.045 119.893 350.814 157.87 346.268 195.166" stroke="#3A3939"/>
<path d="M25.5582 84.9635C43.8874 54.4311 77.1251 34.5499 117.958 29.6931C158.793 24.8362 203.878 35.401 243.298 59.0652C282.715 82.7293 313.24 117.553 328.152 155.875C343.064 194.197 341.145 232.88 322.816 263.412" stroke="#3A3939"/>
<path d="M61.8881 42.1254C85.6753 21.8981 120.32 16.4129 158.199 26.8755C196.079 37.3381 234.093 62.8946 263.876 97.9194C293.66 132.944 312.775 174.569 317.016 213.639C321.256 252.708 310.275 286.02 286.488 306.248" stroke="#3A3939"/>
<path d="M96.835 19.0503C118.949 8.02458 148.307 13.7948 178.449 35.0917C208.593 56.3899 237.052 91.4698 257.567 132.616C278.082 173.761 288.973 217.601 287.843 254.491C286.713 291.383 273.654 318.303 251.54 329.328" stroke="#3A3939"/>
<path d="M127.485 7.24031C143.386 2.792 163.556 16.1157 183.558 44.2778C203.56 72.4399 221.756 113.136 234.142 157.412C246.529 201.689 252.091 245.918 249.606 280.373C247.121 314.826 236.792 336.681 220.891 341.129" stroke="#3A3939"/>
<path d="M154.978 1.90125C162.121 1.10407 170.997 18.493 179.651 50.2397C188.303 81.9862 196.027 125.492 201.122 171.185C206.216 216.878 208.264 261.017 206.816 293.889C205.366 326.763 200.539 345.678 193.395 346.474" stroke="#3A3939"/>
<path d="M347.541 174.187C347.541 220.163 329.277 264.255 296.767 296.766C264.257 329.276 220.163 347.54 174.187 347.54C128.211 347.54 84.1179 329.276 51.6078 296.766C19.0979 264.255 0.833984 220.163 0.833984 174.187M347.541 174.187C347.541 128.21 329.277 84.1169 296.767 51.6055C264.257 19.0957 220.163 0.833008 174.187 0.833008C128.211 0.833008 84.1179 19.0957 51.6078 51.6055C19.0979 84.1169 0.833984 128.21 0.833984 174.187M347.541 174.187C347.541 191.64 339.531 208.789 324.316 223.905C309.101 239.021 287.217 251.574 260.864 260.302C234.511 269.03 204.618 273.623 174.187 273.623C143.757 273.623 113.864 269.03 87.5107 260.302C61.1575 251.574 39.2739 239.021 24.0586 223.905C8.84395 208.789 0.833984 191.64 0.833984 174.187M201.373 2.97065C225.128 6.74377 245.692 15.3269 259.259 27.1314C272.826 38.9358 278.473 53.1616 275.154 67.1718C271.836 81.1817 259.778 94.0279 241.213 103.329C222.648 112.629 198.835 117.754 174.187 117.754C149.539 117.754 125.727 112.629 107.162 103.329C88.5973 94.0279 76.5388 81.1817 73.2202 67.1718C69.9022 53.1616 75.5493 38.9358 89.116 27.1314C102.682 15.3269 123.248 6.74377 147.003 2.97065M261.701 24.5398C284.37 37.7968 296.974 55.661 296.764 74.2302C296.554 92.7991 283.549 110.567 260.583 123.657C237.619 136.745 206.56 144.09 174.187 144.09C141.815 144.09 110.757 136.745 87.7916 123.657C64.8267 110.567 51.82 92.7991 51.6107 74.2302C51.4012 55.661 64.0055 37.7968 86.6731 24.5398M294.929 49.7928C311.786 66.1562 317.997 85.415 312.464 104.154C306.93 122.895 290.008 139.905 264.697 152.171C239.386 164.437 207.322 171.167 174.187 171.167C141.053 171.167 108.988 164.437 83.6775 152.171C58.3665 139.905 41.4448 122.895 35.9111 104.154C30.3774 85.415 36.5892 66.1562 53.4457 49.7928M318.483 78.1085C330.437 96.0644 331.889 115.766 322.615 134.237C313.34 152.708 293.848 168.948 267.073 180.508C240.3 192.068 207.697 198.319 174.187 198.319C140.677 198.319 108.075 192.068 81.3019 180.508C54.5279 168.948 35.0334 152.708 25.7601 134.237C16.4869 115.766 17.9376 96.0644 29.8932 78.1085M334.732 108.788C342.293 127.348 339.898 146.788 327.864 164.555C315.83 182.322 294.717 197.589 267.294 208.352C239.871 219.116 207.417 224.877 174.187 224.877C140.958 224.877 108.505 219.116 81.0807 208.352C53.6574 197.589 32.5444 182.322 20.5102 164.555C8.47596 146.788 6.08175 127.348 13.6418 108.788M344.351 141.079C347.923 159.442 342.394 178.008 328.398 194.649C314.403 211.288 292.507 225.326 265.231 235.151C237.952 244.975 206.397 250.187 174.187 250.187C141.978 250.187 110.423 244.975 83.145 235.151C55.8665 225.326 33.9729 211.288 19.9772 194.649C5.98146 178.008 0.452162 159.442 4.02442 141.079M344.351 207.292C339.68 231.305 319.741 253.487 288.347 269.598C256.954 285.708 216.31 294.614 174.187 294.614C132.065 294.614 91.4209 285.708 60.0277 269.598C28.6348 253.487 8.69598 231.305 4.02442 207.292M334.732 239.584C326.268 260.365 305.799 278.893 276.652 292.158C247.504 305.42 211.393 312.638 174.187 312.638C136.982 312.638 100.871 305.42 71.7231 292.158C42.5762 278.893 22.1066 260.365 13.6418 239.584M318.483 270.265C307.321 287.029 287.549 301.453 261.784 311.629C236.017 321.806 205.471 327.255 174.187 327.255C142.905 327.255 112.359 321.806 86.5926 311.629C60.8261 301.453 41.0542 287.029 29.8932 270.265M294.929 298.58C269.696 323.074 223.786 338.101 174.187 338.101C124.588 338.101 78.6787 323.074 53.4457 298.58M261.701 323.831C238.65 337.316 207.11 344.913 174.187 344.913C141.265 344.913 109.726 337.316 86.6731 323.831M201.373 345.401C183.584 348.226 164.792 348.226 147.003 345.401M201.306 33.9315C201.306 42.5245 189.165 49.492 174.187 49.492C159.21 49.492 147.069 42.5245 147.069 33.9315C147.069 25.337 159.21 18.3709 174.187 18.3709C189.165 18.3709 201.306 25.337 201.306 33.9315ZM227.757 39.133C227.757 47.2835 222.113 55.1007 212.067 60.8639C202.021 66.6286 188.395 69.8651 174.187 69.8651C159.98 69.8651 146.355 66.6286 136.308 60.8639C126.262 55.1007 120.618 47.2835 120.618 39.133C120.618 30.9825 126.262 23.1654 136.308 17.4021C146.355 11.6389 159.98 8.40052 174.187 8.40052C188.395 8.40052 202.021 11.6389 212.067 17.4021C222.113 23.1654 227.757 30.9825 227.757 39.133ZM252.889 47.6608C252.889 59.6341 244.596 71.1181 229.837 79.5847C215.078 88.0513 195.061 92.8074 174.187 92.8074C153.315 92.8074 133.297 88.0513 118.538 79.5847C103.778 71.1181 95.4864 59.6341 95.4864 47.6608C95.4864 35.6862 103.778 24.2036 118.538 15.7368C133.297 7.27005 153.315 2.51248 174.187 2.51248C195.061 2.51248 215.078 7.27005 229.837 15.7368C244.596 24.2036 252.889 35.6862 252.889 47.6608Z" stroke="#3A3939"/>
</g>
<defs>
<clipPath id="clip0_1_439">
<rect width="348.094" height="348.094" fill="white" transform="translate(0.140259 0.140137)"/>
</clipPath>
</defs>
</svg>
