<svg width="1253" height="509" viewBox="0 0 1253 509" fill="none" xmlns="http://www.w3.org/2000/svg">
<path d="M1252.31 254.474C1252.31 394.683 1138.65 508.346 998.441 508.346C858.232 508.346 744.569 394.683 744.569 254.474C744.569 114.264 858.232 0.601562 998.441 0.601562C1138.65 0.601562 1252.31 114.264 1252.31 254.474Z" fill="#AA7CEF" fill-opacity="0.3"/>
<circle cx="998.441" cy="254.474" r="134.006" fill="#AA7CEF" fill-opacity="0.4"/>
<path d="M975.73 464.279C958.264 464.279 943.864 460.213 932.53 452.079C921.33 443.946 915.397 432.013 914.73 416.279H954.73C954.73 420.546 956.53 423.946 960.13 426.479C963.73 429.013 968.93 430.279 975.73 430.279C988.397 430.279 994.73 426.613 994.73 419.279C994.73 415.946 992.93 413.613 989.33 412.279C985.73 410.946 979.73 409.546 971.33 408.079C961.064 406.479 952.464 404.546 945.53 402.279C938.597 400.013 932.53 395.879 927.33 389.879C922.264 383.879 919.73 375.346 919.73 364.279C919.73 354.146 922.397 345.813 927.73 339.279C933.064 332.613 939.93 327.813 948.33 324.879C956.864 321.813 965.997 320.279 975.73 320.279C993.73 320.279 1007.73 324.346 1017.73 332.479C1027.86 340.479 1033.2 351.746 1033.73 366.279H993.73C993.73 362.413 992.197 359.479 989.13 357.479C986.064 355.346 981.93 354.279 976.73 354.279C971.13 354.279 967.064 355.279 964.53 357.279C961.997 359.146 960.73 361.479 960.73 364.279C960.73 367.746 962.597 370.213 966.33 371.679C970.197 373.013 976.33 374.413 984.73 375.879C994.997 377.613 1003.53 379.679 1010.33 382.079C1017.26 384.346 1023.2 388.346 1028.13 394.079C1033.2 399.813 1035.73 407.879 1035.73 418.279C1035.73 427.213 1033.4 435.146 1028.73 442.079C1024.06 449.013 1017.2 454.479 1008.13 458.479C999.064 462.346 988.264 464.279 975.73 464.279Z" fill="#E0E0E0"/>
<path d="M820.652 462.279H781.652V322.279H831.652L872.652 404.279H873.652V322.279H912.652V462.279H862.652L821.652 380.279H820.652V462.279Z" fill="#E0E0E0"/>
<path d="M707.605 464.279C694.139 464.279 682.272 461.546 672.005 456.079C661.872 450.479 653.939 442.279 648.205 431.479C642.472 420.679 639.605 407.613 639.605 392.279C639.605 376.946 642.472 363.879 648.205 353.079C653.939 342.279 661.872 334.146 672.005 328.679C682.272 323.079 694.139 320.279 707.605 320.279C721.072 320.279 732.872 323.079 743.005 328.679C753.272 334.146 761.272 342.279 767.005 353.079C772.739 363.879 775.605 376.946 775.605 392.279C775.605 407.613 772.739 420.679 767.005 431.479C761.272 442.279 753.272 450.479 743.005 456.079C732.872 461.546 721.072 464.279 707.605 464.279ZM707.605 428.279C717.205 428.279 724.272 425.079 728.805 418.679C733.339 412.146 735.605 403.346 735.605 392.279C735.605 381.213 733.339 372.479 728.805 366.079C724.272 359.546 717.205 356.279 707.605 356.279C698.005 356.279 690.939 359.546 686.405 366.079C681.872 372.479 679.605 381.213 679.605 392.279C679.605 403.346 681.872 412.146 686.405 418.679C690.939 425.079 698.005 428.279 707.605 428.279Z" fill="#E0E0E0"/>
<path d="M633.543 462.279H593.543V322.279H633.543V462.279Z" fill="#E0E0E0"/>
<path d="M552.473 462.279H512.473V358.279H473.473V322.279H591.473V358.279H552.473V462.279Z" fill="#E0E0E0"/>
<path d="M414.457 464.279C402.057 464.279 391.257 461.746 382.057 456.679C372.857 451.479 365.79 444.079 360.857 434.479C355.924 424.879 353.457 413.479 353.457 400.279V322.279H393.457V400.279C393.457 409.613 395.324 416.613 399.057 421.279C402.924 425.946 408.057 428.279 414.457 428.279C420.857 428.279 425.924 425.946 429.657 421.279C433.524 416.613 435.457 409.613 435.457 400.279V322.279H475.457V400.279C475.457 413.479 472.99 424.879 468.057 434.479C463.124 444.079 456.057 451.479 446.857 456.679C437.657 461.746 426.857 464.279 414.457 464.279Z" fill="#E0E0E0"/>
<path d="M356.449 462.279H258.449V322.279H298.449V426.279H356.449V462.279Z" fill="#E0E0E0"/>
<path d="M184.402 464.279C170.936 464.279 159.069 461.546 148.802 456.079C138.669 450.479 130.736 442.279 125.002 431.479C119.269 420.679 116.402 407.613 116.402 392.279C116.402 376.946 119.269 363.879 125.002 353.079C130.736 342.279 138.669 334.146 148.802 328.679C159.069 323.079 170.936 320.279 184.402 320.279C197.869 320.279 209.669 323.079 219.802 328.679C230.069 334.146 238.069 342.279 243.802 353.079C249.536 363.879 252.402 376.946 252.402 392.279C252.402 407.613 249.536 420.679 243.802 431.479C238.069 442.279 230.069 450.479 219.802 456.079C209.669 461.546 197.869 464.279 184.402 464.279ZM184.402 428.279C194.002 428.279 201.069 425.079 205.602 418.679C210.136 412.146 212.402 403.346 212.402 392.279C212.402 381.213 210.136 372.479 205.602 366.079C201.069 359.546 194.002 356.279 184.402 356.279C174.802 356.279 167.736 359.546 163.202 366.079C158.669 372.479 156.402 381.213 156.402 392.279C156.402 403.346 158.669 412.146 163.202 418.679C167.736 425.079 174.802 428.279 184.402 428.279Z" fill="#E0E0E0"/>
<path d="M61.3789 464.279C43.9122 464.279 29.5122 460.213 18.1789 452.079C6.97891 443.946 1.04557 432.013 0.378906 416.279H40.3789C40.3789 420.546 42.1789 423.946 45.7789 426.479C49.3789 429.013 54.5789 430.279 61.3789 430.279C74.0456 430.279 80.3789 426.613 80.3789 419.279C80.3789 415.946 78.5789 413.613 74.9789 412.279C71.3789 410.946 65.3789 409.546 56.9789 408.079C46.7122 406.479 38.1122 404.546 31.1789 402.279C24.2456 400.013 18.1789 395.879 12.9789 389.879C7.91224 383.879 5.37891 375.346 5.37891 364.279C5.37891 354.146 8.04557 345.813 13.3789 339.279C18.7122 332.613 25.5789 327.813 33.9789 324.879C42.5122 321.813 51.6456 320.279 61.3789 320.279C79.3789 320.279 93.3789 324.346 103.379 332.479C113.512 340.479 118.846 351.746 119.379 366.279H79.3789C79.3789 362.413 77.8456 359.479 74.7789 357.479C71.7122 355.346 67.5789 354.279 62.3789 354.279C56.7789 354.279 52.7122 355.279 50.1789 357.279C47.6456 359.146 46.3789 361.479 46.3789 364.279C46.3789 367.746 48.2456 370.213 51.9789 371.679C55.8456 373.013 61.9789 374.413 70.3789 375.879C80.6456 377.613 89.1789 379.679 95.9789 382.079C102.912 384.346 108.846 388.346 113.779 394.079C118.846 399.813 121.379 407.879 121.379 418.279C121.379 427.213 119.046 435.146 114.379 442.079C109.712 449.013 102.846 454.479 93.7789 458.479C84.7122 462.346 73.9122 464.279 61.3789 464.279Z" fill="#E0E0E0"/>
<path d="M1117.49 322.279H1078.49V182.279H1128.49L1169.49 264.279H1170.49V182.279H1209.49V322.279H1159.49L1118.49 240.279H1117.49V322.279Z" fill="#E0E0E0"/>
<path d="M916.379 322.279H876.379V182.279H916.379V322.279Z" fill="#E0E0E0"/>
<path d="M835.309 322.279H795.309V218.279H756.309V182.279H874.309V218.279H835.309V322.279Z" fill="#E0E0E0"/>
<path d="M703.395 324.279C689.928 324.279 678.061 321.546 667.795 316.079C657.661 310.479 649.728 302.279 643.995 291.479C638.261 280.679 635.395 267.613 635.395 252.279C635.395 236.946 638.261 223.879 643.995 213.079C649.728 202.279 657.661 194.146 667.795 188.679C678.061 183.079 689.928 180.279 703.395 180.279C722.328 180.279 737.061 185.079 747.595 194.679C758.128 204.146 764.728 216.679 767.395 232.279H726.395C723.861 226.413 720.795 222.279 717.195 219.879C713.595 217.479 708.995 216.279 703.395 216.279C693.795 216.279 686.728 219.546 682.195 226.079C677.661 232.479 675.395 241.213 675.395 252.279C675.395 263.346 677.661 272.146 682.195 278.679C686.728 285.079 693.795 288.279 703.395 288.279C708.995 288.279 713.595 287.079 717.195 284.679C720.795 282.279 723.861 278.146 726.395 272.279H767.395C764.728 287.879 758.128 300.479 747.595 310.079C737.061 319.546 722.328 324.279 703.395 324.279Z" fill="#E0E0E0"/>
<path d="M572.379 324.279C559.979 324.279 549.179 321.746 539.979 316.679C530.779 311.479 523.712 304.079 518.779 294.479C513.846 284.879 511.379 273.479 511.379 260.279V182.279H551.379V260.279C551.379 269.613 553.246 276.613 556.979 281.279C560.846 285.946 565.979 288.279 572.379 288.279C578.779 288.279 583.846 285.946 587.579 281.279C591.446 276.613 593.379 269.613 593.379 260.279V182.279H633.379V260.279C633.379 273.479 630.912 284.879 625.979 294.479C621.046 304.079 613.979 311.479 604.779 316.679C595.579 321.746 584.779 324.279 572.379 324.279Z" fill="#E0E0E0"/>
<path d="M388.441 322.279V182.279H447.441C460.908 182.279 472.508 185.213 482.241 191.079C492.108 196.813 499.575 204.946 504.641 215.479C509.841 226.013 512.441 238.279 512.441 252.279C512.441 266.279 509.841 278.546 504.641 289.079C499.575 299.613 492.108 307.813 482.241 313.679C472.508 319.413 460.908 322.279 447.441 322.279H388.441ZM445.441 286.279C450.108 286.279 454.508 284.879 458.641 282.079C462.775 279.279 466.108 275.346 468.641 270.279C471.175 265.079 472.441 259.079 472.441 252.279C472.441 245.479 471.175 239.546 468.641 234.479C466.108 229.279 462.775 225.279 458.641 222.479C454.508 219.679 450.108 218.279 445.441 218.279H428.441V286.279H445.441Z" fill="#E0E0E0"/>
<path d="M314.395 324.279C300.928 324.279 289.061 321.546 278.795 316.079C268.661 310.479 260.728 302.279 254.995 291.479C249.261 280.679 246.395 267.613 246.395 252.279C246.395 236.946 249.261 223.879 254.995 213.079C260.728 202.279 268.661 194.146 278.795 188.679C289.061 183.079 300.928 180.279 314.395 180.279C327.861 180.279 339.661 183.079 349.795 188.679C360.061 194.146 368.061 202.279 373.795 213.079C379.528 223.879 382.395 236.946 382.395 252.279C382.395 267.613 379.528 280.679 373.795 291.479C368.061 302.279 360.061 310.479 349.795 316.079C339.661 321.546 327.861 324.279 314.395 324.279ZM314.395 288.279C323.995 288.279 331.061 285.079 335.595 278.679C340.128 272.146 342.395 263.346 342.395 252.279C342.395 241.213 340.128 232.479 335.595 226.079C331.061 219.546 323.995 216.279 314.395 216.279C304.795 216.279 297.728 219.546 293.195 226.079C288.661 232.479 286.395 241.213 286.395 252.279C286.395 263.346 288.661 272.146 293.195 278.679C297.728 285.079 304.795 288.279 314.395 288.279Z" fill="#E0E0E0"/>
<path d="M250.41 322.279H206.41L179.41 277.279H170.41V322.279H130.41V182.279H194.41C204.543 182.279 213.343 184.413 220.81 188.679C228.41 192.946 234.21 198.746 238.21 206.079C242.343 213.413 244.41 221.679 244.41 230.879C244.41 239.946 242.143 248.146 237.61 255.479C233.077 262.813 226.81 268.346 218.81 272.079L250.41 322.279ZM170.41 217.279V244.279H191.41C195.543 244.279 198.877 243.079 201.41 240.679C204.077 238.146 205.41 234.879 205.41 230.879C205.41 226.746 204.077 223.479 201.41 221.079C198.877 218.546 195.543 217.279 191.41 217.279H170.41Z" fill="#E0E0E0"/>
<path d="M10.3789 322.279V182.279H72.3789C82.5122 182.279 91.5122 184.479 99.3789 188.879C107.379 193.146 113.512 199.146 117.779 206.879C122.179 214.613 124.379 223.413 124.379 233.279C124.379 243.146 122.179 251.946 117.779 259.679C113.512 267.413 107.379 273.479 99.3789 277.879C91.5122 282.146 82.5122 284.279 72.3789 284.279H50.3789V322.279H10.3789ZM68.3789 249.279C73.3122 249.279 77.1789 247.879 79.9789 245.079C82.9122 242.146 84.3789 238.213 84.3789 233.279C84.3789 228.346 82.9122 224.479 79.9789 221.679C77.1789 218.746 73.3122 217.279 68.3789 217.279H50.3789V249.279H68.3789Z" fill="#E0E0E0"/>
<path d="M696.629 128.279V147.279H758.629V182.279H656.629V42.2793H756.629V77.2793H696.629V95.2793H752.629V128.279H696.629Z" fill="#E0E0E0"/>
<path d="M615.559 182.279H575.559V78.2793H536.559V42.2793H654.559V78.2793H615.559V182.279Z" fill="#E0E0E0"/>
<path d="M482.473 184.279C469.006 184.279 457.139 181.546 446.873 176.079C436.739 170.479 428.806 162.279 423.073 151.479C417.339 140.679 414.473 127.613 414.473 112.279C414.473 96.946 417.339 83.8793 423.073 73.0793C428.806 62.2793 436.739 54.146 446.873 48.6793C457.139 43.0793 469.006 40.2793 482.473 40.2793C495.939 40.2793 507.739 43.0793 517.873 48.6793C528.139 54.146 536.139 62.2793 541.873 73.0793C547.606 83.8793 550.473 96.946 550.473 112.279C550.473 127.613 547.606 140.679 541.873 151.479C536.139 162.279 528.139 170.479 517.873 176.079C507.739 181.546 495.939 184.279 482.473 184.279ZM482.473 148.279C492.073 148.279 499.139 145.079 503.673 138.679C508.206 132.146 510.473 123.346 510.473 112.279C510.473 101.213 508.206 92.4793 503.673 86.0793C499.139 79.546 492.073 76.2793 482.473 76.2793C472.873 76.2793 465.806 79.546 461.273 86.0793C456.739 92.4793 454.473 101.213 454.473 112.279C454.473 123.346 456.739 132.146 461.273 138.679C465.806 145.079 472.873 148.279 482.473 148.279Z" fill="#E0E0E0"/>
<path d="M280.457 182.279H241.457V42.2793H296.257L324.857 127.279H325.857L354.457 42.2793H408.457V182.279H369.457V97.2793H368.457L339.457 182.279H310.457L281.457 97.2793H280.457V182.279Z" fill="#E0E0E0"/>
<path d="M172.363 128.279V147.279H234.363V182.279H132.363V42.2793H232.363V77.2793H172.363V95.2793H228.363V128.279H172.363Z" fill="#E0E0E0"/>
<path d="M130.379 182.279H86.3789L59.3789 137.279H50.3789V182.279H10.3789V42.2793H74.3789C84.5122 42.2793 93.3122 44.4126 100.779 48.6793C108.379 52.946 114.179 58.746 118.179 66.0793C122.312 73.4126 124.379 81.6793 124.379 90.8793C124.379 99.946 122.112 108.146 117.579 115.479C113.046 122.813 106.779 128.346 98.7789 132.079L130.379 182.279ZM50.3789 77.2793V104.279H71.3789C75.5122 104.279 78.8456 103.079 81.3789 100.679C84.0456 98.146 85.3789 94.8793 85.3789 90.8793C85.3789 86.746 84.0456 83.4793 81.3789 81.0793C78.8456 78.546 75.5122 77.2793 71.3789 77.2793H50.3789Z" fill="#E0E0E0"/>
<circle cx="996.379" cy="250.602" r="75" fill="#D9D9D9"/>
<path fill-rule="evenodd" clip-rule="evenodd" d="M1019.39 217.622C1020.6 218.775 1020.79 220.408 1019.52 221.492C1018.27 222.56 1016.4 222.408 1015.19 221.295C1005.46 212.354 990.556 211.865 980.507 220.447C979.586 221.234 977.995 221.959 976.465 220.167C975.109 218.579 976.015 216.96 976.891 216.213C989.49 205.452 1007.52 206.263 1019.39 217.622ZM1011.36 224.425C1012.66 225.512 1012.75 227.275 1011.46 228.374C1010.23 229.429 1008.57 229.137 1007.27 228.161C1001.63 223.914 993.083 224.073 987.662 228.702C987.009 229.261 985.054 230.225 983.559 228.474C982.186 226.866 983.309 225.007 984.001 224.416C991.939 217.636 1003.52 217.85 1011.36 224.425ZM1024.65 275.021C1024.65 271.868 1022.09 269.309 1018.94 269.309C1018.55 269.309 1018.16 269.355 1017.79 269.424V268.943C1017.79 265.791 1015.24 263.232 1012.08 263.232C1011.56 263.232 1011.03 263.3 1010.55 263.437C1009.71 261.313 1007.65 259.805 1005.23 259.805C1004.84 259.805 1003.71 259.991 1003.23 260.124V253.46C1003.23 249.818 1001.5 247.355 997.983 247.355C994.83 247.355 992.664 249.914 992.664 253.067V277.018C991.887 276.31 990.927 275.785 989.876 275.51L988.117 275.031C986.221 274.505 984.233 275.236 983.114 276.927C982.246 278.229 982.2 279.92 982.771 281.382L988.117 294.102C990.996 301.368 998.535 305.102 1006.37 305.102C1016.47 305.102 1024.65 296.2 1024.65 286.102V275.021ZM1009.23 246.203C1009.23 249.682 1007.69 252.802 1005.26 254.922V252.673C1005.26 247.63 1002.86 244.218 997.99 244.218C993.623 244.218 990.622 247.762 990.622 252.129V255.381C987.869 253.267 986.094 249.942 986.094 246.203C986.094 239.815 991.273 234.636 997.66 234.636C1004.05 234.636 1009.23 239.815 1009.23 246.203ZM955.284 240.765C954.179 240.765 953.284 239.87 953.284 238.765V235.242C953.284 233.613 951.44 232.667 950.116 233.618L935.086 244.421C933.946 245.24 933.982 246.948 935.156 247.718L950.186 257.582C951.516 258.454 953.284 257.5 953.284 255.909V252.618C953.284 251.513 954.179 250.618 955.284 250.618H976.986C978.091 250.618 978.986 249.723 978.986 248.618V242.765C978.986 241.661 978.091 240.765 976.986 240.765H955.284ZM1041.78 252.437C1041.78 251.333 1040.89 250.437 1039.78 250.437H1018.08C1016.98 250.437 1016.08 249.542 1016.08 248.437V242.585C1016.08 241.48 1016.98 240.585 1018.08 240.585L1039.78 240.585C1040.89 240.585 1041.78 239.689 1041.78 238.585V235.293C1041.78 233.702 1043.55 232.748 1044.88 233.621L1059.91 243.485C1061.09 244.255 1061.12 245.962 1059.98 246.781L1044.95 257.585C1043.63 258.536 1041.78 257.59 1041.78 255.961V252.437Z" fill="#8E56E4"/>
</svg>
