<svg width="980" height="543" viewBox="0 0 980 543" fill="none" xmlns="http://www.w3.org/2000/svg">
<rect x="220.862" y="247.901" width="44.9173" height="28.6868" rx="5.35866" fill="#E0E0E0"/>
<path fill-rule="evenodd" clip-rule="evenodd" d="M205.577 252.645C205.577 250.13 208.502 248.748 210.445 250.346L221.585 259.506C223.004 260.673 223.038 262.833 221.657 264.044L210.517 273.815C208.593 275.503 205.577 274.136 205.577 271.577V252.645Z" fill="#E0E0E0"/>
<rect width="44.9162" height="28.6875" rx="5.35866" transform="matrix(0.965949 0.258732 -0.258906 0.965902 220.853 332.852)" fill="#E0E0E0"/>
<path fill-rule="evenodd" clip-rule="evenodd" d="M204.861 333.479C205.512 331.05 208.696 330.472 210.159 332.518L218.548 344.248C219.616 345.742 219.09 347.837 217.443 348.65L204.152 355.206C201.856 356.338 199.297 354.238 199.96 351.766L204.861 333.479Z" fill="#E0E0E0"/>
<rect width="44.9162" height="28.6875" rx="5.35866" transform="matrix(0.965949 -0.258732 0.258906 0.965902 211.358 166.462)" fill="#E0E0E0"/>
<path fill-rule="evenodd" clip-rule="evenodd" d="M197.824 174.998C197.173 172.568 199.641 170.477 201.931 171.517L215.063 177.483C216.735 178.243 217.328 180.32 216.308 181.847L208.077 194.168C206.655 196.296 203.388 195.757 202.726 193.284L197.824 174.998Z" fill="#E0E0E0"/>
<path fill-rule="evenodd" clip-rule="evenodd" d="M333.597 249.24C329.98 249.24 327.048 252.173 327.048 255.79V268.702C327.048 272.32 329.98 275.252 333.597 275.252H400.42C404.037 275.252 406.97 272.32 406.97 268.702V255.79C406.97 252.173 404.037 249.24 400.42 249.24H333.597ZM378.774 253.886C377.537 253.886 376.534 254.889 376.534 256.126V268.367C376.534 269.605 377.537 270.608 378.774 270.608C380.012 270.608 381.015 269.605 381.015 268.367V256.126C381.015 254.889 380.012 253.886 378.774 253.886ZM386.673 253.886C385.435 253.886 384.432 254.889 384.432 256.126V268.367C384.432 269.605 385.435 270.608 386.673 270.608C387.91 270.608 388.913 269.605 388.913 268.367V256.126C388.913 254.889 387.91 253.886 386.673 253.886ZM392.333 256.126C392.333 254.889 393.336 253.886 394.573 253.886C395.81 253.886 396.813 254.889 396.813 256.126V268.367C396.813 269.605 395.81 270.608 394.573 270.608C393.336 270.608 392.333 269.605 392.333 268.367V256.126Z" fill="#E0E0E0"/>
<path fill-rule="evenodd" clip-rule="evenodd" d="M663.07 249.24C659.453 249.24 656.52 252.173 656.52 255.79V268.702C656.52 272.32 659.453 275.252 663.07 275.252H729.893C733.51 275.252 736.442 272.32 736.442 268.702V255.79C736.442 252.173 733.51 249.24 729.893 249.24H663.07ZM708.247 253.886C707.01 253.886 706.007 254.889 706.007 256.126V268.367C706.007 269.605 707.01 270.608 708.247 270.608C709.484 270.608 710.487 269.605 710.487 268.367V256.126C710.487 254.889 709.484 253.886 708.247 253.886ZM716.145 253.886C714.908 253.886 713.905 254.889 713.905 256.126V268.367C713.905 269.605 714.908 270.608 716.145 270.608C717.383 270.608 718.386 269.605 718.386 268.367V256.126C718.386 254.889 717.383 253.886 716.145 253.886ZM721.805 256.126C721.805 254.889 722.808 253.886 724.046 253.886C725.283 253.886 726.286 254.889 726.286 256.126V268.367C726.286 269.605 725.283 270.608 724.046 270.608C722.808 270.608 721.805 269.605 721.805 268.367V256.126Z" fill="#E0E0E0"/>
<path d="M316.784 262.878C317.133 262.529 317.133 261.963 316.784 261.615L311.101 255.931C310.752 255.582 310.186 255.582 309.838 255.931C309.489 256.28 309.489 256.845 309.838 257.194L314.89 262.246L309.838 267.298C309.489 267.647 309.489 268.213 309.838 268.561C310.186 268.91 310.752 268.91 311.101 268.561L316.784 262.878ZM265.78 263.139L316.153 263.139L316.153 261.353L265.78 261.353L265.78 263.139Z" fill="#E0E0E0"/>
<path d="M802.486 262.878C802.835 262.529 802.835 261.963 802.486 261.615L796.802 255.931C796.453 255.582 795.888 255.582 795.539 255.931C795.19 256.28 795.19 256.845 795.539 257.194L800.591 262.246L795.539 267.298C795.19 267.647 795.19 268.213 795.539 268.561C795.888 268.91 796.453 268.91 796.802 268.561L802.486 262.878ZM766.522 263.139L801.854 263.139L801.854 261.353L766.522 261.353L766.522 263.139Z" fill="#E0E0E0"/>
<path fill-rule="evenodd" clip-rule="evenodd" d="M333.597 155.269C329.98 155.269 327.048 158.201 327.048 161.818V174.731C327.048 178.348 329.98 181.28 333.597 181.28H400.42C404.037 181.28 406.97 178.348 406.97 174.731V161.818C406.97 158.201 404.037 155.269 400.42 155.269H333.597ZM378.774 159.913C377.537 159.913 376.534 160.916 376.534 162.153V174.395C376.534 175.632 377.537 176.635 378.774 176.635C380.012 176.635 381.015 175.632 381.015 174.395V162.153C381.015 160.916 380.012 159.913 378.774 159.913ZM386.673 159.913C385.435 159.913 384.432 160.916 384.432 162.153V174.395C384.432 175.632 385.435 176.635 386.673 176.635C387.91 176.635 388.913 175.632 388.913 174.395V162.153C388.913 160.916 387.91 159.913 386.673 159.913ZM392.333 162.153C392.333 160.916 393.336 159.913 394.573 159.913C395.81 159.913 396.813 160.916 396.813 162.153V174.395C396.813 175.632 395.81 176.635 394.573 176.635C393.336 176.635 392.333 175.632 392.333 174.395V162.153Z" fill="#E0E0E0"/>
<path d="M279.226 255.615C277.88 255.615 276.773 255.294 275.903 254.651C275.034 253.996 274.516 253.079 274.349 251.9L276.582 251.9C276.725 252.459 277.023 252.894 277.475 253.204C277.94 253.513 278.523 253.668 279.226 253.668C280.107 253.668 280.762 253.507 281.191 253.186C281.619 252.852 281.834 252.418 281.834 251.882C281.834 251.513 281.709 251.215 281.459 250.989C281.22 250.763 280.917 250.59 280.548 250.471C280.19 250.352 279.69 250.221 279.047 250.078C278.13 249.875 277.386 249.667 276.814 249.453C276.255 249.226 275.772 248.863 275.368 248.363C274.963 247.863 274.76 247.178 274.76 246.309C274.76 245.594 274.945 244.969 275.314 244.433C275.695 243.886 276.225 243.469 276.904 243.183C277.582 242.897 278.356 242.754 279.226 242.754C280.559 242.754 281.619 243.064 282.405 243.683C283.191 244.302 283.673 245.136 283.852 246.184L281.619 246.184C281.488 245.731 281.22 245.374 280.815 245.112C280.423 244.838 279.91 244.701 279.279 244.701C278.565 244.701 278.011 244.856 277.618 245.166C277.237 245.463 277.047 245.845 277.047 246.309C277.047 246.714 277.172 247.041 277.422 247.291C277.684 247.53 278.005 247.714 278.386 247.845C278.767 247.976 279.291 248.119 279.958 248.274C280.851 248.488 281.572 248.702 282.119 248.917C282.667 249.131 283.138 249.477 283.531 249.953C283.924 250.429 284.12 251.072 284.12 251.882C284.12 252.573 283.929 253.204 283.548 253.775C283.167 254.335 282.608 254.782 281.869 255.115C281.131 255.448 280.25 255.615 279.226 255.615ZM285.376 255.437L285.376 242.933L289.949 242.933C291.092 242.933 292.086 243.177 292.932 243.665C293.789 244.154 294.45 244.868 294.914 245.809C295.391 246.75 295.629 247.875 295.629 249.185C295.629 250.495 295.391 251.62 294.914 252.561C294.45 253.501 293.789 254.216 292.932 254.704C292.086 255.192 291.092 255.437 289.949 255.437L285.376 255.437ZM289.895 253.436C290.574 253.436 291.175 253.275 291.699 252.954C292.223 252.632 292.634 252.156 292.932 251.525C293.241 250.882 293.396 250.102 293.396 249.185C293.396 248.268 293.241 247.494 292.932 246.863C292.634 246.22 292.223 245.737 291.699 245.416C291.175 245.094 290.574 244.934 289.895 244.934L287.609 244.934L287.609 253.436L289.895 253.436ZM299.296 255.437L297.064 255.437L297.064 242.933L299.296 242.933L299.296 255.437Z" fill="#E0E0E0"/>
<path fill-rule="evenodd" clip-rule="evenodd" d="M663.07 155.269C659.453 155.269 656.52 158.201 656.52 161.818V174.731C656.52 178.348 659.453 181.28 663.07 181.28H729.893C733.51 181.28 736.442 178.348 736.442 174.731V161.818C736.442 158.201 733.51 155.269 729.893 155.269H663.07ZM716.145 159.913C714.908 159.913 713.905 160.916 713.905 162.153V174.395C713.905 175.632 714.908 176.635 716.145 176.635C717.383 176.635 718.386 175.632 718.386 174.395V162.153C718.386 160.916 717.383 159.913 716.145 159.913ZM708.247 159.913C707.01 159.913 706.007 160.916 706.007 162.154V174.395C706.007 175.632 707.01 176.635 708.247 176.635C709.484 176.635 710.487 175.632 710.487 174.395V162.154C710.487 160.916 709.484 159.913 708.247 159.913ZM721.805 162.154C721.805 160.916 722.808 159.913 724.046 159.913C725.283 159.913 726.286 160.916 726.286 162.154V174.395C726.286 175.632 725.283 176.635 724.046 176.635C722.808 176.635 721.805 175.632 721.805 174.395V162.154Z" fill="#E0E0E0"/>
<path d="M316.784 168.905C317.133 168.556 317.133 167.991 316.784 167.642L311.1 161.958C310.752 161.609 310.186 161.609 309.837 161.958C309.489 162.307 309.489 162.872 309.837 163.221L314.89 168.273L309.837 173.326C309.489 173.674 309.489 174.24 309.837 174.589C310.186 174.937 310.752 174.937 311.1 174.589L316.784 168.905ZM256.028 169.167L316.153 169.167L316.153 167.38L256.028 167.38L256.028 169.167Z" fill="#E0E0E0"/>
<path d="M280.093 162.066C278.747 162.066 277.64 161.745 276.771 161.102C275.901 160.447 275.383 159.53 275.217 158.351L277.449 158.351C277.592 158.911 277.89 159.345 278.342 159.655C278.807 159.965 279.39 160.119 280.093 160.119C280.974 160.119 281.629 159.959 282.058 159.637C282.486 159.304 282.701 158.869 282.701 158.333C282.701 157.964 282.576 157.666 282.326 157.44C282.088 157.214 281.784 157.041 281.415 156.922C281.058 156.803 280.557 156.672 279.914 156.529C278.997 156.327 278.253 156.118 277.682 155.904C277.122 155.678 276.64 155.314 276.235 154.814C275.83 154.314 275.627 153.629 275.627 152.76C275.627 152.046 275.812 151.42 276.181 150.885C276.562 150.337 277.092 149.92 277.771 149.634C278.45 149.348 279.224 149.206 280.093 149.206C281.427 149.206 282.486 149.515 283.272 150.134C284.058 150.754 284.541 151.587 284.719 152.635L282.486 152.635C282.355 152.183 282.088 151.825 281.683 151.563C281.29 151.289 280.778 151.153 280.147 151.153C279.432 151.153 278.878 151.307 278.485 151.617C278.104 151.915 277.914 152.296 277.914 152.76C277.914 153.165 278.039 153.492 278.289 153.743C278.551 153.981 278.872 154.165 279.253 154.296C279.634 154.427 280.158 154.57 280.825 154.725C281.718 154.939 282.439 155.154 282.987 155.368C283.534 155.582 284.005 155.928 284.398 156.404C284.791 156.88 284.987 157.523 284.987 158.333C284.987 159.024 284.797 159.655 284.416 160.227C284.035 160.786 283.475 161.233 282.737 161.566C281.998 161.9 281.117 162.066 280.093 162.066ZM286.243 161.888L286.243 149.384L290.816 149.384C291.959 149.384 292.953 149.628 293.799 150.117C294.656 150.605 295.317 151.319 295.781 152.26C296.258 153.201 296.496 154.326 296.496 155.636C296.496 156.946 296.258 158.071 295.781 159.012C295.317 159.953 294.656 160.667 293.799 161.155C292.953 161.644 291.959 161.888 290.816 161.888L286.243 161.888ZM290.762 159.887C291.441 159.887 292.042 159.726 292.566 159.405C293.09 159.083 293.501 158.607 293.799 157.976C294.108 157.333 294.263 156.553 294.263 155.636C294.263 154.719 294.108 153.945 293.799 153.314C293.501 152.671 293.09 152.189 292.566 151.867C292.042 151.545 291.441 151.385 290.762 151.385L288.476 151.385L288.476 159.887L290.762 159.887ZM300.164 161.888L297.931 161.888L297.931 149.384L300.164 149.384L300.164 161.888Z" fill="#E0E0E0"/>
<path d="M217.804 126.797C216.649 126.797 215.631 126.547 214.75 126.047C213.881 125.546 213.208 124.814 212.732 123.85C212.255 122.885 212.017 121.724 212.017 120.366C212.017 119.009 212.255 117.848 212.732 116.883C213.208 115.919 213.881 115.186 214.75 114.686C215.631 114.186 216.649 113.936 217.804 113.936C219.198 113.936 220.335 114.275 221.216 114.954C222.109 115.633 222.74 116.586 223.11 117.812H220.787C220.514 117.193 220.133 116.728 219.644 116.419C219.168 116.097 218.555 115.937 217.804 115.937C216.733 115.937 215.869 116.324 215.214 117.098C214.571 117.86 214.25 118.949 214.25 120.366C214.25 121.783 214.571 122.879 215.214 123.653C215.869 124.415 216.733 124.796 217.804 124.796C218.555 124.796 219.168 124.641 219.644 124.332C220.133 124.01 220.514 123.54 220.787 122.921H223.11C222.74 124.147 222.109 125.1 221.216 125.779C220.335 126.457 219.198 126.797 217.804 126.797ZM228.228 117.044C229.443 117.044 230.39 117.348 231.068 117.955C231.747 118.562 232.087 119.414 232.087 120.509V126.618H230.354L230.122 125.475H230.032C229.818 125.82 229.473 126.13 228.996 126.404C228.532 126.666 227.978 126.797 227.335 126.797C226.68 126.797 226.103 126.672 225.603 126.422C225.114 126.172 224.733 125.826 224.459 125.386C224.197 124.945 224.066 124.445 224.066 123.885C224.066 123.028 224.382 122.331 225.013 121.795C225.644 121.248 226.525 120.974 227.657 120.974H230.032V120.456C230.032 119.944 229.866 119.551 229.532 119.277C229.199 118.991 228.746 118.848 228.175 118.848C227.746 118.848 227.383 118.943 227.085 119.134C226.787 119.313 226.585 119.551 226.478 119.848H224.388C224.59 119.015 225.019 118.342 225.674 117.83C226.341 117.306 227.192 117.044 228.228 117.044ZM227.71 125.046C228.413 125.046 228.973 124.856 229.389 124.475C229.818 124.082 230.032 123.576 230.032 122.956V122.546H227.71C227.186 122.546 226.787 122.659 226.514 122.885C226.252 123.111 226.121 123.409 226.121 123.778C226.121 124.159 226.258 124.469 226.531 124.707C226.805 124.933 227.198 125.046 227.71 125.046ZM234.283 126.618V117.223H236.016L236.248 118.366H236.338C236.885 117.485 237.665 117.044 238.678 117.044C239.237 117.044 239.749 117.187 240.214 117.473C240.69 117.759 241.053 118.146 241.303 118.634H241.393C241.643 118.146 242.03 117.759 242.554 117.473C243.078 117.187 243.649 117.044 244.268 117.044C244.923 117.044 245.507 117.199 246.019 117.508C246.531 117.806 246.93 118.241 247.216 118.812C247.513 119.372 247.662 120.033 247.662 120.795V126.618H245.608V121.009C245.608 120.319 245.441 119.795 245.108 119.438C244.775 119.08 244.334 118.902 243.786 118.902C243.286 118.902 242.863 119.092 242.518 119.473C242.173 119.854 242 120.366 242 121.009V126.618H239.946V121.009C239.946 120.319 239.779 119.795 239.446 119.438C239.112 119.08 238.672 118.902 238.124 118.902C237.624 118.902 237.201 119.092 236.856 119.473C236.51 119.854 236.338 120.366 236.338 121.009V126.618H234.283ZM258.309 121.635C258.309 121.968 258.28 122.284 258.22 122.581H251.522C251.617 123.367 251.867 123.969 252.272 124.385C252.677 124.79 253.225 124.993 253.915 124.993C254.404 124.993 254.796 124.903 255.094 124.725C255.404 124.534 255.672 124.254 255.898 123.885H258.095C257.821 124.755 257.333 125.457 256.63 125.993C255.928 126.529 255.023 126.797 253.915 126.797C252.534 126.797 251.438 126.368 250.629 125.511C249.819 124.653 249.414 123.457 249.414 121.92C249.414 120.896 249.599 120.021 249.968 119.295C250.337 118.556 250.855 117.997 251.522 117.616C252.201 117.235 252.986 117.044 253.88 117.044C254.785 117.044 255.571 117.252 256.237 117.669C256.904 118.086 257.416 118.646 257.774 119.348C258.131 120.039 258.309 120.801 258.309 121.635ZM256.273 121.009C256.19 120.414 255.94 119.908 255.523 119.491C255.118 119.062 254.57 118.848 253.88 118.848C253.237 118.848 252.707 119.045 252.29 119.438C251.885 119.819 251.629 120.343 251.522 121.009H256.273ZM260.135 126.618V117.223H261.867L262.1 118.366H262.189C262.677 117.604 263.457 117.223 264.529 117.223H265.618V119.187H264.636C263.898 119.187 263.302 119.402 262.85 119.831C262.409 120.247 262.189 120.807 262.189 121.51V126.618H260.135ZM270.389 117.044C271.604 117.044 272.551 117.348 273.229 117.955C273.908 118.562 274.248 119.414 274.248 120.509V126.618H272.515L272.283 125.475H272.193C271.979 125.82 271.634 126.13 271.157 126.404C270.693 126.666 270.139 126.797 269.496 126.797C268.841 126.797 268.264 126.672 267.764 126.422C267.275 126.172 266.894 125.826 266.62 125.386C266.358 124.945 266.227 124.445 266.227 123.885C266.227 123.028 266.543 122.331 267.174 121.795C267.805 121.248 268.687 120.974 269.818 120.974H272.193V120.456C272.193 119.944 272.027 119.551 271.693 119.277C271.36 118.991 270.907 118.848 270.336 118.848C269.907 118.848 269.544 118.943 269.246 119.134C268.948 119.313 268.746 119.551 268.639 119.848H266.549C266.751 119.015 267.18 118.342 267.835 117.83C268.502 117.306 269.353 117.044 270.389 117.044ZM269.871 125.046C270.574 125.046 271.134 124.856 271.55 124.475C271.979 124.082 272.193 123.576 272.193 122.956V122.546H269.871C269.347 122.546 268.948 122.659 268.675 122.885C268.413 123.111 268.282 123.409 268.282 123.778C268.282 124.159 268.419 124.469 268.692 124.707C268.966 124.933 269.359 125.046 269.871 125.046Z" fill="#E0E0E0"/>
<path fill-rule="evenodd" clip-rule="evenodd" d="M333.597 344.756C329.98 344.756 327.048 347.688 327.048 351.305V364.218C327.048 367.835 329.98 370.768 333.597 370.768H400.42C404.037 370.768 406.97 367.835 406.97 364.218V351.305C406.97 347.688 404.037 344.756 400.42 344.756H333.597ZM378.774 349.4C377.537 349.4 376.534 350.403 376.534 351.641V363.882C376.534 365.119 377.537 366.122 378.774 366.122C380.012 366.122 381.015 365.119 381.015 363.882V351.641C381.015 350.403 380.012 349.4 378.774 349.4ZM386.673 349.4C385.435 349.4 384.432 350.403 384.432 351.641V363.882C384.432 365.119 385.435 366.122 386.673 366.122C387.91 366.122 388.913 365.119 388.913 363.882V351.641C388.913 350.403 387.91 349.4 386.673 349.4ZM392.333 351.641C392.333 350.403 393.336 349.4 394.573 349.4C395.81 349.4 396.813 350.403 396.813 351.641V363.882C396.813 365.119 395.81 366.122 394.573 366.122C393.336 366.122 392.333 365.119 392.333 363.882V351.641Z" fill="#E0E0E0"/>
<path d="M334.888 121.26V124.618H341.068V126.618H332.655V114.115H340.89V116.115H334.888V119.384H340.532V121.26H334.888ZM342.82 126.618V117.223H344.552L344.785 118.366H344.874C345.172 117.925 345.547 117.598 345.999 117.383C346.452 117.157 346.934 117.044 347.446 117.044C348.125 117.044 348.726 117.199 349.25 117.508C349.774 117.806 350.185 118.247 350.483 118.83C350.78 119.402 350.929 120.075 350.929 120.849V126.618H348.875V121.063C348.875 120.384 348.696 119.854 348.339 119.473C347.994 119.092 347.523 118.902 346.928 118.902C346.333 118.902 345.838 119.11 345.445 119.527C345.064 119.932 344.874 120.444 344.874 121.063V126.618H342.82ZM357.184 126.797C355.802 126.797 354.707 126.368 353.897 125.511C353.087 124.653 352.682 123.457 352.682 121.92C352.682 120.384 353.087 119.187 353.897 118.33C354.707 117.473 355.802 117.044 357.184 117.044C358.303 117.044 359.208 117.324 359.899 117.884C360.601 118.443 361.089 119.193 361.363 120.134H359.273C358.821 119.313 358.124 118.902 357.184 118.902C356.457 118.902 355.868 119.164 355.415 119.688C354.963 120.212 354.736 120.956 354.736 121.92C354.736 122.885 354.963 123.629 355.415 124.153C355.868 124.677 356.457 124.939 357.184 124.939C358.124 124.939 358.821 124.528 359.273 123.707H361.363C361.089 124.647 360.601 125.398 359.899 125.957C359.196 126.517 358.291 126.797 357.184 126.797ZM366.865 126.797C365.483 126.797 364.388 126.368 363.578 125.511C362.768 124.653 362.363 123.457 362.363 121.92C362.363 120.384 362.768 119.187 363.578 118.33C364.388 117.473 365.483 117.044 366.865 117.044C368.246 117.044 369.342 117.473 370.151 118.33C370.961 119.187 371.366 120.384 371.366 121.92C371.366 123.457 370.961 124.653 370.151 125.511C369.342 126.368 368.246 126.797 366.865 126.797ZM366.865 124.939C367.591 124.939 368.181 124.683 368.633 124.171C369.086 123.659 369.312 122.909 369.312 121.92C369.312 120.932 369.086 120.182 368.633 119.67C368.181 119.158 367.591 118.902 366.865 118.902C366.15 118.902 365.561 119.158 365.096 119.67C364.644 120.182 364.418 120.932 364.418 121.92C364.418 122.909 364.644 123.659 365.096 124.171C365.561 124.683 366.15 124.939 366.865 124.939ZM376.832 126.797C376.035 126.797 375.326 126.612 374.707 126.243C374.099 125.862 373.623 125.308 373.278 124.582C372.932 123.844 372.76 122.956 372.76 121.92C372.76 120.884 372.932 120.003 373.278 119.277C373.623 118.538 374.099 117.985 374.707 117.616C375.326 117.235 376.035 117.044 376.832 117.044C377.464 117.044 378.005 117.163 378.458 117.401C378.922 117.639 379.291 117.931 379.565 118.277H379.655V114.115H381.709V126.618H379.976L379.744 125.475H379.655C379.345 125.88 378.952 126.201 378.476 126.44C378.011 126.678 377.464 126.797 376.832 126.797ZM377.225 124.939C377.952 124.939 378.535 124.683 378.976 124.171C379.428 123.659 379.655 122.909 379.655 121.92C379.655 120.932 379.428 120.182 378.976 119.67C378.535 119.158 377.952 118.902 377.225 118.902C376.511 118.902 375.927 119.158 375.475 119.67C375.034 120.182 374.814 120.932 374.814 121.92C374.814 122.909 375.034 123.659 375.475 124.171C375.927 124.683 376.511 124.939 377.225 124.939ZM392.522 121.635C392.522 121.968 392.493 122.284 392.433 122.581H385.735C385.83 123.367 386.08 123.969 386.485 124.385C386.89 124.79 387.438 124.993 388.128 124.993C388.617 124.993 389.01 124.903 389.307 124.725C389.617 124.534 389.885 124.254 390.111 123.885H392.308C392.034 124.755 391.546 125.457 390.843 125.993C390.141 126.529 389.236 126.797 388.128 126.797C386.747 126.797 385.652 126.368 384.842 125.511C384.032 124.653 383.627 123.457 383.627 121.92C383.627 120.896 383.812 120.021 384.181 119.295C384.55 118.556 385.068 117.997 385.735 117.616C386.414 117.235 387.2 117.044 388.093 117.044C388.998 117.044 389.784 117.252 390.45 117.669C391.117 118.086 391.629 118.646 391.987 119.348C392.344 120.039 392.522 120.801 392.522 121.635ZM390.486 121.009C390.403 120.414 390.153 119.908 389.736 119.491C389.331 119.062 388.783 118.848 388.093 118.848C387.45 118.848 386.92 119.045 386.503 119.438C386.098 119.819 385.842 120.343 385.735 121.009H390.486ZM394.348 126.618V117.223H396.081L396.313 118.366H396.402C396.89 117.604 397.67 117.223 398.742 117.223H399.832V119.187H398.849C398.111 119.187 397.515 119.402 397.063 119.831C396.622 120.247 396.402 120.807 396.402 121.51V126.618H394.348Z" fill="#E0E0E0"/>
<path d="M480.016 485.552C478.671 485.552 477.563 485.23 476.694 484.587C475.825 483.932 475.307 483.015 475.14 481.836H477.373C477.516 482.396 477.813 482.831 478.266 483.14C478.73 483.45 479.314 483.605 480.016 483.605C480.898 483.605 481.553 483.444 481.981 483.122C482.41 482.789 482.624 482.354 482.624 481.818C482.624 481.449 482.499 481.152 482.249 480.925C482.011 480.699 481.707 480.526 481.338 480.407C480.981 480.288 480.481 480.157 479.838 480.014C478.921 479.812 478.177 479.604 477.605 479.389C477.045 479.163 476.563 478.8 476.158 478.3C475.753 477.799 475.551 477.115 475.551 476.245C475.551 475.531 475.735 474.906 476.105 474.37C476.486 473.822 477.016 473.405 477.694 473.12C478.373 472.834 479.147 472.691 480.016 472.691C481.35 472.691 482.41 473.001 483.196 473.62C483.982 474.239 484.464 475.073 484.643 476.12H482.41C482.279 475.668 482.011 475.311 481.606 475.049C481.213 474.775 480.701 474.638 480.07 474.638C479.356 474.638 478.802 474.793 478.409 475.102C478.028 475.4 477.837 475.781 477.837 476.245C477.837 476.65 477.962 476.978 478.212 477.228C478.474 477.466 478.796 477.651 479.177 477.782C479.558 477.913 480.082 478.056 480.749 478.21C481.642 478.425 482.362 478.639 482.91 478.853C483.458 479.068 483.928 479.413 484.321 479.889C484.714 480.366 484.911 481.009 484.911 481.818C484.911 482.509 484.72 483.14 484.339 483.712C483.958 484.272 483.398 484.718 482.66 485.052C481.922 485.385 481.041 485.552 480.016 485.552ZM495.115 480.389C495.115 480.723 495.086 481.038 495.026 481.336H488.328C488.423 482.122 488.673 482.723 489.078 483.14C489.483 483.545 490.031 483.748 490.721 483.748C491.21 483.748 491.603 483.658 491.9 483.48C492.21 483.289 492.478 483.009 492.704 482.64H494.901C494.627 483.509 494.139 484.212 493.436 484.748C492.734 485.284 491.829 485.552 490.721 485.552C489.34 485.552 488.244 485.123 487.435 484.266C486.625 483.408 486.22 482.211 486.22 480.675C486.22 479.651 486.405 478.776 486.774 478.05C487.143 477.311 487.661 476.752 488.328 476.371C489.007 475.989 489.792 475.799 490.686 475.799C491.591 475.799 492.377 476.007 493.043 476.424C493.71 476.841 494.222 477.401 494.58 478.103C494.937 478.794 495.115 479.556 495.115 480.389ZM493.079 479.764C492.996 479.169 492.746 478.663 492.329 478.246C491.924 477.817 491.376 477.603 490.686 477.603C490.043 477.603 489.513 477.799 489.096 478.192C488.691 478.574 488.435 479.097 488.328 479.764H493.079ZM500.996 485.552C499.614 485.552 498.519 485.123 497.709 484.266C496.899 483.408 496.494 482.211 496.494 480.675C496.494 479.139 496.899 477.942 497.709 477.085C498.519 476.228 499.614 475.799 500.996 475.799C502.115 475.799 503.02 476.079 503.711 476.638C504.413 477.198 504.901 477.948 505.175 478.889H503.085C502.633 478.067 501.936 477.657 500.996 477.657C500.269 477.657 499.68 477.919 499.227 478.443C498.775 478.966 498.548 479.711 498.548 480.675C498.548 481.64 498.775 482.384 499.227 482.908C499.68 483.432 500.269 483.694 500.996 483.694C501.936 483.694 502.633 483.283 503.085 482.462H505.175C504.901 483.402 504.413 484.152 503.711 484.712C503.008 485.272 502.103 485.552 500.996 485.552ZM510.677 485.552C509.295 485.552 508.2 485.123 507.39 484.266C506.58 483.408 506.175 482.211 506.175 480.675C506.175 479.139 506.58 477.942 507.39 477.085C508.2 476.228 509.295 475.799 510.677 475.799C512.058 475.799 513.154 476.228 513.963 477.085C514.773 477.942 515.178 479.139 515.178 480.675C515.178 482.211 514.773 483.408 513.963 484.266C513.154 485.123 512.058 485.552 510.677 485.552ZM510.677 483.694C511.403 483.694 511.993 483.438 512.445 482.926C512.898 482.414 513.124 481.664 513.124 480.675C513.124 479.687 512.898 478.937 512.445 478.425C511.993 477.913 511.403 477.657 510.677 477.657C509.962 477.657 509.373 477.913 508.908 478.425C508.456 478.937 508.23 479.687 508.23 480.675C508.23 481.664 508.456 482.414 508.908 482.926C509.373 483.438 509.962 483.694 510.677 483.694ZM517.018 485.373V475.978H518.751L518.983 477.121H519.073C519.37 476.68 519.745 476.353 520.198 476.138C520.65 475.912 521.133 475.799 521.645 475.799C522.323 475.799 522.925 475.954 523.449 476.263C523.973 476.561 524.384 477.002 524.681 477.585C524.979 478.157 525.128 478.83 525.128 479.604V485.373H523.074V479.818C523.074 479.139 522.895 478.609 522.538 478.228C522.192 477.847 521.722 477.657 521.127 477.657C520.531 477.657 520.037 477.865 519.644 478.282C519.263 478.687 519.073 479.199 519.073 479.818V485.373H517.018ZM530.954 485.552C530.156 485.552 529.447 485.367 528.828 484.998C528.221 484.617 527.744 484.063 527.399 483.337C527.054 482.598 526.881 481.711 526.881 480.675C526.881 479.639 527.054 478.758 527.399 478.032C527.744 477.293 528.221 476.74 528.828 476.371C529.447 475.989 530.156 475.799 530.954 475.799C531.585 475.799 532.126 475.918 532.579 476.156C533.043 476.394 533.413 476.686 533.686 477.031H533.776V472.87H535.83V485.373H534.097L533.865 484.23H533.776C533.466 484.635 533.073 484.956 532.597 485.194C532.132 485.433 531.585 485.552 530.954 485.552ZM531.347 483.694C532.073 483.694 532.656 483.438 533.097 482.926C533.55 482.414 533.776 481.664 533.776 480.675C533.776 479.687 533.55 478.937 533.097 478.425C532.656 477.913 532.073 477.657 531.347 477.657C530.632 477.657 530.049 477.913 529.596 478.425C529.155 478.937 528.935 479.687 528.935 480.675C528.935 481.664 529.155 482.414 529.596 482.926C530.049 483.438 530.632 483.694 531.347 483.694ZM541.464 485.552C540.368 485.552 539.475 485.296 538.784 484.784C538.106 484.272 537.683 483.557 537.516 482.64H539.713C539.796 482.974 539.993 483.241 540.303 483.444C540.624 483.646 541.011 483.748 541.464 483.748C542.107 483.748 542.577 483.652 542.875 483.462C543.172 483.259 543.321 483.009 543.321 482.712C543.321 482.378 543.155 482.134 542.821 481.979C542.5 481.824 541.999 481.676 541.321 481.533C540.606 481.378 540.011 481.211 539.535 481.033C539.07 480.854 538.671 480.568 538.338 480.175C538.004 479.77 537.838 479.228 537.838 478.55C537.838 478.038 537.981 477.573 538.266 477.156C538.552 476.74 538.969 476.412 539.517 476.174C540.064 475.924 540.713 475.799 541.464 475.799C542.512 475.799 543.369 476.031 544.036 476.496C544.715 476.96 545.137 477.627 545.304 478.496H543.107C543.024 478.234 542.845 478.02 542.571 477.853C542.309 477.686 541.94 477.603 541.464 477.603C540.975 477.603 540.6 477.692 540.338 477.871C540.076 478.038 539.945 478.264 539.945 478.55C539.945 478.895 540.106 479.145 540.428 479.3C540.761 479.455 541.279 479.615 541.982 479.782C542.696 479.937 543.28 480.104 543.732 480.282C544.197 480.449 544.595 480.729 544.929 481.122C545.262 481.515 545.429 482.045 545.429 482.712C545.429 483.581 545.078 484.272 544.375 484.784C543.684 485.296 542.714 485.552 541.464 485.552ZM554.747 485.552C553.949 485.552 553.24 485.367 552.621 484.998C552.014 484.617 551.537 484.063 551.192 483.337C550.847 482.598 550.674 481.711 550.674 480.675C550.674 479.639 550.847 478.758 551.192 478.032C551.537 477.293 552.014 476.74 552.621 476.371C553.24 475.989 553.949 475.799 554.747 475.799C555.378 475.799 555.919 475.918 556.372 476.156C556.836 476.394 557.206 476.686 557.479 477.031H557.569V472.87H559.623V485.373H557.89L557.658 484.23H557.569C557.259 484.635 556.866 484.956 556.39 485.194C555.925 485.433 555.378 485.552 554.747 485.552ZM555.14 483.694C555.866 483.694 556.449 483.438 556.89 482.926C557.343 482.414 557.569 481.664 557.569 480.675C557.569 479.687 557.343 478.937 556.89 478.425C556.449 477.913 555.866 477.657 555.14 477.657C554.425 477.657 553.842 477.913 553.389 478.425C552.948 478.937 552.728 479.687 552.728 480.675C552.728 481.664 552.948 482.414 553.389 482.926C553.842 483.438 554.425 483.694 555.14 483.694ZM570.437 480.389C570.437 480.723 570.407 481.038 570.347 481.336H563.649C563.744 482.122 563.994 482.723 564.399 483.14C564.804 483.545 565.352 483.748 566.043 483.748C566.531 483.748 566.924 483.658 567.221 483.48C567.531 483.289 567.799 483.009 568.025 482.64H570.222C569.948 483.509 569.46 484.212 568.758 484.748C568.055 485.284 567.15 485.552 566.043 485.552C564.661 485.552 563.566 485.123 562.756 484.266C561.946 483.408 561.541 482.211 561.541 480.675C561.541 479.651 561.726 478.776 562.095 478.05C562.464 477.311 562.982 476.752 563.649 476.371C564.328 475.989 565.114 475.799 566.007 475.799C566.912 475.799 567.698 476.007 568.365 476.424C569.031 476.841 569.544 477.401 569.901 478.103C570.258 478.794 570.437 479.556 570.437 480.389ZM568.4 479.764C568.317 479.169 568.067 478.663 567.65 478.246C567.245 477.817 566.698 477.603 566.007 477.603C565.364 477.603 564.834 477.799 564.417 478.192C564.012 478.574 563.756 479.097 563.649 479.764H568.4ZM574.406 485.373H572.351V472.87H574.406V485.373ZM580.406 475.799C581.621 475.799 582.567 476.103 583.246 476.71C583.925 477.317 584.264 478.169 584.264 479.264V485.373H582.532L582.299 484.23H582.21C581.996 484.575 581.65 484.885 581.174 485.159C580.71 485.421 580.156 485.552 579.513 485.552C578.858 485.552 578.28 485.427 577.78 485.177C577.292 484.926 576.911 484.581 576.637 484.141C576.375 483.7 576.244 483.2 576.244 482.64C576.244 481.783 576.56 481.086 577.191 480.55C577.822 480.002 578.703 479.729 579.834 479.729H582.21V479.211C582.21 478.699 582.043 478.306 581.71 478.032C581.377 477.746 580.924 477.603 580.352 477.603C579.924 477.603 579.561 477.698 579.263 477.889C578.965 478.067 578.763 478.306 578.655 478.603H576.566C576.768 477.77 577.197 477.097 577.852 476.585C578.519 476.061 579.37 475.799 580.406 475.799ZM579.888 483.801C580.591 483.801 581.15 483.611 581.567 483.23C581.996 482.837 582.21 482.331 582.21 481.711V481.3H579.888C579.364 481.3 578.965 481.414 578.691 481.64C578.429 481.866 578.298 482.164 578.298 482.533C578.298 482.914 578.435 483.224 578.709 483.462C578.983 483.688 579.376 483.801 579.888 483.801ZM589.593 488.945H587.45L588.879 485.373L585.038 475.978H587.253L589.897 482.729H589.986L592.576 475.978H594.738L589.593 488.945Z" fill="#F94658"/>
<path d="M663.128 126.618V114.115H667.701C668.844 114.115 669.838 114.359 670.683 114.847C671.541 115.335 672.202 116.05 672.666 116.99C673.143 117.931 673.381 119.057 673.381 120.366C673.381 121.676 673.143 122.802 672.666 123.742C672.202 124.683 671.541 125.398 670.683 125.886C669.838 126.374 668.844 126.618 667.701 126.618H663.128ZM667.647 124.618C668.326 124.618 668.927 124.457 669.451 124.135C669.975 123.814 670.386 123.337 670.683 122.706C670.993 122.063 671.148 121.283 671.148 120.366C671.148 119.449 670.993 118.675 670.683 118.044C670.386 117.401 669.975 116.919 669.451 116.597C668.927 116.276 668.326 116.115 667.647 116.115H665.361V124.618H667.647ZM683.765 121.635C683.765 121.968 683.735 122.284 683.675 122.581H676.977C677.072 123.367 677.322 123.969 677.727 124.385C678.132 124.79 678.68 124.993 679.371 124.993C679.859 124.993 680.252 124.903 680.549 124.725C680.859 124.534 681.127 124.254 681.353 123.885H683.55C683.276 124.755 682.788 125.457 682.086 125.993C681.383 126.529 680.478 126.797 679.371 126.797C677.989 126.797 676.894 126.368 676.084 125.511C675.274 124.653 674.869 123.457 674.869 121.92C674.869 120.896 675.054 120.021 675.423 119.295C675.792 118.556 676.31 117.997 676.977 117.616C677.656 117.235 678.442 117.044 679.335 117.044C680.24 117.044 681.026 117.252 681.693 117.669C682.359 118.086 682.872 118.646 683.229 119.348C683.586 120.039 683.765 120.801 683.765 121.635ZM681.728 121.009C681.645 120.414 681.395 119.908 680.978 119.491C680.573 119.062 680.025 118.848 679.335 118.848C678.692 118.848 678.162 119.045 677.745 119.438C677.34 119.819 677.084 120.343 676.977 121.009H681.728ZM689.645 126.797C688.263 126.797 687.168 126.368 686.358 125.511C685.548 124.653 685.143 123.457 685.143 121.92C685.143 120.384 685.548 119.187 686.358 118.33C687.168 117.473 688.263 117.044 689.645 117.044C690.764 117.044 691.669 117.324 692.36 117.884C693.062 118.443 693.551 119.193 693.825 120.134H691.735C691.282 119.313 690.586 118.902 689.645 118.902C688.918 118.902 688.329 119.164 687.876 119.688C687.424 120.212 687.198 120.956 687.198 121.92C687.198 122.885 687.424 123.629 687.876 124.153C688.329 124.677 688.918 124.939 689.645 124.939C690.586 124.939 691.282 124.528 691.735 123.707H693.825C693.551 124.647 693.062 125.398 692.36 125.957C691.657 126.517 690.752 126.797 689.645 126.797ZM699.326 126.797C697.945 126.797 696.849 126.368 696.039 125.511C695.23 124.653 694.825 123.457 694.825 121.92C694.825 120.384 695.23 119.187 696.039 118.33C696.849 117.473 697.945 117.044 699.326 117.044C700.707 117.044 701.803 117.473 702.613 118.33C703.422 119.187 703.827 120.384 703.827 121.92C703.827 123.457 703.422 124.653 702.613 125.511C701.803 126.368 700.707 126.797 699.326 126.797ZM699.326 124.939C700.052 124.939 700.642 124.683 701.094 124.171C701.547 123.659 701.773 122.909 701.773 121.92C701.773 120.932 701.547 120.182 701.094 119.67C700.642 119.158 700.052 118.902 699.326 118.902C698.611 118.902 698.022 119.158 697.558 119.67C697.105 120.182 696.879 120.932 696.879 121.92C696.879 122.909 697.105 123.659 697.558 124.171C698.022 124.683 698.611 124.939 699.326 124.939ZM709.294 126.797C708.496 126.797 707.787 126.612 707.168 126.243C706.561 125.862 706.084 125.308 705.739 124.582C705.394 123.844 705.221 122.956 705.221 121.92C705.221 120.884 705.394 120.003 705.739 119.277C706.084 118.538 706.561 117.985 707.168 117.616C707.787 117.235 708.496 117.044 709.294 117.044C709.925 117.044 710.467 117.163 710.919 117.401C711.383 117.639 711.753 117.931 712.027 118.277H712.116V114.115H714.17V126.618H712.437L712.205 125.475H712.116C711.806 125.88 711.413 126.201 710.937 126.44C710.473 126.678 709.925 126.797 709.294 126.797ZM709.687 124.939C710.413 124.939 710.996 124.683 711.437 124.171C711.89 123.659 712.116 122.909 712.116 121.92C712.116 120.932 711.89 120.182 711.437 119.67C710.996 119.158 710.413 118.902 709.687 118.902C708.972 118.902 708.389 119.158 707.936 119.67C707.495 120.182 707.275 120.932 707.275 121.92C707.275 122.909 707.495 123.659 707.936 124.171C708.389 124.683 708.972 124.939 709.687 124.939ZM724.984 121.635C724.984 121.968 724.954 122.284 724.894 122.581H718.196C718.291 123.367 718.541 123.969 718.946 124.385C719.351 124.79 719.899 124.993 720.59 124.993C721.078 124.993 721.471 124.903 721.769 124.725C722.078 124.534 722.346 124.254 722.572 123.885H724.769C724.495 124.755 724.007 125.457 723.305 125.993C722.602 126.529 721.697 126.797 720.59 126.797C719.208 126.797 718.113 126.368 717.303 125.511C716.493 124.653 716.088 123.457 716.088 121.92C716.088 120.896 716.273 120.021 716.642 119.295C717.011 118.556 717.529 117.997 718.196 117.616C718.875 117.235 719.661 117.044 720.554 117.044C721.459 117.044 722.245 117.252 722.912 117.669C723.579 118.086 724.091 118.646 724.448 119.348C724.805 120.039 724.984 120.801 724.984 121.635ZM722.947 121.009C722.864 120.414 722.614 119.908 722.197 119.491C721.792 119.062 721.245 118.848 720.554 118.848C719.911 118.848 719.381 119.045 718.964 119.438C718.559 119.819 718.303 120.343 718.196 121.009H722.947ZM726.809 126.618V117.223H728.542L728.774 118.366H728.863C729.352 117.604 730.132 117.223 731.203 117.223H732.293V119.187H731.31C730.572 119.187 729.977 119.402 729.524 119.831C729.084 120.247 728.863 120.807 728.863 121.51V126.618H726.809Z" fill="#E0E0E0"/>
<path d="M820.589 126.618V114.115H825.59C826.424 114.115 827.162 114.293 827.805 114.65C828.448 115.008 828.942 115.502 829.288 116.133C829.645 116.752 829.823 117.461 829.823 118.259C829.823 119.057 829.645 119.771 829.288 120.402C828.942 121.033 828.448 121.527 827.805 121.885C827.162 122.242 826.424 122.421 825.59 122.421H822.822V126.618H820.589ZM825.394 120.42C826.084 120.42 826.62 120.223 827.001 119.831C827.394 119.438 827.591 118.914 827.591 118.259C827.591 117.604 827.394 117.086 827.001 116.705C826.62 116.312 826.084 116.115 825.394 116.115H822.822V120.42H825.394ZM831.207 126.618V117.223H832.939L833.172 118.366H833.261C833.749 117.604 834.529 117.223 835.601 117.223H836.691V119.187H835.708C834.97 119.187 834.374 119.402 833.922 119.831C833.481 120.247 833.261 120.807 833.261 121.51V126.618H831.207ZM841.611 126.797C840.23 126.797 839.134 126.368 838.324 125.511C837.515 124.653 837.11 123.457 837.11 121.92C837.11 120.384 837.515 119.187 838.324 118.33C839.134 117.473 840.23 117.044 841.611 117.044C842.992 117.044 844.088 117.473 844.898 118.33C845.707 119.187 846.112 120.384 846.112 121.92C846.112 123.457 845.707 124.653 844.898 125.511C844.088 126.368 842.992 126.797 841.611 126.797ZM841.611 124.939C842.337 124.939 842.927 124.683 843.379 124.171C843.832 123.659 844.058 122.909 844.058 121.92C844.058 120.932 843.832 120.182 843.379 119.67C842.927 119.158 842.337 118.902 841.611 118.902C840.897 118.902 840.307 119.158 839.843 119.67C839.39 120.182 839.164 120.932 839.164 121.92C839.164 122.909 839.39 123.659 839.843 124.171C840.307 124.683 840.897 124.939 841.611 124.939ZM851.579 126.797C850.781 126.797 850.072 126.612 849.453 126.243C848.846 125.862 848.369 125.308 848.024 124.582C847.679 123.844 847.506 122.956 847.506 121.92C847.506 120.884 847.679 120.003 848.024 119.277C848.369 118.538 848.846 117.985 849.453 117.616C850.072 117.235 850.781 117.044 851.579 117.044C852.21 117.044 852.752 117.163 853.204 117.401C853.669 117.639 854.038 117.931 854.312 118.277H854.401V114.115H856.455V126.618H854.722L854.49 125.475H854.401C854.091 125.88 853.698 126.201 853.222 126.44C852.758 126.678 852.21 126.797 851.579 126.797ZM851.972 124.939C852.698 124.939 853.282 124.683 853.722 124.171C854.175 123.659 854.401 122.909 854.401 121.92C854.401 120.932 854.175 120.182 853.722 119.67C853.282 119.158 852.698 118.902 851.972 118.902C851.257 118.902 850.674 119.158 850.221 119.67C849.781 120.182 849.56 120.932 849.56 121.92C849.56 122.909 849.781 123.659 850.221 124.171C850.674 124.683 851.257 124.939 851.972 124.939ZM862.303 126.797C861.624 126.797 861.023 126.648 860.499 126.35C859.975 126.041 859.564 125.6 859.267 125.028C858.969 124.445 858.82 123.766 858.82 122.992V117.223H860.874V122.778C860.874 123.457 861.047 123.986 861.392 124.368C861.749 124.749 862.22 124.939 862.803 124.939C863.411 124.939 863.905 124.737 864.286 124.332C864.679 123.915 864.875 123.397 864.875 122.778V117.223H866.929V126.618H865.197L864.965 125.475H864.875C864.578 125.916 864.202 126.249 863.75 126.475C863.297 126.69 862.815 126.797 862.303 126.797ZM873.271 126.797C871.89 126.797 870.794 126.368 869.984 125.511C869.175 124.653 868.77 123.457 868.77 121.92C868.77 120.384 869.175 119.187 869.984 118.33C870.794 117.473 871.89 117.044 873.271 117.044C874.39 117.044 875.295 117.324 875.986 117.884C876.689 118.443 877.177 119.193 877.451 120.134H875.361C874.908 119.313 874.212 118.902 873.271 118.902C872.545 118.902 871.955 119.164 871.503 119.688C871.05 120.212 870.824 120.956 870.824 121.92C870.824 122.885 871.05 123.629 871.503 124.153C871.955 124.677 872.545 124.939 873.271 124.939C874.212 124.939 874.908 124.528 875.361 123.707H877.451C877.177 124.647 876.689 125.398 875.986 125.957C875.283 126.517 874.378 126.797 873.271 126.797ZM882.607 126.618C881.749 126.618 881.082 126.392 880.606 125.939C880.13 125.475 879.891 124.838 879.891 124.028V119.134H878.409V117.223H879.891L880.177 114.722H881.946V117.223H884.25V119.134H881.946V123.742C881.946 124.028 882.035 124.26 882.214 124.439C882.392 124.618 882.624 124.707 882.91 124.707H884.25V126.618H882.607ZM888.156 126.618H886.102V117.223H888.156V126.618ZM887.138 115.847C886.792 115.847 886.495 115.728 886.245 115.49C886.006 115.252 885.887 114.96 885.887 114.615C885.887 114.269 886.006 113.978 886.245 113.74C886.483 113.489 886.78 113.364 887.138 113.364C887.483 113.364 887.775 113.489 888.013 113.74C888.251 113.978 888.37 114.269 888.37 114.615C888.37 114.96 888.251 115.252 888.013 115.49C887.775 115.728 887.483 115.847 887.138 115.847ZM894.5 126.797C893.118 126.797 892.023 126.368 891.213 125.511C890.403 124.653 889.999 123.457 889.999 121.92C889.999 120.384 890.403 119.187 891.213 118.33C892.023 117.473 893.118 117.044 894.5 117.044C895.881 117.044 896.977 117.473 897.786 118.33C898.596 119.187 899.001 120.384 899.001 121.92C899.001 123.457 898.596 124.653 897.786 125.511C896.977 126.368 895.881 126.797 894.5 126.797ZM894.5 124.939C895.226 124.939 895.816 124.683 896.268 124.171C896.721 123.659 896.947 122.909 896.947 121.92C896.947 120.932 896.721 120.182 896.268 119.67C895.816 119.158 895.226 118.902 894.5 118.902C893.785 118.902 893.196 119.158 892.731 119.67C892.279 120.182 892.053 120.932 892.053 121.92C892.053 122.909 892.279 123.659 892.731 124.171C893.196 124.683 893.785 124.939 894.5 124.939ZM900.841 126.618V117.223H902.574L902.806 118.366H902.896C903.193 117.925 903.568 117.598 904.021 117.383C904.473 117.157 904.956 117.044 905.468 117.044C906.147 117.044 906.748 117.199 907.272 117.508C907.796 117.806 908.207 118.247 908.504 118.83C908.802 119.402 908.951 120.075 908.951 120.849V126.618H906.897V121.063C906.897 120.384 906.718 119.854 906.361 119.473C906.016 119.092 905.545 118.902 904.95 118.902C904.354 118.902 903.86 119.11 903.467 119.527C903.086 119.932 902.896 120.444 902.896 121.063V126.618H900.841ZM920.349 126.797C919.193 126.797 918.175 126.547 917.294 126.047C916.425 125.546 915.752 124.814 915.276 123.85C914.799 122.885 914.561 121.724 914.561 120.366C914.561 119.009 914.799 117.848 915.276 116.883C915.752 115.919 916.425 115.186 917.294 114.686C918.175 114.186 919.193 113.936 920.349 113.936C921.742 113.936 922.879 114.275 923.76 114.954C924.653 115.633 925.284 116.586 925.654 117.812H923.331C923.058 117.193 922.677 116.728 922.188 116.419C921.712 116.097 921.099 115.937 920.349 115.937C919.277 115.937 918.413 116.324 917.758 117.098C917.115 117.86 916.794 118.949 916.794 120.366C916.794 121.783 917.115 122.879 917.758 123.653C918.413 124.415 919.277 124.796 920.349 124.796C921.099 124.796 921.712 124.641 922.188 124.332C922.677 124.01 923.058 123.54 923.331 122.921H925.654C925.284 124.147 924.653 125.1 923.76 125.779C922.879 126.457 921.742 126.797 920.349 126.797ZM935.316 121.635C935.316 121.968 935.286 122.284 935.227 122.581H928.528C928.624 123.367 928.874 123.969 929.279 124.385C929.683 124.79 930.231 124.993 930.922 124.993C931.41 124.993 931.803 124.903 932.101 124.725C932.41 124.534 932.678 124.254 932.905 123.885H935.102C934.828 124.755 934.34 125.457 933.637 125.993C932.934 126.529 932.029 126.797 930.922 126.797C929.541 126.797 928.445 126.368 927.635 125.511C926.826 124.653 926.421 123.457 926.421 121.92C926.421 120.896 926.605 120.021 926.974 119.295C927.344 118.556 927.862 117.997 928.528 117.616C929.207 117.235 929.993 117.044 930.886 117.044C931.791 117.044 932.577 117.252 933.244 117.669C933.911 118.086 934.423 118.646 934.78 119.348C935.137 120.039 935.316 120.801 935.316 121.635ZM933.28 121.009C933.196 120.414 932.946 119.908 932.53 119.491C932.125 119.062 931.577 118.848 930.886 118.848C930.243 118.848 929.713 119.045 929.296 119.438C928.892 119.819 928.636 120.343 928.528 121.009H933.28ZM937.141 126.618V117.223H938.874L939.106 118.366H939.196C939.493 117.925 939.868 117.598 940.321 117.383C940.773 117.157 941.256 117.044 941.768 117.044C942.447 117.044 943.048 117.199 943.572 117.508C944.096 117.806 944.507 118.247 944.804 118.83C945.102 119.402 945.251 120.075 945.251 120.849V126.618H943.197V121.063C943.197 120.384 943.018 119.854 942.661 119.473C942.316 119.092 941.845 118.902 941.25 118.902C940.654 118.902 940.16 119.11 939.767 119.527C939.386 119.932 939.196 120.444 939.196 121.063V126.618H937.141ZM950.636 126.618C949.779 126.618 949.112 126.392 948.636 125.939C948.159 125.475 947.921 124.838 947.921 124.028V119.134H946.439V117.223H947.921L948.207 114.722H949.975V117.223H952.28V119.134H949.975V123.742C949.975 124.028 950.065 124.26 950.243 124.439C950.422 124.618 950.654 124.707 950.94 124.707H952.28V126.618H950.636ZM962.319 121.635C962.319 121.968 962.289 122.284 962.229 122.581H955.531C955.626 123.367 955.876 123.969 956.281 124.385C956.686 124.79 957.234 124.993 957.925 124.993C958.413 124.993 958.806 124.903 959.103 124.725C959.413 124.534 959.681 124.254 959.907 123.885H962.104C961.83 124.755 961.342 125.457 960.64 125.993C959.937 126.529 959.032 126.797 957.925 126.797C956.543 126.797 955.448 126.368 954.638 125.511C953.828 124.653 953.423 123.457 953.423 121.92C953.423 120.896 953.608 120.021 953.977 119.295C954.346 118.556 954.864 117.997 955.531 117.616C956.21 117.235 956.996 117.044 957.889 117.044C958.794 117.044 959.58 117.252 960.247 117.669C960.913 118.086 961.426 118.646 961.783 119.348C962.14 120.039 962.319 120.801 962.319 121.635ZM960.282 121.009C960.199 120.414 959.949 119.908 959.532 119.491C959.127 119.062 958.579 118.848 957.889 118.848C957.246 118.848 956.716 119.045 956.299 119.438C955.894 119.819 955.638 120.343 955.531 121.009H960.282ZM964.144 126.618V117.223H965.877L966.109 118.366H966.198C966.686 117.604 967.466 117.223 968.538 117.223H969.628V119.187H968.645C967.907 119.187 967.312 119.402 966.859 119.831C966.419 120.247 966.198 120.807 966.198 121.51V126.618H964.144Z" fill="#E0E0E0"/>
<path d="M502.777 267.177H500.544V254.673H502.777V267.177ZM505.283 267.177V257.781H507.016L507.248 258.924H507.338C507.635 258.484 508.01 258.156 508.463 257.942C508.915 257.716 509.398 257.603 509.91 257.603C510.588 257.603 511.19 257.757 511.714 258.067C512.238 258.365 512.649 258.805 512.946 259.389C513.244 259.96 513.393 260.633 513.393 261.407V267.177H511.339V261.622C511.339 260.943 511.16 260.413 510.803 260.032C510.458 259.651 509.987 259.46 509.392 259.46C508.796 259.46 508.302 259.669 507.909 260.085C507.528 260.49 507.338 261.002 507.338 261.622V267.177H505.283ZM518.778 267.177C517.921 267.177 517.254 266.951 516.778 266.498C516.301 266.034 516.063 265.396 516.063 264.587V259.692H514.581V257.781H516.063L516.349 255.281H518.117V257.781H520.422V259.692H518.117V264.301C518.117 264.587 518.207 264.819 518.385 264.998C518.564 265.176 518.796 265.266 519.082 265.266H520.422V267.177H518.778ZM530.461 262.193C530.461 262.527 530.431 262.842 530.371 263.14H523.673C523.768 263.926 524.018 264.527 524.423 264.944C524.828 265.349 525.376 265.551 526.067 265.551C526.555 265.551 526.948 265.462 527.245 265.283C527.555 265.093 527.823 264.813 528.049 264.444H530.246C529.972 265.313 529.484 266.016 528.782 266.552C528.079 267.087 527.174 267.355 526.067 267.355C524.685 267.355 523.59 266.927 522.78 266.069C521.97 265.212 521.565 264.015 521.565 262.479C521.565 261.455 521.75 260.58 522.119 259.853C522.488 259.115 523.006 258.555 523.673 258.174C524.352 257.793 525.138 257.603 526.031 257.603C526.936 257.603 527.722 257.811 528.389 258.228C529.055 258.645 529.567 259.204 529.925 259.907C530.282 260.598 530.461 261.36 530.461 262.193ZM528.424 261.568C528.341 260.973 528.091 260.467 527.674 260.05C527.269 259.621 526.721 259.407 526.031 259.407C525.388 259.407 524.858 259.603 524.441 259.996C524.036 260.377 523.78 260.901 523.673 261.568H528.424ZM532.286 267.177V257.781H534.019L534.251 258.924H534.34C534.828 258.162 535.608 257.781 536.68 257.781H537.77V259.746H536.787C536.049 259.746 535.454 259.96 535.001 260.389C534.56 260.806 534.34 261.366 534.34 262.068V267.177H532.286ZM539.176 267.177V257.781H540.909L541.141 258.924H541.23C541.528 258.484 541.903 258.156 542.356 257.942C542.808 257.716 543.29 257.603 543.803 257.603C544.481 257.603 545.083 257.757 545.607 258.067C546.131 258.365 546.541 258.805 546.839 259.389C547.137 259.96 547.286 260.633 547.286 261.407V267.177H545.232V261.622C545.232 260.943 545.053 260.413 544.696 260.032C544.35 259.651 543.88 259.46 543.285 259.46C542.689 259.46 542.195 259.669 541.802 260.085C541.421 260.49 541.23 261.002 541.23 261.622V267.177H539.176ZM557.934 262.193C557.934 262.527 557.904 262.842 557.845 263.14H551.147C551.242 263.926 551.492 264.527 551.897 264.944C552.302 265.349 552.849 265.551 553.54 265.551C554.028 265.551 554.421 265.462 554.719 265.283C555.029 265.093 555.297 264.813 555.523 264.444H557.72C557.446 265.313 556.958 266.016 556.255 266.552C555.553 267.087 554.648 267.355 553.54 267.355C552.159 267.355 551.063 266.927 550.253 266.069C549.444 265.212 549.039 264.015 549.039 262.479C549.039 261.455 549.223 260.58 549.593 259.853C549.962 259.115 550.48 258.555 551.147 258.174C551.825 257.793 552.611 257.603 553.504 257.603C554.409 257.603 555.195 257.811 555.862 258.228C556.529 258.645 557.041 259.204 557.398 259.907C557.756 260.598 557.934 261.36 557.934 262.193ZM555.898 261.568C555.815 260.973 555.564 260.467 555.148 260.05C554.743 259.621 554.195 259.407 553.504 259.407C552.861 259.407 552.331 259.603 551.915 259.996C551.51 260.377 551.254 260.901 551.147 261.568H555.898ZM562.945 267.177C562.088 267.177 561.421 266.951 560.945 266.498C560.468 266.034 560.23 265.396 560.23 264.587V259.692H558.748V257.781H560.23L560.516 255.281H562.284V257.781H564.589V259.692H562.284V264.301C562.284 264.587 562.374 264.819 562.552 264.998C562.731 265.176 562.963 265.266 563.249 265.266H564.589V267.177H562.945Z" fill="#E0E0E0"/>
<path d="M406.971 167.409H425.144C431.721 167.409 437.053 172.741 437.053 179.317V345.175C437.053 351.752 431.721 357.084 425.145 357.084H406.971" stroke="#E0E0E0" stroke-width="1.78622"/>
<path d="M406.971 262.246L437.053 262.246" stroke="#E0E0E0" stroke-width="1.78622"/>
<path d="M437.052 262.246L467.133 262.246" stroke="#E0E0E0" stroke-width="1.78622"/>
<path d="M736.442 167.409H754.615C761.192 167.409 766.523 172.741 766.523 179.317V345.175C766.523 351.752 761.192 357.084 754.615 357.084H736.442" stroke="#E0E0E0" stroke-width="1.78622"/>
<path d="M736.442 262.246L766.523 262.246" stroke="#E0E0E0" stroke-width="1.78622"/>
<path fill-rule="evenodd" clip-rule="evenodd" d="M663.07 344.756C659.453 344.756 656.52 347.688 656.52 351.305V364.218C656.52 367.835 659.453 370.768 663.07 370.768H729.893C733.51 370.768 736.442 367.835 736.442 364.218V351.305C736.442 347.688 733.51 344.756 729.893 344.756H663.07ZM716.145 349.4C714.908 349.4 713.905 350.403 713.905 351.641V363.882C713.905 365.119 714.908 366.122 716.145 366.122C717.383 366.122 718.386 365.119 718.386 363.882V351.641C718.386 350.403 717.383 349.4 716.145 349.4ZM708.247 349.4C707.01 349.4 706.007 350.404 706.007 351.641V363.882C706.007 365.119 707.01 366.122 708.247 366.122C709.484 366.122 710.487 365.119 710.487 363.882V351.641C710.487 350.404 709.484 349.4 708.247 349.4ZM721.805 351.641C721.805 350.404 722.808 349.4 724.046 349.4C725.283 349.4 726.286 350.404 726.286 351.641V363.882C726.286 365.119 725.283 366.122 724.046 366.122C722.808 366.122 721.805 365.119 721.805 363.882V351.641Z" fill="#E0E0E0"/>
<path d="M316.783 358.393C317.132 358.044 317.132 357.479 316.783 357.13L311.1 351.446C310.751 351.098 310.185 351.098 309.836 351.446C309.488 351.795 309.488 352.361 309.836 352.71L314.889 357.762L309.836 362.814C309.488 363.163 309.488 363.728 309.836 364.077C310.185 364.426 310.751 364.426 311.1 364.077L316.783 358.393ZM254.292 358.655L316.152 358.655L316.152 356.869L254.292 356.869L254.292 358.655Z" fill="#E0E0E0"/>
<path d="M279.226 351.934C277.88 351.934 276.773 351.612 275.903 350.969C275.034 350.314 274.516 349.397 274.349 348.218L276.582 348.218C276.725 348.778 277.023 349.212 277.475 349.522C277.94 349.832 278.523 349.987 279.226 349.987C280.107 349.987 280.762 349.826 281.191 349.504C281.619 349.171 281.834 348.736 281.834 348.2C281.834 347.831 281.709 347.533 281.459 347.307C281.22 347.081 280.917 346.908 280.548 346.789C280.19 346.67 279.69 346.539 279.047 346.396C278.13 346.194 277.386 345.985 276.814 345.771C276.255 345.545 275.772 345.182 275.368 344.681C274.963 344.181 274.76 343.497 274.76 342.627C274.76 341.913 274.945 341.288 275.314 340.752C275.695 340.204 276.225 339.787 276.904 339.501C277.582 339.216 278.356 339.073 279.226 339.073C280.559 339.073 281.619 339.382 282.405 340.002C283.191 340.621 283.673 341.454 283.852 342.502L281.619 342.502C281.488 342.05 281.22 341.693 280.815 341.431C280.423 341.157 279.91 341.02 279.279 341.02C278.565 341.02 278.011 341.175 277.618 341.484C277.237 341.782 277.047 342.163 277.047 342.627C277.047 343.032 277.172 343.36 277.422 343.61C277.684 343.848 278.005 344.032 278.386 344.163C278.767 344.294 279.291 344.437 279.958 344.592C280.851 344.806 281.572 345.021 282.119 345.235C282.667 345.45 283.138 345.795 283.531 346.271C283.924 346.748 284.12 347.391 284.12 348.2C284.12 348.891 283.929 349.522 283.548 350.094C283.167 350.653 282.608 351.1 281.869 351.433C281.131 351.767 280.25 351.934 279.226 351.934ZM285.376 351.755L285.376 339.251L289.949 339.251C291.092 339.251 292.086 339.495 292.932 339.984C293.789 340.472 294.45 341.186 294.914 342.127C295.391 343.068 295.629 344.193 295.629 345.503C295.629 346.813 295.391 347.938 294.914 348.879C294.45 349.82 293.789 350.534 292.932 351.023C292.086 351.511 291.092 351.755 289.949 351.755L285.376 351.755ZM289.895 349.754C290.574 349.754 291.175 349.594 291.699 349.272C292.223 348.951 292.634 348.474 292.932 347.843C293.241 347.2 293.396 346.42 293.396 345.503C293.396 344.586 293.241 343.812 292.932 343.181C292.634 342.538 292.223 342.056 291.699 341.734C291.175 341.413 290.574 341.252 289.895 341.252L287.609 341.252L287.609 349.754L289.895 349.754ZM299.296 351.755L297.064 351.755L297.064 339.251L299.296 339.251L299.296 351.755Z" fill="#E0E0E0"/>
<path d="M656.52 167.409H638.347C631.771 167.409 626.439 172.741 626.439 179.317V345.175C626.439 351.752 631.771 357.084 638.347 357.084H656.52" stroke="#E0E0E0" stroke-width="1.78622"/>
<path d="M656.52 262.246L626.439 262.246" stroke="#E0E0E0" stroke-width="1.78622"/>
<path d="M626.438 262.246L596.357 262.246" stroke="#E0E0E0" stroke-width="1.78622"/>
<path d="M572.982 236.966L573.021 237.685L573.732 237.8C586.054 239.793 595.463 250.478 595.463 263.358C595.463 277.123 584.717 288.38 571.153 289.202L570.36 289.25H569.561H493.926H493.128L492.334 289.202C478.771 288.38 468.025 277.123 468.025 263.358C468.025 249.569 478.809 238.296 492.407 237.51L493.172 237.466L493.245 236.703C494.009 228.665 500.782 222.376 509.025 222.376C512.782 222.376 516.232 223.681 518.948 225.864L519.796 226.546L520.3 225.581C524.959 216.644 534.312 210.544 545.088 210.544C560.011 210.544 572.202 222.243 572.982 236.966Z" stroke="#E0E0E0" stroke-width="1.78622"/>
<path fill-rule="evenodd" clip-rule="evenodd" d="M816.593 204.064H851.657V225.67H816.593V204.064ZM816.593 228.551V250.158H851.657V228.551H816.593ZM854.539 228.551V250.158H889.602V228.551H854.539ZM889.602 225.67V204.064H854.539V225.67H889.602ZM812.751 204.064C812.751 201.942 814.471 200.223 816.593 200.223H889.602C891.724 200.223 893.445 201.942 893.445 204.064V250.158C893.445 252.279 891.724 253.999 889.602 253.999H860.543V257.617C860.702 257.638 860.858 257.679 861.008 257.739L868.77 260.857C869.168 261.017 869.429 261.402 869.429 261.831C869.429 262.412 868.958 262.882 868.378 262.882H837.816C837.236 262.882 836.767 262.413 836.767 261.834C836.767 261.404 837.029 261.017 837.429 260.859L845.312 257.735C845.422 257.692 845.536 257.658 845.653 257.636V253.999H816.593C814.471 253.999 812.751 252.279 812.751 250.158V204.064ZM923.406 260.859C923.007 261.017 922.744 261.404 922.744 261.834C922.744 262.413 923.214 262.882 923.793 262.882H954.355C954.936 262.882 955.406 262.412 955.406 261.831C955.406 261.402 955.145 261.017 954.747 260.857L946.985 257.739C946.835 257.679 946.679 257.638 946.52 257.617V253.999H975.579C977.702 253.999 979.422 252.279 979.422 250.158V204.064C979.422 201.942 977.702 200.223 975.579 200.223H902.571C900.449 200.223 898.728 201.942 898.728 204.064V250.158C898.728 252.279 900.449 253.999 902.571 253.999H931.63V257.636C931.514 257.658 931.4 257.692 931.289 257.735L923.406 260.859ZM975.579 204.064H902.571V250.158H975.579V204.064Z" fill="#E0E0E0"/>
<path fill-rule="evenodd" clip-rule="evenodd" d="M822.616 269.812C821.433 269.812 820.429 270.681 820.259 271.852L815.184 306.941C814.977 308.377 816.09 309.664 817.542 309.664H976.67C978.121 309.664 979.235 308.377 979.027 306.941L973.952 271.852C973.782 270.681 972.778 269.812 971.595 269.812H822.616ZM827.64 280.135C827.64 279.472 828.151 278.934 828.78 278.934H833.339C833.967 278.934 834.478 279.472 834.478 280.135C834.478 280.798 833.967 281.335 833.339 281.335H828.78C828.151 281.335 827.64 280.798 827.64 280.135ZM836.302 280.135C836.302 279.472 836.813 278.934 837.441 278.934H842C842.629 278.934 843.14 279.472 843.14 280.135C843.14 280.356 843.083 280.563 842.983 280.742C842.923 280.85 842.846 280.948 842.757 281.03C842.556 281.22 842.29 281.335 842 281.335H837.441C836.813 281.335 836.302 280.798 836.302 280.135ZM846.103 278.934C845.474 278.934 844.963 279.472 844.963 280.135C844.963 280.607 845.222 281.015 845.599 281.211L845.681 281.249L845.774 281.285C845.836 281.304 845.902 281.319 845.969 281.328L846.103 281.335H850.662C851.29 281.335 851.801 280.798 851.801 280.135C851.801 279.472 851.29 278.934 850.662 278.934H846.103ZM853.625 280.135C853.625 279.472 854.136 278.934 854.765 278.934H859.323C859.952 278.934 860.463 279.472 860.463 280.135C860.463 280.798 859.952 281.335 859.323 281.335H854.765C854.136 281.335 853.625 280.798 853.625 280.135ZM862.548 279.37C862.384 279.578 862.286 279.844 862.286 280.135C862.286 280.798 862.798 281.335 863.426 281.335H867.985C868.613 281.335 869.125 280.798 869.125 280.135C869.125 279.472 868.613 278.934 867.985 278.934H863.426C863.074 278.934 862.757 279.104 862.548 279.37ZM870.948 280.135C870.948 279.472 871.459 278.934 872.088 278.934H876.646C877.275 278.934 877.786 279.472 877.786 280.135C877.786 280.798 877.275 281.335 876.646 281.335H872.088C871.459 281.335 870.948 280.798 870.948 280.135ZM903.543 278.934C903.213 278.934 902.916 279.082 902.708 279.317C902.676 279.354 902.645 279.392 902.617 279.433C902.558 279.519 902.512 279.612 902.476 279.713C902.43 279.844 902.403 279.987 902.403 280.135C902.403 280.798 902.914 281.335 903.543 281.335H908.101C908.73 281.335 909.241 280.798 909.241 280.135C909.241 279.472 908.73 278.934 908.101 278.934H903.543ZM911.216 279.533L911.252 279.474L911.326 279.368C911.537 279.103 911.852 278.934 912.204 278.934H916.763C917.392 278.934 917.903 279.472 917.903 280.135C917.903 280.798 917.392 281.335 916.763 281.335H912.204C911.576 281.335 911.065 280.798 911.065 280.135C911.065 279.915 911.12 279.71 911.216 279.533ZM926.108 278.934C925.863 278.934 925.635 279.017 925.448 279.158C925.343 279.236 925.25 279.334 925.175 279.446C925.045 279.641 924.969 279.878 924.969 280.135C924.969 280.798 925.48 281.335 926.108 281.335H930.667C930.717 281.335 930.767 281.331 930.815 281.325L930.886 281.314L930.954 281.298L931.023 281.276L931.114 281.24C931.242 281.181 931.358 281.1 931.458 280.999C931.673 280.781 931.807 280.474 931.807 280.135C931.807 279.472 931.296 278.934 930.667 278.934H926.108ZM933.63 280.135C933.63 279.472 934.141 278.934 934.77 278.934H939.329L939.393 278.936L939.48 278.945L939.555 278.958L939.683 278.993C939.852 279.052 940.005 279.151 940.128 279.28C940.264 279.42 940.365 279.595 940.42 279.79C940.452 279.899 940.468 280.015 940.468 280.135C940.468 280.798 939.957 281.335 939.329 281.335H934.77C934.61 281.335 934.458 281.3 934.321 281.239C934.241 281.203 934.166 281.158 934.097 281.104C933.999 281.028 933.913 280.938 933.844 280.833C933.803 280.774 933.767 280.711 933.737 280.644L933.716 280.591L933.682 280.498C933.666 280.442 933.653 280.386 933.644 280.328C933.636 280.265 933.63 280.2 933.63 280.135ZM943.431 278.934C943.152 278.934 942.895 279.041 942.696 279.218C942.448 279.438 942.292 279.767 942.292 280.135C942.292 280.798 942.803 281.335 943.431 281.335H947.99C948.619 281.335 949.13 280.798 949.13 280.135C949.13 279.472 948.619 278.934 947.99 278.934H943.431ZM883.538 279.343C883.611 279.256 883.695 279.18 883.789 279.118C883.965 279.002 884.174 278.934 884.396 278.934H888.955C889.583 278.934 890.095 279.472 890.095 280.135C890.095 280.798 889.583 281.335 888.955 281.335H884.396C884.286 281.335 884.179 281.318 884.079 281.287C883.976 281.255 883.878 281.209 883.789 281.149C883.468 280.938 883.256 280.562 883.256 280.135C883.256 279.832 883.362 279.555 883.538 279.343ZM828.78 283.256C828.151 283.256 827.64 283.793 827.64 284.456C827.64 285.119 828.151 285.656 828.78 285.656H833.339C833.967 285.656 834.478 285.119 834.478 284.456C834.478 283.793 833.967 283.256 833.339 283.256H828.78ZM836.302 284.456C836.302 284.078 836.469 283.741 836.727 283.521C836.788 283.47 836.852 283.425 836.921 283.388L836.991 283.354L837.116 283.305C837.219 283.273 837.327 283.256 837.441 283.256H842C842.629 283.256 843.14 283.793 843.14 284.456C843.14 285.119 842.629 285.656 842 285.656H837.441C836.813 285.656 836.302 285.119 836.302 284.456ZM846.103 283.256C845.474 283.256 844.963 283.793 844.963 284.456C844.963 285.119 845.474 285.656 846.103 285.656H850.662C851.29 285.656 851.801 285.119 851.801 284.456C851.801 283.793 851.29 283.256 850.662 283.256H846.103ZM853.953 283.614C854.159 283.394 854.448 283.256 854.765 283.256H859.323C859.825 283.256 860.251 283.598 860.402 284.073C860.418 284.123 860.433 284.176 860.443 284.23C860.456 284.303 860.463 284.379 860.463 284.456C860.463 285.119 859.952 285.656 859.323 285.656H854.765C854.136 285.656 853.625 285.119 853.625 284.456C853.625 284.377 853.632 284.3 853.646 284.224C853.657 284.167 853.671 284.112 853.689 284.058C853.744 283.89 853.835 283.739 853.953 283.614ZM863.426 283.256C862.798 283.256 862.286 283.793 862.286 284.456C862.286 285.119 862.798 285.656 863.426 285.656H867.985C868.613 285.656 869.125 285.119 869.125 284.456C869.125 284.105 868.982 283.79 868.754 283.571C868.551 283.375 868.28 283.256 867.985 283.256H863.426ZM870.948 284.456C870.948 283.793 871.459 283.256 872.088 283.256H876.646C877.275 283.256 877.786 283.793 877.786 284.456C877.786 285.119 877.275 285.656 876.646 285.656H872.088C871.459 285.656 870.948 285.119 870.948 284.456ZM926.108 283.256C925.48 283.256 924.969 283.793 924.969 284.456C924.969 285.119 925.48 285.656 926.108 285.656H930.667C931.296 285.656 931.807 285.119 931.807 284.456C931.807 284.086 931.646 283.755 931.395 283.534C931.287 283.439 931.162 283.364 931.025 283.316L930.895 283.28L930.797 283.263L930.667 283.256H926.108ZM933.63 284.456C933.63 283.793 934.141 283.256 934.77 283.256H939.329C939.957 283.256 940.468 283.793 940.468 284.456C940.468 285.119 939.957 285.656 939.329 285.656H934.77C934.141 285.656 933.63 285.119 933.63 284.456ZM943.431 283.256C942.803 283.256 942.292 283.793 942.292 284.456C942.292 285.119 942.803 285.656 943.431 285.656H947.99C948.619 285.656 949.13 285.119 949.13 284.456C949.13 283.793 948.619 283.256 947.99 283.256H943.431ZM950.953 284.456C950.953 283.793 951.464 283.256 952.093 283.256H956.652C957.28 283.256 957.791 283.793 957.791 284.456C957.791 285.119 957.28 285.656 956.652 285.656H952.093C951.464 285.656 950.953 285.119 950.953 284.456ZM959.944 283.612C959.846 283.716 959.766 283.838 959.709 283.974C959.649 284.121 959.615 284.284 959.615 284.456C959.615 285.119 960.126 285.656 960.755 285.656H965.313C965.774 285.656 966.173 285.367 966.353 284.95C966.417 284.799 966.453 284.632 966.453 284.456C966.453 283.793 965.942 283.256 965.313 283.256H960.755C960.438 283.256 960.151 283.392 959.944 283.612ZM883.586 283.612C883.793 283.393 884.079 283.256 884.396 283.256H888.955C889.583 283.256 890.095 283.793 890.095 284.456C890.095 285.119 889.583 285.656 888.955 285.656H884.396C884.083 285.656 883.8 285.523 883.593 285.308C883.385 285.09 883.256 284.789 883.256 284.456C883.256 284.127 883.381 283.829 883.586 283.612ZM828.78 287.577C828.151 287.577 827.64 288.114 827.64 288.777C827.64 288.952 827.676 289.118 827.74 289.267L827.797 289.385L827.833 289.444C827.875 289.511 827.923 289.573 827.977 289.629C828.183 289.845 828.467 289.978 828.78 289.978H833.339C833.967 289.978 834.478 289.44 834.478 288.777C834.478 288.114 833.967 287.577 833.339 287.577H828.78ZM836.302 288.777C836.302 288.114 836.813 287.577 837.441 287.577H842C842.28 287.577 842.536 287.684 842.736 287.86C842.983 288.081 843.14 288.41 843.14 288.777C843.14 289.44 842.629 289.978 842 289.978H837.441C836.813 289.978 836.302 289.44 836.302 288.777ZM846.103 287.577C845.474 287.577 844.963 288.114 844.963 288.777C844.963 289.138 845.115 289.463 845.355 289.682C845.555 289.866 845.816 289.978 846.103 289.978H850.662C851.29 289.978 851.801 289.44 851.801 288.777C851.801 288.114 851.29 287.577 850.662 287.577H846.103ZM853.625 288.777C853.625 288.114 854.136 287.577 854.765 287.577H859.323C859.952 287.577 860.463 288.114 860.463 288.777C860.463 289.44 859.952 289.978 859.323 289.978H854.765C854.136 289.978 853.625 289.44 853.625 288.777ZM863.426 287.577C862.798 287.577 862.286 288.114 862.286 288.777C862.286 289.44 862.798 289.978 863.426 289.978H867.985C868.613 289.978 869.125 289.44 869.125 288.777C869.125 288.114 868.613 287.577 867.985 287.577H863.426ZM870.948 288.777C870.948 288.114 871.459 287.577 872.088 287.577H876.646C877.275 287.577 877.786 288.114 877.786 288.777C877.786 289.44 877.275 289.978 876.646 289.978H872.088C871.459 289.978 870.948 289.44 870.948 288.777ZM903.543 287.577C902.914 287.577 902.403 288.114 902.403 288.777C902.403 289.092 902.519 289.379 902.706 289.592C902.82 289.723 902.96 289.826 903.119 289.892L903.233 289.933L903.366 289.964L903.455 289.975L903.543 289.978H908.101C908.73 289.978 909.241 289.44 909.241 288.777C909.241 288.61 909.209 288.45 909.15 288.305C908.974 287.877 908.572 287.577 908.101 287.577H903.543ZM911.065 288.777C911.065 288.479 911.168 288.206 911.339 287.996C911.476 287.827 911.658 287.7 911.862 287.632C911.971 287.597 912.085 287.577 912.204 287.577H916.763C917.392 287.577 917.903 288.114 917.903 288.777C917.903 288.979 917.856 289.168 917.773 289.335C917.582 289.717 917.201 289.978 916.763 289.978H912.204C912.028 289.978 911.861 289.936 911.713 289.86C911.558 289.781 911.423 289.666 911.316 289.527C911.234 289.42 911.168 289.298 911.125 289.165C911.086 289.043 911.065 288.912 911.065 288.777ZM926.108 287.577C925.48 287.577 924.969 288.114 924.969 288.777C924.969 289.44 925.48 289.978 926.108 289.978H930.667C931.144 289.978 931.554 289.668 931.723 289.229C931.748 289.163 931.768 289.094 931.782 289.024C931.798 288.944 931.807 288.862 931.807 288.777C931.807 288.114 931.296 287.577 930.667 287.577H926.108ZM933.63 288.777C933.63 288.114 934.141 287.577 934.77 287.577H939.329C939.957 287.577 940.468 288.114 940.468 288.777C940.468 289.118 940.333 289.425 940.118 289.644C939.913 289.851 939.635 289.978 939.329 289.978H934.77C934.141 289.978 933.63 289.44 933.63 288.777ZM943.431 287.577C942.803 287.577 942.292 288.114 942.292 288.777C942.292 289.44 942.803 289.978 943.431 289.978H947.99C948.619 289.978 949.13 289.44 949.13 288.777C949.13 288.114 948.619 287.577 947.99 287.577H943.431ZM951.048 288.3C951.112 288.142 951.208 288.002 951.327 287.888C951.53 287.695 951.799 287.577 952.093 287.577H956.652C957.28 287.577 957.791 288.114 957.791 288.777C957.791 289.44 957.28 289.978 956.652 289.978H952.093L951.972 289.971L951.892 289.959L951.805 289.939L951.685 289.899C951.482 289.817 951.306 289.674 951.178 289.491C951.101 289.383 951.042 289.261 951.003 289.13L950.985 289.056L950.973 288.991C950.96 288.922 950.953 288.851 950.953 288.777C950.953 288.683 950.964 288.591 950.984 288.503L951.016 288.387L951.048 288.3ZM959.886 288.001C959.779 288.133 959.699 288.289 959.654 288.46C959.629 288.562 959.615 288.668 959.615 288.777C959.615 289.06 959.707 289.319 959.862 289.524C960.071 289.801 960.393 289.978 960.755 289.978H965.313C965.942 289.978 966.453 289.44 966.453 288.777C966.453 288.114 965.942 287.577 965.313 287.577H960.755C960.603 287.577 960.457 287.609 960.324 287.666L960.206 287.725L960.138 287.767L960.032 287.849C959.98 287.895 959.93 287.946 959.886 288.001ZM883.256 288.777C883.256 288.114 883.768 287.577 884.396 287.577H888.955C889.583 287.577 890.095 288.114 890.095 288.777C890.095 289.44 889.583 289.978 888.955 289.978H884.396C884.14 289.978 883.903 289.888 883.712 289.737C883.625 289.667 883.547 289.585 883.481 289.492C883.34 289.292 883.256 289.046 883.256 288.777ZM893.969 287.577C893.697 287.577 893.446 287.678 893.25 287.847C893.134 287.947 893.036 288.07 892.965 288.21C892.878 288.379 892.83 288.572 892.83 288.777C892.83 289.44 893.341 289.978 893.969 289.978H898.528C898.754 289.978 898.964 289.909 899.141 289.79C899.458 289.576 899.668 289.203 899.668 288.777C899.668 288.114 899.157 287.577 898.528 287.577H893.969ZM827.87 292.377C828.077 292.086 828.408 291.898 828.78 291.898H833.339C833.967 291.898 834.478 292.436 834.478 293.099C834.478 293.762 833.967 294.299 833.339 294.299H828.78C828.151 294.299 827.64 293.762 827.64 293.099C827.64 292.828 827.726 292.577 827.87 292.377ZM837.441 291.898C836.813 291.898 836.302 292.436 836.302 293.099C836.302 293.762 836.813 294.299 837.441 294.299H842C842.629 294.299 843.14 293.762 843.14 293.099C843.14 292.436 842.629 291.898 842 291.898H837.441ZM844.963 293.099C844.963 292.436 845.474 291.898 846.103 291.898H850.662C851.29 291.898 851.801 292.436 851.801 293.099C851.801 293.46 851.65 293.783 851.411 294.004C851.28 294.124 851.123 294.212 850.95 294.26C850.858 294.285 850.761 294.299 850.662 294.299H846.103C845.474 294.299 844.963 293.762 844.963 293.099ZM854.765 291.898C854.136 291.898 853.625 292.436 853.625 293.099C853.625 293.762 854.136 294.299 854.765 294.299H859.323C859.952 294.299 860.463 293.762 860.463 293.099C860.463 292.636 860.215 292.236 859.852 292.035C859.694 291.948 859.514 291.898 859.323 291.898H854.765ZM862.286 293.099C862.286 292.436 862.798 291.898 863.426 291.898H867.985C868.613 291.898 869.125 292.436 869.125 293.099C869.125 293.762 868.613 294.299 867.985 294.299H863.426C863.147 294.299 862.892 294.193 862.694 294.017C862.445 293.796 862.286 293.467 862.286 293.099ZM872.088 291.898C871.459 291.898 870.948 292.436 870.948 293.099C870.948 293.762 871.459 294.299 872.088 294.299H876.646C876.963 294.299 877.252 294.162 877.458 293.941C877.661 293.724 877.786 293.427 877.786 293.099C877.786 292.436 877.275 291.898 876.646 291.898H872.088ZM902.403 293.099C902.403 292.436 902.914 291.898 903.543 291.898H908.101C908.484 291.898 908.823 292.097 909.029 292.402C909.163 292.598 909.241 292.839 909.241 293.099C909.241 293.762 908.73 294.299 908.101 294.299H903.543C902.914 294.299 902.403 293.762 902.403 293.099ZM911.289 292.383C911.148 292.583 911.065 292.831 911.065 293.099C911.065 293.762 911.576 294.299 912.204 294.299H916.763C917.392 294.299 917.903 293.762 917.903 293.099C917.903 292.818 917.812 292.56 917.659 292.356C917.45 292.078 917.126 291.898 916.763 291.898H912.204C912.003 291.898 911.814 291.953 911.65 292.048C911.51 292.132 911.385 292.246 911.289 292.383ZM883.256 293.099C883.256 292.896 883.305 292.705 883.388 292.537C883.581 292.157 883.96 291.898 884.396 291.898H888.955C889.24 291.898 889.5 292.008 889.699 292.189C889.941 292.409 890.095 292.735 890.095 293.099C890.095 293.762 889.583 294.299 888.955 294.299H884.396C883.768 294.299 883.256 293.762 883.256 293.099ZM893.969 291.898C893.665 291.898 893.387 292.025 893.182 292.231C893.058 292.356 892.962 292.51 892.901 292.682C892.876 292.751 892.858 292.822 892.846 292.895L892.832 293.005L892.83 293.099C892.83 293.357 892.908 293.596 893.04 293.791L893.118 293.895C893.175 293.965 893.241 294.027 893.314 294.082C893.426 294.165 893.556 294.228 893.695 294.264C893.745 294.277 893.795 294.286 893.847 294.292L893.969 294.299H898.528C899.157 294.299 899.668 293.762 899.668 293.099C899.668 292.436 899.157 291.898 898.528 291.898H893.969ZM827.932 296.618C828.141 296.374 828.443 296.22 828.78 296.22H833.339C833.967 296.22 834.478 296.757 834.478 297.42C834.478 298.083 833.967 298.62 833.339 298.62H828.78C828.151 298.62 827.64 298.083 827.64 297.42C827.64 297.236 827.679 297.062 827.749 296.906C827.797 296.801 827.859 296.705 827.932 296.618ZM837.441 296.22C836.813 296.22 836.302 296.757 836.302 297.42C836.302 298.083 836.813 298.62 837.441 298.62H842C842.629 298.62 843.14 298.083 843.14 297.42C843.14 296.757 842.629 296.22 842 296.22H837.441ZM844.963 297.42C844.963 296.757 845.474 296.22 846.103 296.22H850.662C850.883 296.22 851.089 296.286 851.264 296.402C851.586 296.614 851.801 296.991 851.801 297.42C851.801 298.083 851.29 298.62 850.662 298.62H846.103C845.87 298.62 845.654 298.546 845.474 298.42C845.371 298.348 845.279 298.258 845.202 298.153C845.052 297.951 844.963 297.697 844.963 297.42ZM854.765 296.22C854.136 296.22 853.625 296.757 853.625 297.42C853.625 298.083 854.136 298.62 854.765 298.62H859.323C859.952 298.62 860.463 298.083 860.463 297.42C860.463 297.355 860.458 297.293 860.449 297.232L860.427 297.127C860.417 297.08 860.402 297.033 860.386 296.988C860.369 296.939 860.349 296.892 860.324 296.847C860.276 296.753 860.215 296.667 860.146 296.59C859.939 296.362 859.647 296.22 859.323 296.22H854.765ZM862.286 297.42C862.286 296.757 862.798 296.22 863.426 296.22H867.985C868.613 296.22 869.125 296.757 869.125 297.42C869.125 297.749 868.998 298.047 868.795 298.264C868.588 298.484 868.302 298.62 867.985 298.62H863.426C863.102 298.62 862.81 298.478 862.602 298.249C862.534 298.175 862.477 298.092 862.429 298.003C862.338 297.831 862.286 297.632 862.286 297.42ZM871.27 296.585C871.071 296.8 870.948 297.096 870.948 297.42C870.948 298.083 871.459 298.62 872.088 298.62H876.646C877.275 298.62 877.786 298.083 877.786 297.42C877.786 296.757 877.275 296.22 876.646 296.22H872.088C871.767 296.22 871.477 296.359 871.27 296.585ZM902.403 297.42C902.403 296.757 902.914 296.22 903.543 296.22H908.101C908.413 296.22 908.696 296.353 908.903 296.568C909.113 296.784 909.241 297.086 909.241 297.42C909.241 298.083 908.73 298.62 908.101 298.62H903.543C902.914 298.62 902.403 298.083 902.403 297.42ZM912.204 296.22C911.576 296.22 911.065 296.757 911.065 297.42C911.065 298.083 911.576 298.62 912.204 298.62H916.763C917.092 298.62 917.39 298.473 917.598 298.238C917.693 298.13 917.769 298.004 917.823 297.866C917.874 297.729 917.903 297.578 917.903 297.42C917.903 296.757 917.392 296.22 916.763 296.22H912.204ZM924.969 297.42C924.969 296.757 925.48 296.22 926.108 296.22H930.667C931.296 296.22 931.807 296.757 931.807 297.42C931.807 298.083 931.296 298.62 930.667 298.62H926.108C925.48 298.62 924.969 298.083 924.969 297.42ZM934.77 296.22C934.141 296.22 933.63 296.757 933.63 297.42C933.63 298.083 934.141 298.62 934.77 298.62H939.329C939.957 298.62 940.468 298.083 940.468 297.42C940.468 296.757 939.957 296.22 939.329 296.22H934.77ZM883.256 297.42C883.256 296.757 883.768 296.22 884.396 296.22H888.955C889.252 296.22 889.523 296.34 889.726 296.536C889.767 296.575 889.804 296.618 889.84 296.664C889.998 296.871 890.095 297.134 890.095 297.42C890.095 298.083 889.583 298.62 888.955 298.62H884.396C883.768 298.62 883.256 298.083 883.256 297.42ZM960.755 296.22C960.126 296.22 959.615 296.757 959.615 297.42C959.615 298.083 960.126 298.62 960.755 298.62H965.313C965.739 298.62 966.111 298.374 966.307 298.009C966.4 297.835 966.453 297.634 966.453 297.42C966.453 296.757 965.942 296.22 965.313 296.22H960.755ZM892.83 297.42C892.83 296.757 893.341 296.22 893.969 296.22H898.528C898.726 296.22 898.911 296.273 899.073 296.366C899.427 296.57 899.668 296.965 899.668 297.42C899.668 298.083 899.157 298.62 898.528 298.62H893.969C893.711 298.62 893.473 298.529 893.282 298.377C893.008 298.158 892.83 297.811 892.83 297.42Z" fill="#E0E0E0"/>
<path fill-rule="evenodd" clip-rule="evenodd" d="M832.124 74.6238L829.416 77.827C757.147 42.2114 653.153 19.87 537.57 19.87C399.736 19.8699 278.382 51.6414 207.657 99.8076L170.766 76.1827C243.892 30.127 365.296 -0.000170496 502.697 -0.000158489C638.541 -0.000146617 758.749 29.4484 832.124 74.6238Z" fill="url(#paint0_linear_1_317)"/>
<path d="M836.616 77.9344L827.983 50.5554L821.731 52.9361L829.322 76L802.1 74.0654L802.1 79.5709L832.448 81.6543L836.616 77.9344Z" fill="#F94658"/>
<path fill-rule="evenodd" clip-rule="evenodd" d="M228.785 468.377L231.493 465.175C303.762 500.79 407.755 523.131 523.337 523.131C661.171 523.131 782.524 491.36 853.249 443.194L890.14 466.819C817.013 512.874 695.61 543 558.211 543C422.367 543 302.16 513.552 228.785 468.377Z" fill="url(#paint1_linear_1_317)"/>
<path d="M224.292 465.066L232.925 492.445L239.177 490.064L231.585 467L258.808 468.935L258.808 463.429L228.46 461.346L224.292 465.066Z" fill="#F94658"/>
<path d="M486.426 459.829C475.391 459.829 466.659 456.178 460.228 448.874C453.877 441.57 450.702 430.932 450.702 416.96C450.702 402.988 453.877 392.35 460.228 385.046C466.659 377.743 475.391 374.091 486.426 374.091C497.461 374.091 506.154 377.743 512.505 385.046C518.935 392.35 522.15 402.988 522.15 416.96C522.15 430.932 518.935 441.57 512.505 448.874C506.154 456.178 497.461 459.829 486.426 459.829ZM486.426 443.754C489.681 443.754 492.658 442.801 495.357 440.896C498.056 438.911 500.2 435.894 501.788 431.845C503.455 427.797 504.288 422.835 504.288 416.96C504.288 411.086 503.455 406.124 501.788 402.075C500.2 398.026 498.056 395.049 495.357 393.144C492.658 391.159 489.681 390.167 486.426 390.167C483.171 390.167 480.194 391.159 477.495 393.144C474.796 395.049 472.613 398.026 470.946 402.075C469.358 406.124 468.564 411.086 468.564 416.96C468.564 422.835 469.358 427.797 470.946 431.845C472.613 435.894 474.796 438.911 477.495 440.896C480.194 442.801 483.171 443.754 486.426 443.754ZM532.203 459.234C529.503 459.234 527.241 458.321 525.415 456.495C523.589 454.669 522.676 452.407 522.676 449.708C522.676 447.008 523.589 444.746 525.415 442.92C527.241 441.094 529.503 440.181 532.203 440.181C534.902 440.181 537.164 441.094 538.99 442.92C540.816 444.746 541.729 447.008 541.729 449.708C541.729 452.407 540.816 454.669 538.99 456.495C537.164 458.321 534.902 459.234 532.203 459.234ZM578.105 459.829C571.119 459.829 565.204 458.758 560.362 456.614C555.598 454.471 551.986 451.533 549.525 447.802C547.144 443.992 545.953 439.665 545.953 434.822C545.953 430.535 547.223 426.685 549.763 423.272C552.304 419.858 555.44 417.357 559.171 415.769C556.233 414.261 553.574 411.879 551.192 408.625C548.89 405.29 547.739 401.718 547.739 397.907C547.739 393.065 549.009 388.857 551.55 385.285C554.09 381.633 557.662 378.854 562.267 376.949C566.871 375.044 572.151 374.091 578.105 374.091C584.059 374.091 589.338 375.044 593.943 376.949C598.547 378.854 602.119 381.633 604.66 385.285C607.2 388.857 608.47 393.065 608.47 397.907C608.47 401.718 607.28 405.29 604.898 408.625C602.596 411.879 599.976 414.261 597.039 415.769C600.77 417.357 603.906 419.858 606.446 423.272C608.986 426.685 610.257 430.535 610.257 434.822C610.257 439.665 609.026 443.992 606.565 447.802C604.184 451.533 600.571 454.471 595.729 456.614C590.886 458.758 585.011 459.829 578.105 459.829ZM578.105 409.22C582.153 409.22 585.25 408.307 587.393 406.481C589.537 404.655 590.608 402.194 590.608 399.098C590.608 396.002 589.537 393.541 587.393 391.715C585.25 389.889 582.153 388.976 578.105 388.976C574.056 388.976 570.96 389.889 568.816 391.715C566.673 393.541 565.601 396.002 565.601 399.098C565.601 402.194 566.673 404.655 568.816 406.481C570.96 408.307 574.056 409.22 578.105 409.22ZM578.105 444.944C582.55 444.944 586.043 443.952 588.584 441.967C591.124 439.983 592.394 437.204 592.394 433.632C592.394 430.059 591.124 427.281 588.584 425.296C586.043 423.311 582.55 422.319 578.105 422.319C573.659 422.319 570.166 423.311 567.626 425.296C565.085 427.281 563.815 430.059 563.815 433.632C563.815 437.204 565.085 439.983 567.626 441.967C570.166 443.952 573.659 444.944 578.105 444.944Z" fill="#F94658"/>
<path fill-rule="evenodd" clip-rule="evenodd" d="M26.4971 222.771L19.9186 226.881L23.7003 234.465C36.6125 223.481 61.7954 216.024 90.747 216.024C119.598 216.024 144.707 223.429 157.659 234.351L161.384 226.881L154.805 222.771L157.799 210.338C157.937 209.768 158.534 209.438 159.091 209.625L179.561 216.518C180.734 216.913 181.27 218.268 180.684 219.359L172.805 234.017L165.217 229.277L161.062 237.608C164.885 241.807 166.997 246.42 166.997 251.261C166.997 257.858 163.074 264.032 156.247 269.311V279.618C160.527 275.59 163.192 271.113 163.842 266.377C163.945 267.112 163.997 267.853 163.997 268.6C163.997 274.054 161.206 279.207 156.247 283.77V293.989C160.527 289.96 163.192 285.483 163.842 280.747C163.945 281.482 163.997 282.223 163.997 282.97C163.997 298.691 140.807 311.909 109.372 315.717V315.659L109.31 315.676V296.321C105.465 294.229 98.6604 292.832 90.747 292.832C82.8337 292.832 76.0291 294.229 72.1846 296.321V315.676L72.122 315.659V315.717C40.6875 311.909 17.4971 298.691 17.4971 282.97C17.4971 282.458 17.5217 281.948 17.5704 281.441C18.3546 285.807 20.8532 289.942 24.7471 293.695V283.301C20.1012 278.855 17.4971 273.868 17.4971 268.6C17.4971 268.087 17.5217 267.578 17.5704 267.071C18.3546 271.437 20.8532 275.572 24.7471 279.325V268.919C18.229 263.727 14.4971 257.696 14.4971 251.261C14.4971 246.473 16.5639 241.907 20.3079 237.745L16.0849 229.277L8.49712 234.017L0.617981 219.359C0.0318717 218.268 0.56781 216.913 1.74133 216.518L22.2115 209.625C22.768 209.438 23.3654 209.768 23.5029 210.338L26.4971 222.771ZM27.9971 286.073V296.493C31.9885 299.582 36.9753 302.353 42.7471 304.706V294.17C36.9643 291.85 31.9763 289.118 27.9971 286.073ZM42.7471 290.336C36.9753 287.983 31.9885 285.212 27.9971 282.123V271.286C32.1361 274.05 37.1088 276.528 42.7471 278.642V290.336ZM47.2471 295.838V306.4C53.5192 308.578 60.5519 310.296 68.122 311.449V300.805C60.548 299.669 53.5149 297.979 47.2471 295.838ZM68.122 297.079C60.5519 295.926 53.5192 294.208 47.2471 292.03V280.206C59.5842 284.173 74.5779 286.499 90.747 286.499C106.698 286.499 121.506 284.235 133.747 280.365V292.136C127.606 294.246 120.746 295.916 113.372 297.049V296.524V296.302H113.362C113.003 292.317 103.015 289.123 90.747 289.123C78.4786 289.123 68.4909 292.317 68.1321 296.302H68.122V296.524V297.079ZM113.372 300.805V311.42C120.746 310.286 127.606 308.616 133.747 306.507V296.007C127.606 298.068 120.745 299.699 113.372 300.805ZM138.247 294.369V304.831C144.001 302.511 148.986 299.778 152.997 296.729V286.45C148.986 289.43 144.001 292.102 138.247 294.369ZM152.997 282.359V271.616C148.836 274.329 143.865 276.758 138.247 278.828V290.46C144.001 288.141 148.986 285.408 152.997 282.359ZM123.384 224.414C137.019 227.446 147.969 232.318 154.349 238.241L128.499 254.99C124.063 251.545 117.322 248.767 109.216 247.076L123.384 224.414ZM134.247 264.631C134.247 262.38 133.387 260.219 131.805 258.209L157.403 241.623C159.414 244.353 160.497 247.254 160.497 250.262C160.497 260.8 147.199 270.035 127.254 275.181C131.677 272.146 134.247 268.523 134.247 264.631ZM118.673 223.46L104.439 246.23C100.171 245.603 95.61 245.263 90.872 245.263C85.9841 245.263 81.2851 245.624 76.9013 246.29L62.6485 223.492C71.2446 221.904 80.7502 221.022 90.747 221.022C100.677 221.022 110.123 221.892 118.673 223.46ZM24.0297 241.707C22.0579 244.413 20.9971 247.285 20.9971 250.262C20.9971 260.87 34.4733 270.159 54.6407 275.284C50.1253 272.228 47.4971 268.567 47.4971 264.631C47.4971 262.451 48.3039 260.355 49.7914 258.399L24.0297 241.707ZM53.0451 255.147C57.4075 251.685 64.0839 248.883 72.1376 247.158L57.942 224.451C44.329 227.498 33.4091 232.383 27.0667 238.314L53.0451 255.147Z" fill="#D9D9D9"/>
<defs>
<linearGradient id="paint0_linear_1_317" x1="233.376" y1="49.9037" x2="832.124" y2="49.9037" gradientUnits="userSpaceOnUse">
<stop stop-color="#E0E0E0" stop-opacity="0"/>
<stop offset="1" stop-color="#F94658"/>
</linearGradient>
<linearGradient id="paint1_linear_1_317" x1="827.53" y1="493.097" x2="228.785" y2="493.097" gradientUnits="userSpaceOnUse">
<stop stop-color="#E0E0E0" stop-opacity="0"/>
<stop offset="1" stop-color="#F94658"/>
</linearGradient>
</defs>
</svg>
